{"glyphs":{"0":{"ha":667,"x_min":49,"x_max":615,"o":"m 333 882 l 335 882 q 465 842 408 882 q 553 737 522 803 q 600 594 585 671 q 615 433 615 518 q 600 277 615 353 q 553 133 585 201 q 465 24 521 65 q 333 -17 408 -17 q 201 22 258 -17 q 112 126 144 60 q 64 269 79 192 q 49 432 49 346 q 75 640 49 542 q 168 810 101 738 q 333 882 235 882 m 332 836 l 331 836 q 253 801 286 836 q 204 707 221 767 q 180 580 188 647 q 172 435 172 513 q 181 289 172 357 q 207 161 189 221 q 258 66 225 101 q 333 31 290 31 q 410 65 378 31 q 460 160 443 100 q 484 288 476 221 q 492 433 492 354 q 484 581 492 513 q 459 708 476 649 q 409 802 442 768 q 332 836 376 836 z "},"1":{"ha":667,"x_min":151,"x_max":533,"o":"m 533 0 l 151 0 l 151 38 q 265 63 244 44 q 285 158 285 82 l 285 693 q 274 760 285 747 q 218 775 264 774 l 151 778 l 151 810 q 399 882 268 829 l 399 158 q 419 63 399 82 q 533 38 439 44 l 533 0 z "},"2":{"ha":667,"x_min":43,"x_max":611,"o":"m 572 194 l 611 182 q 563 0 611 179 l 43 0 l 43 32 q 268 268 183 169 q 396 444 350 365 q 442 604 442 524 q 399 740 442 692 q 278 789 356 789 q 89 660 175 789 l 58 688 l 138 800 q 325 882 213 882 q 490 817 421 882 q 558 647 558 753 q 517 489 558 561 q 375 308 476 417 l 178 101 l 438 101 q 519 116 496 101 q 572 194 542 131 z "},"3":{"ha":667,"x_min":60,"x_max":589,"o":"m 396 525 l 396 522 q 538 447 486 504 q 589 311 589 389 q 547 166 589 232 q 444 62 504 100 q 325 3 383 24 q 225 -17 267 -17 q 142 -1 182 -17 q 86 31 103 14 q 64 81 60 56 q 96 126 65 103 q 129 126 114 140 q 301 56 210 56 q 424 110 378 56 q 469 267 469 165 q 415 401 469 356 q 293 446 361 446 q 204 431 253 446 l 194 471 q 359 550 301 504 q 417 668 417 596 q 380 765 417 731 q 285 799 343 799 q 118 689 192 799 l 89 717 l 150 804 q 325 882 221 882 l 326 882 q 476 831 419 882 q 533 699 533 779 q 490 600 533 643 q 396 525 464 572 z "},"4":{"ha":667,"x_min":28,"x_max":633,"o":"m 633 247 l 500 247 l 500 147 q 517 60 500 76 q 618 38 535 44 l 618 0 l 263 0 l 263 38 q 371 61 353 44 q 389 147 389 78 l 389 247 l 28 247 l 28 286 q 444 878 265 642 l 500 878 l 500 313 l 633 313 l 633 247 m 389 313 l 389 724 l 386 724 q 115 313 225 497 l 389 313 z "},"5":{"ha":667,"x_min":65,"x_max":599,"o":"m 211 764 l 175 507 q 331 549 288 549 q 527 478 456 549 q 599 314 599 407 q 475 82 599 183 q 233 -17 357 -14 q 149 -1 190 -17 q 90 32 108 14 q 68 79 65 60 q 97 125 71 100 q 135 125 117 140 q 306 54 213 54 q 435 115 389 54 q 482 260 482 175 q 424 412 482 354 q 256 469 365 469 q 113 442 183 469 l 167 865 l 563 865 l 571 854 l 535 764 l 211 764 z "},"6":{"ha":667,"x_min":51,"x_max":621,"o":"m 190 476 l 283 522 q 371 546 335 546 q 551 472 481 546 q 621 289 621 397 q 540 73 621 163 q 336 -17 458 -17 q 132 78 213 -17 q 51 331 51 172 q 85 531 51 439 q 176 683 119 622 q 291 784 233 744 q 410 846 349 824 q 588 890 486 872 l 597 846 q 446 797 522 832 q 190 476 239 699 m 317 468 l 315 468 q 183 429 256 468 q 175 333 175 397 q 226 117 175 204 q 360 31 276 31 q 467 94 433 31 q 501 239 501 157 q 453 401 501 333 q 317 468 406 468 z "},"7":{"ha":667,"x_min":65,"x_max":632,"o":"m 621 865 l 632 849 q 449 452 585 746 q 239 -3 314 158 l 136 -17 l 126 -1 q 539 764 376 406 l 239 764 q 152 747 172 764 q 106 660 132 731 l 65 660 q 90 865 79 743 l 621 865 z "},"8":{"ha":667,"x_min":63,"x_max":604,"o":"m 344 882 l 346 882 q 507 822 443 882 q 571 676 571 763 q 531 565 571 613 q 421 476 508 536 q 556 372 507 428 q 604 235 604 317 q 517 53 604 122 q 329 -17 429 -17 q 138 47 214 -17 q 63 218 63 110 q 125 350 63 290 q 247 439 158 382 q 97 654 97 524 q 167 814 97 746 q 344 882 236 882 m 331 838 l 329 838 q 237 794 272 838 q 201 694 201 751 q 246 583 201 625 q 382 497 290 542 q 467 669 467 564 q 426 794 467 751 q 331 838 385 838 m 343 28 l 344 28 q 451 74 408 28 q 493 199 493 121 q 440 318 493 269 q 288 417 386 367 q 174 226 174 340 q 224 81 174 135 q 343 28 274 28 z "},"9":{"ha":667,"x_min":53,"x_max":611,"o":"m 336 882 l 338 882 q 537 782 463 882 q 611 535 611 682 q 521 216 611 350 q 283 24 431 82 q 89 -21 174 -21 l 82 21 q 339 147 233 46 q 478 404 444 247 l 385 354 q 301 332 344 332 q 122 404 192 332 q 53 586 53 476 q 131 789 53 696 q 336 882 210 882 m 318 836 l 317 836 q 233 801 268 836 q 185 724 199 767 q 172 635 172 681 q 223 476 172 540 q 358 411 274 411 q 483 450 432 411 q 489 542 489 490 q 481 640 489 592 q 454 734 472 688 q 401 808 436 781 q 318 836 365 836 z "}," ":{"ha":315,"x_min":0,"x_max":0,"o":""},"!":{"ha":383,"x_min":113,"x_max":269,"o":"m 189 924 l 190 924 q 264 882 264 924 q 254 771 264 850 q 214 274 240 649 q 190 267 208 267 q 165 274 171 267 q 125 771 138 669 q 115 882 115 871 q 189 924 115 924 m 190 -17 l 189 -17 q 134 6 156 -17 q 113 65 113 28 q 135 123 113 100 q 190 146 157 146 q 247 123 225 146 q 269 65 269 100 q 247 6 269 28 q 190 -17 225 -17 z "},"\"":{"ha":442,"x_min":58,"x_max":381,"o":"m 165 986 l 174 979 q 138 675 167 893 l 99 658 q 58 949 72 897 l 165 986 m 372 986 l 381 979 q 344 675 368 836 l 306 658 q 267 949 275 921 l 372 986 z "},"#":{"ha":667,"x_min":33,"x_max":622,"o":"m 622 631 l 610 550 l 483 550 l 442 360 l 561 360 l 547 279 l 424 279 l 371 38 l 318 38 l 369 279 l 219 279 l 167 38 l 113 38 l 167 279 l 33 279 l 47 360 l 186 360 l 226 550 l 97 550 l 108 631 l 244 631 l 290 844 l 344 844 l 297 631 l 447 631 l 493 844 l 546 844 l 501 631 l 622 631 m 429 550 l 279 550 l 240 360 l 389 360 l 429 550 z "},"$":{"ha":667,"x_min":63,"x_max":603,"o":"m 367 504 l 407 489 q 603 257 603 418 q 540 94 603 158 q 367 15 476 29 l 367 -106 l 318 -106 l 318 13 q 101 69 192 13 q 63 251 83 132 l 104 264 q 318 58 161 76 l 318 394 l 268 417 q 93 629 93 489 q 152 778 93 715 q 318 853 211 840 l 318 963 l 367 963 l 367 857 q 490 839 428 857 q 538 828 515 832 q 567 654 542 804 l 528 644 q 474 759 506 718 q 367 811 442 800 l 367 504 m 318 522 l 318 811 q 222 765 256 806 q 189 672 189 725 q 318 522 189 572 m 367 378 l 367 60 q 464 109 429 68 q 499 208 499 150 q 474 301 499 263 q 383 371 450 340 l 367 378 z "},"%":{"ha":1050,"x_min":68,"x_max":986,"o":"m 825 874 l 264 -44 l 222 -12 l 779 906 l 825 874 m 269 882 l 271 882 q 418 804 367 882 q 469 631 469 726 q 418 456 469 535 q 269 378 367 378 q 120 456 172 378 q 68 629 68 533 q 120 804 68 726 q 269 882 172 882 m 271 840 l 269 840 q 219 818 240 840 q 188 761 197 796 q 174 694 178 726 q 169 631 169 663 q 174 567 169 599 q 188 499 178 535 q 219 442 197 464 q 271 419 240 419 q 322 442 301 419 q 353 500 343 464 q 366 567 363 536 q 369 629 369 599 q 366 693 369 661 q 353 760 363 725 q 322 818 343 796 q 271 840 301 840 m 786 489 l 788 489 q 935 410 883 489 q 986 236 986 332 q 935 62 986 140 q 786 -17 883 -17 q 637 61 689 -17 q 585 235 585 139 q 637 410 585 332 q 786 489 689 489 m 786 447 l 785 447 q 722 408 746 447 q 692 325 699 368 q 686 236 686 282 q 690 173 686 204 q 704 106 694 142 q 735 47 714 69 q 788 25 757 25 q 838 47 817 25 q 868 106 858 69 q 881 173 878 142 q 885 236 885 204 q 881 300 885 268 q 868 367 878 332 q 838 425 858 403 q 786 447 817 447 z "},"&":{"ha":988,"x_min":75,"x_max":996,"o":"m 996 593 l 996 554 q 901 526 928 546 q 835 451 874 507 q 770 354 813 419 q 714 267 728 289 q 842 126 771 210 q 940 -12 913 42 l 931 -26 q 826 -3 878 -22 q 761 31 775 15 q 640 165 726 74 q 350 -19 503 -19 q 150 58 225 -19 q 75 233 75 135 q 78 270 75 253 q 85 301 82 288 q 99 332 88 315 q 115 358 110 349 q 136 384 119 368 q 159 406 153 400 q 188 431 165 413 q 217 453 211 449 q 250 477 222 457 q 283 501 278 497 q 183 694 183 597 q 251 850 183 786 q 411 914 318 914 q 557 859 497 914 q 617 722 617 804 q 558 600 617 650 q 446 517 508 558 q 679 301 575 407 q 763 461 725 372 q 767 526 783 508 q 678 554 751 544 l 678 593 l 996 593 m 397 867 l 396 867 q 315 828 347 867 q 283 728 283 789 q 313 635 283 676 q 410 543 343 594 q 513 721 513 618 q 480 824 513 782 q 397 867 447 867 m 385 76 l 386 76 q 511 113 451 76 q 608 203 571 150 q 319 471 490 332 q 193 272 193 383 q 251 128 193 179 q 385 76 310 76 z "},"'":{"ha":235,"x_min":58,"x_max":174,"o":"m 165 986 l 174 979 q 138 675 167 904 l 99 658 q 58 949 74 896 l 165 986 z "},"(":{"ha":481,"x_min":97,"x_max":417,"o":"m 417 -204 l 392 -235 q 171 22 244 -136 q 97 375 97 181 l 97 376 q 171 727 97 569 q 392 985 244 885 l 417 953 q 256 713 314 868 q 199 375 199 557 q 256 38 199 194 q 417 -204 314 -118 z "},")":{"ha":481,"x_min":63,"x_max":382,"o":"m 382 375 l 382 374 q 89 -235 382 -36 l 63 -204 q 224 38 167 -117 q 282 375 282 193 q 224 713 282 557 q 63 953 165 868 l 89 985 q 382 375 382 788 z "},"*":{"ha":561,"x_min":56,"x_max":506,"o":"m 506 683 l 322 650 l 376 460 l 344 446 l 247 626 l 78 521 l 57 551 l 200 681 l 56 822 l 76 851 l 243 740 l 324 924 l 358 915 l 319 722 l 506 719 l 506 683 z "},"+":{"ha":806,"x_min":72,"x_max":735,"o":"m 735 319 l 444 319 l 444 0 l 364 0 l 364 319 l 72 319 l 72 388 l 364 388 l 364 676 l 444 676 l 444 388 l 735 388 l 735 319 z "},",":{"ha":317,"x_min":61,"x_max":258,"o":"m 131 179 l 132 179 q 217 138 175 179 q 258 29 258 96 q 205 -92 258 -44 q 76 -162 151 -140 l 61 -122 q 168 -6 168 -78 q 144 55 168 31 q 81 88 119 79 q 64 122 64 90 q 84 163 64 147 q 131 179 104 179 z "},"-":{"ha":494,"x_min":79,"x_max":417,"o":"m 417 351 l 396 275 l 79 275 l 99 351 l 417 351 z "},".":{"ha":317,"x_min":81,"x_max":236,"o":"m 158 -17 l 157 -17 q 102 6 124 -17 q 81 64 81 28 q 103 120 81 97 q 158 143 125 143 q 214 120 192 143 q 236 64 236 97 q 214 6 236 28 q 158 -17 192 -17 z "},"/":{"ha":460,"x_min":35,"x_max":414,"o":"m 414 924 l 113 -61 l 35 -61 l 336 924 l 414 924 z "},":":{"ha":317,"x_min":82,"x_max":238,"o":"m 158 571 l 160 571 q 214 549 192 571 q 236 493 236 528 q 214 435 236 458 q 158 413 192 413 q 103 435 125 413 q 82 493 82 458 q 103 549 82 528 q 158 571 125 571 m 160 -17 l 158 -17 q 103 6 125 -17 q 82 64 82 28 q 104 120 82 97 q 160 143 126 143 q 215 120 193 143 q 238 64 238 97 q 215 6 238 28 q 160 -17 193 -17 z "},";":{"ha":317,"x_min":63,"x_max":258,"o":"m 158 571 l 160 571 q 213 549 192 571 q 235 492 235 526 q 213 435 235 457 q 158 413 192 413 q 103 435 125 413 q 81 492 81 457 q 103 549 81 526 q 158 571 125 571 m 131 181 l 132 181 q 217 139 175 181 q 258 31 258 97 q 206 -92 258 -43 q 78 -164 153 -140 l 63 -122 q 168 -6 168 -78 q 82 88 168 67 q 64 122 64 92 q 84 164 64 147 q 131 181 104 181 z "},"<":{"ha":767,"x_min":83,"x_max":685,"o":"m 685 0 l 83 319 l 83 385 l 685 704 l 685 626 l 165 353 l 165 350 l 685 78 l 685 0 z "},"=":{"ha":806,"x_min":72,"x_max":735,"o":"m 735 446 l 72 446 l 72 515 l 735 515 l 735 446 m 735 192 l 72 192 l 72 261 l 735 261 l 735 192 z "},">":{"ha":767,"x_min":83,"x_max":683,"o":"m 683 319 l 83 0 l 83 78 l 603 350 l 603 353 l 83 626 l 83 704 l 683 385 l 683 319 z "},"?":{"ha":526,"x_min":81,"x_max":461,"o":"m 304 300 l 279 268 q 177 339 229 286 q 125 449 125 392 q 151 520 125 485 q 242 604 176 556 q 259 617 243 606 q 280 632 275 628 q 299 647 285 636 q 320 665 314 658 q 338 682 326 671 q 356 701 350 693 q 367 719 361 708 q 376 739 374 729 q 379 758 379 749 q 357 815 379 794 q 296 835 335 835 q 222 816 257 835 q 165 778 186 797 q 138 760 143 760 q 101 778 122 760 q 81 821 81 797 q 110 871 81 846 q 177 910 139 896 q 238 924 215 924 l 239 924 q 393 856 325 924 q 461 701 461 788 q 394 579 461 635 q 353 548 386 572 q 300 506 321 524 q 260 463 279 489 q 240 413 240 436 q 304 300 240 357 m 256 -17 l 254 -17 q 201 6 222 -17 q 179 64 179 28 q 201 120 179 97 q 256 143 224 143 q 311 120 289 143 q 333 64 333 97 q 311 6 333 28 q 256 -17 289 -17 z "},"@":{"ha":1046,"x_min":71,"x_max":990,"o":"m 757 -19 l 772 -58 q 490 -133 644 -133 q 192 -23 314 -133 q 71 289 71 88 q 149 565 71 444 q 346 744 226 685 q 601 804 465 804 q 885 701 781 804 q 990 447 990 597 q 896 203 990 304 q 663 103 801 103 q 600 131 613 103 q 600 201 588 158 l 615 281 l 613 282 q 498 164 575 225 q 376 103 421 103 q 329 133 349 103 q 310 219 310 163 q 338 355 310 283 q 422 481 365 426 q 644 583 528 582 q 714 574 649 583 q 761 567 746 567 q 693 251 729 439 q 689 178 683 196 q 721 161 694 160 q 861 240 799 164 q 924 447 924 317 q 832 669 924 588 q 594 750 740 750 q 281 624 401 750 q 161 303 161 499 q 181 167 161 231 q 244 47 201 103 q 360 -40 286 -8 q 535 -72 435 -72 q 658 -55 592 -72 q 757 -19 725 -37 m 588 528 l 586 528 q 496 486 535 528 q 441 383 465 450 q 415 253 417 317 q 444 192 415 192 q 519 235 467 192 q 626 358 571 279 q 663 513 639 399 q 588 528 629 528 z "},"A":{"ha":960,"x_min":28,"x_max":935,"o":"m 935 0 l 594 0 l 594 39 q 675 61 660 47 q 676 115 690 75 q 600 329 667 143 l 304 329 q 243 150 261 207 q 235 65 221 85 q 329 39 250 46 l 329 0 l 28 0 l 28 39 q 122 71 96 49 q 183 182 149 93 l 471 911 l 514 924 q 626 612 522 900 q 782 179 729 324 q 840 68 815 90 q 935 39 865 46 l 935 0 m 581 389 l 458 743 l 456 743 q 325 389 397 586 l 581 389 z "},"B":{"ha":817,"x_min":50,"x_max":763,"o":"m 517 490 l 517 486 q 763 265 763 449 q 629 56 763 131 q 357 0 528 0 l 50 0 l 50 39 q 159 65 140 46 q 178 172 178 85 l 178 732 q 161 839 178 819 q 61 864 144 858 l 61 903 l 418 903 q 626 856 560 903 q 704 697 704 804 q 648 560 704 608 q 517 490 592 511 m 294 503 l 360 503 q 524 547 472 503 q 576 681 576 592 q 531 808 576 758 q 392 858 485 858 q 313 844 336 858 q 294 775 294 832 l 294 503 m 294 457 l 294 174 q 319 73 294 99 q 410 47 343 47 q 564 99 503 49 q 625 251 625 150 q 358 457 625 457 l 294 457 z "},"C":{"ha":924,"x_min":61,"x_max":893,"o":"m 853 244 l 893 229 q 814 17 847 76 q 558 -21 664 -21 q 335 19 433 -21 q 179 126 238 60 q 91 273 121 193 q 61 439 61 353 q 211 790 61 656 q 596 924 361 924 q 695 917 646 924 q 791 898 744 910 q 842 886 838 886 q 869 676 863 733 l 828 667 q 737 825 801 776 q 558 874 672 874 q 298 754 393 874 q 203 467 203 635 q 305 151 203 272 q 567 29 407 29 q 733 81 668 29 q 853 244 797 133 z "},"D":{"ha":1021,"x_min":46,"x_max":958,"o":"m 58 903 l 449 903 q 842 785 718 903 q 958 486 958 671 q 788 115 958 244 q 375 0 639 0 l 46 0 l 46 38 q 156 65 136 44 q 176 172 176 85 l 176 729 q 168 816 176 792 q 138 849 160 840 q 58 863 117 858 l 58 903 m 296 760 l 296 182 q 330 78 296 106 q 443 50 364 50 q 725 169 628 50 q 822 467 822 288 q 781 665 822 578 q 658 799 739 751 q 422 856 569 856 q 314 839 338 856 q 296 760 296 826 z "},"E":{"ha":789,"x_min":40,"x_max":758,"o":"m 717 225 l 758 219 q 710 0 733 81 l 40 0 l 40 39 q 156 67 135 46 q 178 172 178 88 l 178 725 q 160 837 178 817 q 58 864 142 857 l 58 903 l 678 903 q 689 703 678 892 l 649 696 q 604 815 633 765 q 556 846 589 838 q 447 854 522 854 l 342 854 q 303 848 310 854 q 296 810 296 842 l 296 494 l 426 494 q 540 510 518 494 q 576 599 563 526 l 617 599 l 617 332 l 576 332 q 540 424 563 407 q 428 440 518 440 l 296 440 l 296 178 q 329 65 296 89 q 474 47 358 47 q 589 57 553 47 q 649 94 625 67 q 717 225 690 143 z "},"F":{"ha":735,"x_min":56,"x_max":685,"o":"m 685 699 l 643 693 q 604 804 628 768 q 556 844 588 833 q 446 854 524 854 l 340 854 q 303 848 310 854 q 296 811 296 842 l 296 481 l 439 481 q 553 497 531 481 q 589 582 575 513 l 628 582 l 628 315 l 589 315 q 553 408 575 390 q 439 426 531 426 l 296 426 l 296 175 q 317 66 296 86 q 433 39 338 46 l 433 0 l 56 0 l 56 39 q 159 66 140 46 q 178 175 178 86 l 178 728 q 160 837 178 817 q 60 864 142 857 l 60 903 l 671 903 q 685 699 671 829 z "},"G":{"ha":993,"x_min":61,"x_max":961,"o":"m 961 418 l 961 381 q 885 356 899 371 q 872 279 872 340 l 872 161 q 882 31 872 75 q 571 -21 669 -21 q 202 108 343 -21 q 61 444 61 238 q 106 655 61 561 q 225 806 150 749 q 394 893 300 863 q 592 924 488 924 q 658 921 624 924 q 724 913 692 918 q 777 902 756 907 q 826 891 799 897 q 858 883 853 885 q 881 667 868 769 l 842 658 q 749 826 818 778 q 571 874 679 874 q 306 762 408 874 q 203 461 203 650 q 226 308 203 383 q 295 169 250 233 q 417 67 340 106 q 589 28 493 28 q 710 53 660 28 q 744 84 733 65 q 754 143 754 103 l 754 261 q 732 354 754 336 q 608 381 710 372 l 608 418 l 961 418 z "},"H":{"ha":1064,"x_min":53,"x_max":1013,"o":"m 1013 903 l 1013 864 q 907 837 926 857 q 888 732 888 817 l 888 171 q 906 65 888 85 q 1011 39 925 46 l 1011 0 l 639 0 l 639 39 q 749 65 729 46 q 769 171 769 85 l 769 449 l 296 449 l 296 171 q 315 65 296 85 q 421 39 335 46 l 421 0 l 56 0 l 56 39 q 159 65 140 46 q 178 171 178 85 l 178 732 q 159 838 178 818 q 53 864 140 857 l 53 903 l 413 903 l 413 864 q 314 837 332 857 q 296 732 296 817 l 296 507 l 769 507 l 769 732 q 751 837 769 817 q 650 864 732 857 l 650 903 l 1013 903 z "},"I":{"ha":474,"x_min":53,"x_max":421,"o":"m 421 0 l 53 0 l 53 39 q 158 66 139 46 q 178 174 178 86 l 178 729 q 158 837 178 817 q 53 864 139 857 l 53 903 l 421 903 l 421 864 q 315 837 335 857 q 296 729 296 817 l 296 174 q 315 65 296 85 q 421 39 335 46 l 421 0 z "},"J":{"ha":457,"x_min":36,"x_max":421,"o":"m 421 903 l 421 864 q 322 837 340 857 q 303 729 303 817 l 303 210 q 277 -6 303 74 q 183 -149 251 -86 q 54 -229 117 -210 l 36 -190 q 169 -8 147 -135 q 185 256 185 74 l 185 729 q 165 837 185 817 q 61 864 146 857 l 61 903 l 421 903 z "},"K":{"ha":935,"x_min":56,"x_max":926,"o":"m 926 0 l 713 0 q 368 404 681 36 q 293 443 329 450 l 293 179 q 314 67 293 89 q 421 39 335 46 l 421 0 l 60 0 l 60 39 q 159 67 140 46 q 178 179 178 89 l 178 722 q 175 797 178 774 q 157 837 172 821 q 122 856 142 853 q 56 864 101 860 l 56 903 l 414 903 l 414 864 q 313 835 332 857 q 293 722 293 814 l 293 479 q 390 543 333 490 q 624 789 543 690 q 651 840 654 826 q 600 860 647 854 l 569 864 l 569 903 l 903 903 l 903 864 q 783 838 824 857 q 676 760 743 819 q 431 517 608 697 q 757 139 592 317 q 842 64 811 82 q 926 39 874 46 l 926 0 z "},"L":{"ha":747,"x_min":50,"x_max":729,"o":"m 688 226 l 729 218 q 679 0 703 81 l 50 0 l 50 39 q 158 67 138 46 q 178 175 178 88 l 178 731 q 169 817 178 793 q 139 851 161 842 q 56 864 117 860 l 56 903 l 418 903 l 418 864 q 315 838 335 857 q 296 731 296 818 l 296 182 q 303 100 296 125 q 328 65 310 75 q 461 47 361 47 q 617 90 579 47 q 688 226 660 140 z "},"M":{"ha":1238,"x_min":36,"x_max":1196,"o":"m 1196 0 l 831 0 l 831 39 q 932 71 915 47 q 947 204 949 94 l 943 771 l 938 771 l 599 10 l 571 10 l 260 751 l 257 751 l 236 356 q 232 125 229 221 q 260 63 233 78 q 360 39 286 47 l 360 0 l 36 0 l 36 39 q 123 63 99 46 q 154 122 147 79 q 181 376 169 226 l 200 665 q 205 742 204 715 q 201 794 206 768 q 192 828 197 819 q 169 847 188 838 q 134 858 151 856 q 79 864 117 860 l 79 903 l 307 903 l 624 208 l 944 903 l 1181 903 l 1181 864 q 1147 861 1158 863 q 1120 857 1136 860 q 1098 852 1104 854 q 1082 845 1092 850 q 1069 835 1072 840 q 1060 821 1065 831 q 1055 802 1056 811 q 1053 777 1054 793 q 1052 746 1051 761 q 1053 707 1053 731 l 1067 204 q 1088 70 1069 93 q 1196 39 1106 47 l 1196 0 z "},"N":{"ha":1032,"x_min":28,"x_max":999,"o":"m 999 903 l 999 864 q 913 843 939 861 q 882 781 886 825 q 874 547 874 718 l 874 -12 l 831 -12 l 239 715 l 236 715 l 236 367 q 244 132 236 213 q 278 62 250 81 q 378 39 306 43 l 378 0 l 49 0 l 49 39 q 138 60 111 42 q 171 129 165 79 q 179 367 179 215 l 179 672 q 175 766 179 746 q 151 813 171 786 q 28 864 117 857 l 28 903 l 233 903 l 813 206 l 817 206 l 817 547 q 807 778 817 688 q 773 842 801 824 q 671 864 744 860 l 671 903 l 999 903 z "},"O":{"ha":1038,"x_min":61,"x_max":976,"o":"m 528 924 l 529 924 q 844 794 711 924 q 976 463 976 665 q 843 111 976 243 q 513 -21 710 -21 q 192 111 322 -21 q 61 442 61 243 q 190 781 61 639 q 528 924 318 924 m 500 874 l 499 874 q 289 770 375 874 q 203 481 203 667 q 299 157 203 285 q 542 29 394 29 q 750 132 665 29 q 835 425 835 235 q 739 755 835 636 q 500 874 643 874 z "},"P":{"ha":782,"x_min":56,"x_max":731,"o":"m 64 903 l 407 903 q 640 844 563 903 q 731 649 731 778 q 651 451 731 524 q 460 364 572 379 q 397 364 424 361 l 294 390 l 294 172 q 316 65 294 85 q 432 39 338 46 l 432 0 l 56 0 l 56 39 q 158 67 139 46 q 178 174 178 88 l 178 729 q 160 839 178 819 q 64 864 143 858 l 64 903 m 294 776 l 294 436 q 396 419 338 419 q 538 472 478 419 q 597 644 597 525 q 538 805 597 751 q 388 858 479 858 q 310 842 326 858 q 294 776 294 828 z "},"Q":{"ha":1035,"x_min":61,"x_max":1000,"o":"m 1000 -192 l 989 -221 q 811 -200 896 -222 q 492 -19 715 -175 q 206 100 319 -10 q 61 436 61 235 q 190 781 61 638 q 533 924 318 924 q 845 793 714 924 q 976 458 976 663 q 885 165 976 285 q 661 3 794 44 q 1000 -192 832 -115 m 483 35 l 578 65 q 597 52 585 61 q 615 39 610 43 q 771 164 707 65 q 835 419 835 263 q 741 751 835 631 q 500 872 647 872 q 290 767 376 872 q 203 474 203 663 q 281 180 203 300 q 483 35 360 60 z "},"R":{"ha":863,"x_min":51,"x_max":876,"o":"m 876 25 l 871 -11 q 822 -10 839 -11 q 693 22 743 -6 q 597 117 643 50 q 457 339 568 158 q 414 382 439 369 q 338 394 389 394 l 293 394 l 293 174 q 313 66 293 86 q 417 39 332 46 l 417 0 l 51 0 l 51 39 q 158 66 138 46 q 178 174 178 86 l 178 732 q 160 838 178 818 q 58 864 142 857 l 58 903 l 403 903 q 625 856 553 903 q 717 674 717 796 q 540 436 717 513 q 664 235 576 365 q 776 90 732 136 q 876 25 822 40 m 293 440 l 360 440 q 511 479 463 440 q 588 651 588 538 q 529 807 588 757 q 383 857 471 857 q 308 843 326 857 q 293 782 293 832 l 293 440 z "},"S":{"ha":658,"x_min":58,"x_max":608,"o":"m 568 700 l 528 692 q 506 759 517 732 q 474 816 494 786 q 421 861 453 846 q 346 876 389 876 q 231 831 271 876 q 192 724 192 786 q 233 610 192 653 q 368 518 275 567 q 436 482 414 494 q 498 442 458 469 q 557 390 538 414 q 592 326 576 365 q 608 242 608 286 q 522 55 608 131 q 300 -21 436 -21 q 164 0 239 -21 q 96 29 119 15 q 58 244 81 71 l 99 254 q 124 182 108 217 q 167 110 140 147 q 235 51 193 74 q 326 29 276 29 q 449 74 404 29 q 493 196 493 119 q 449 310 493 267 q 313 403 406 353 q 263 430 276 422 q 215 459 250 438 q 163 499 181 481 q 124 545 146 518 q 93 606 103 572 q 83 676 83 639 q 161 852 83 781 q 369 924 239 924 q 544 892 443 924 q 568 700 550 846 z "},"T":{"ha":857,"x_min":39,"x_max":822,"o":"m 822 692 l 782 688 q 738 811 761 781 q 692 846 721 838 q 588 854 664 854 l 489 854 l 489 171 q 511 66 489 88 q 632 39 533 44 l 632 0 l 233 0 l 233 39 q 349 66 328 44 q 371 171 371 88 l 371 854 l 285 854 q 169 845 201 854 q 124 811 138 836 q 79 688 106 786 l 39 688 q 56 938 53 849 l 83 938 q 113 909 97 915 q 160 903 128 903 l 708 903 q 748 910 735 903 q 779 938 761 917 l 808 938 q 822 692 808 853 z "},"U":{"ha":1022,"x_min":46,"x_max":994,"o":"m 994 903 l 994 864 q 905 842 932 860 q 872 782 878 824 q 865 557 865 719 l 865 443 q 760 76 865 188 q 511 -19 668 -19 q 289 47 375 -19 q 167 378 167 140 l 167 724 q 148 836 167 815 q 46 864 129 857 l 46 903 l 406 903 l 406 864 q 303 838 322 858 q 285 724 285 817 l 285 408 q 351 148 285 239 q 546 57 418 57 q 808 453 808 57 l 808 557 q 799 786 808 711 q 765 842 793 826 q 664 864 738 858 l 664 903 l 994 903 z "},"V":{"ha":976,"x_min":25,"x_max":954,"o":"m 954 903 l 954 864 q 855 832 882 856 q 789 715 828 808 q 500 -15 600 260 l 457 -15 q 169 740 297 419 q 115 837 140 817 q 25 863 89 857 l 25 903 l 365 903 l 365 864 q 279 842 293 856 q 283 782 265 828 q 514 176 379 519 l 517 176 q 736 758 681 585 q 741 836 757 818 q 642 864 725 854 l 642 903 l 954 903 z "},"W":{"ha":1349,"x_min":22,"x_max":1328,"o":"m 1328 903 l 1328 864 q 1232 833 1256 854 q 1178 725 1208 811 q 949 -15 1111 539 l 906 -15 q 663 678 882 54 l 660 678 q 546 331 622 560 q 433 -15 469 101 l 390 -15 q 163 728 357 97 q 113 833 138 811 q 22 864 89 856 l 22 903 l 360 903 l 360 864 q 272 838 286 854 q 276 769 258 822 q 446 197 385 394 l 449 197 q 563 549 486 318 q 674 889 639 779 l 714 889 q 957 196 754 771 l 960 196 q 1117 753 1072 553 q 1117 835 1133 815 q 1021 864 1101 854 l 1021 903 l 1328 903 z "},"X":{"ha":908,"x_min":10,"x_max":910,"o":"m 910 0 l 544 0 l 544 39 q 622 59 608 46 q 614 107 635 72 q 429 404 497 299 q 261 124 332 254 q 247 63 235 79 q 328 39 258 47 l 328 0 l 10 0 l 10 39 q 107 63 71 46 q 172 118 143 79 q 399 450 253 222 q 287 628 356 519 q 213 747 218 738 q 139 835 168 815 q 36 864 110 856 l 36 903 l 376 903 l 376 864 q 305 844 317 857 q 311 806 293 832 q 471 553 358 725 q 607 778 558 686 q 622 840 633 824 q 542 864 611 856 l 542 903 l 860 903 l 860 864 q 749 837 782 856 q 668 757 715 818 q 499 508 608 674 q 718 167 683 218 q 801 70 765 94 q 910 39 838 46 l 910 0 z "},"Y":{"ha":881,"x_min":21,"x_max":861,"o":"m 861 903 l 861 864 q 764 838 790 856 q 696 754 738 819 q 519 450 604 607 q 497 363 497 406 l 497 174 q 519 66 497 86 q 636 39 540 46 l 636 0 l 243 0 l 243 39 q 358 66 336 46 q 379 174 379 86 l 379 358 q 350 440 379 389 q 175 746 231 653 q 107 838 132 818 q 21 864 82 858 l 21 903 l 353 903 l 353 864 q 272 839 283 856 q 283 789 260 822 q 469 460 311 735 q 635 772 590 675 q 647 840 660 824 q 554 864 635 856 l 554 903 l 861 903 z "},"Z":{"ha":838,"x_min":40,"x_max":821,"o":"m 779 244 l 821 236 q 806 169 817 219 q 786 72 796 118 q 769 0 776 25 l 51 0 l 40 21 q 625 853 508 683 l 383 853 q 242 843 276 853 q 188 803 207 833 q 140 682 160 763 l 99 682 q 115 938 114 879 l 149 938 q 175 909 161 915 q 222 903 189 903 l 776 903 l 786 883 q 213 58 354 267 q 439 50 281 50 q 622 60 569 50 q 704 101 675 71 q 779 244 742 143 z "},"[":{"ha":479,"x_min":167,"x_max":403,"o":"m 403 -226 l 167 -226 l 167 976 l 403 976 l 403 938 q 272 911 293 929 q 251 811 251 893 l 251 -61 q 272 -160 251 -143 q 403 -187 292 -178 l 403 -226 z "},"\\":{"ha":463,"x_min":50,"x_max":415,"o":"m 415 -61 l 336 -61 l 50 924 l 128 924 l 415 -61 z "},"]":{"ha":479,"x_min":76,"x_max":314,"o":"m 314 -226 l 76 -226 l 76 -187 q 164 -178 138 -182 q 208 -159 190 -175 q 227 -124 225 -143 q 229 -58 229 -106 l 229 811 q 227 876 229 857 q 208 910 225 894 q 164 930 190 926 q 76 939 138 933 l 76 976 l 314 976 l 314 -226 z "},"^":{"ha":786,"x_min":97,"x_max":689,"o":"m 689 293 l 607 293 l 392 774 l 174 293 l 97 293 l 364 865 l 424 865 l 689 293 z "},"_":{"ha":694,"x_min":0,"x_max":694,"o":"m 694 -174 l 0 -174 l 0 -104 l 694 -104 l 694 -174 z "},"`":{"ha":556,"x_min":143,"x_max":343,"o":"m 343 700 l 306 682 q 143 904 217 807 l 147 915 q 199 928 157 921 q 256 933 240 935 q 299 818 268 901 q 343 700 329 735 z "},"a":{"ha":610,"x_min":54,"x_max":601,"o":"m 601 54 l 483 -17 q 418 10 447 -17 q 385 72 396 33 q 351 49 378 68 q 314 24 325 31 q 282 5 303 17 q 247 -12 261 -7 q 221 -17 233 -17 q 101 34 149 -17 q 54 153 54 85 q 167 290 54 251 q 382 381 343 350 l 382 406 q 350 521 382 479 q 265 563 318 563 q 203 535 226 563 q 161 444 179 511 q 121 411 153 411 q 81 430 101 411 q 60 471 60 449 q 104 526 60 493 q 313 624 214 604 q 426 586 381 624 q 489 417 489 535 l 489 158 q 538 75 489 75 q 588 90 563 75 l 601 54 m 382 117 l 382 333 q 314 301 365 325 q 257 275 263 278 q 193 233 214 256 q 172 174 172 210 q 203 95 172 124 q 271 67 235 67 q 382 117 332 69 z "},"b":{"ha":706,"x_min":10,"x_max":654,"o":"m 211 561 l 324 610 q 381 624 356 624 q 574 539 493 624 q 654 332 654 454 q 551 83 654 182 q 306 -17 449 -17 q 101 33 207 -17 l 101 806 q 88 887 101 871 q 10 908 75 903 l 10 940 q 211 989 119 954 l 211 561 m 211 519 l 211 161 q 219 114 211 133 q 260 63 228 88 q 343 36 293 38 q 481 106 429 36 q 532 296 532 175 q 471 478 532 411 q 319 546 410 546 q 211 519 254 546 z "},"c":{"ha":588,"x_min":53,"x_max":567,"o":"m 543 154 l 567 125 q 455 23 519 63 q 331 -17 390 -17 q 128 69 204 -17 q 53 274 53 156 q 192 546 53 438 q 400 624 293 624 l 401 624 q 525 588 481 624 q 547 544 547 568 q 531 504 547 524 q 501 485 514 485 q 475 500 492 485 q 336 557 414 557 q 214 498 264 557 q 164 335 164 439 q 231 142 164 206 q 374 78 299 78 q 543 154 461 78 z "},"d":{"ha":733,"x_min":53,"x_max":718,"o":"m 718 71 l 718 36 q 503 -17 578 11 l 503 74 l 418 24 q 310 -17 350 -17 q 134 64 215 -17 q 53 279 53 144 q 160 523 53 422 q 411 624 268 624 q 503 608 458 624 l 503 804 q 487 887 503 872 q 396 907 471 901 l 396 940 q 613 989 522 957 l 613 160 q 623 93 613 107 q 674 75 633 79 l 718 71 m 503 118 l 503 501 q 360 572 454 572 q 304 560 333 572 q 246 521 275 547 q 198 441 217 494 q 179 317 179 388 q 238 136 179 201 q 369 71 296 71 q 503 118 440 71 z "},"e":{"ha":590,"x_min":51,"x_max":556,"o":"m 526 147 l 549 118 q 428 14 490 44 q 322 -17 365 -17 q 125 69 199 -17 q 51 279 51 156 q 143 522 51 422 q 346 624 233 624 l 347 624 q 494 560 432 624 q 556 413 556 496 q 524 368 556 375 q 161 344 443 354 q 224 145 163 213 q 368 78 286 78 q 526 147 453 78 m 314 572 l 313 572 q 224 528 264 572 q 168 401 183 483 q 403 406 282 401 q 436 433 436 406 q 403 531 438 490 q 314 572 369 572 z "},"f":{"ha":411,"x_min":38,"x_max":543,"o":"m 75 607 l 140 607 l 140 638 q 156 751 140 703 q 263 914 186 850 q 415 989 336 979 q 525 942 488 986 q 532 893 543 919 q 506 860 525 875 q 468 864 486 844 q 356 915 411 915 q 282 874 307 915 q 250 663 249 824 l 250 607 l 414 607 q 416 578 421 597 q 400 553 411 558 l 250 553 l 250 153 q 268 60 250 76 q 369 35 286 43 l 369 0 l 42 0 l 42 36 q 125 59 110 43 q 140 143 140 75 l 140 553 l 43 553 l 38 567 l 75 607 z "},"g":{"ha":650,"x_min":40,"x_max":650,"o":"m 642 608 l 650 597 q 588 526 619 542 l 508 531 q 550 407 550 482 q 477 243 550 301 q 307 185 404 185 q 236 192 292 185 q 194 135 194 165 q 216 96 194 111 q 282 81 238 81 q 356 81 307 81 q 428 82 406 82 q 519 71 478 82 q 594 21 560 60 q 628 -82 628 -18 q 523 -272 628 -187 q 281 -357 418 -357 q 107 -305 172 -357 q 40 -187 42 -253 q 74 -110 40 -143 q 189 -12 117 -67 q 86 64 121 8 q 71 122 68 94 q 193 207 149 151 q 106 278 142 229 q 71 393 71 326 q 149 563 71 503 q 318 624 226 624 l 319 624 q 453 589 390 624 q 642 608 549 593 m 306 582 l 304 582 q 224 538 257 582 q 190 415 190 493 q 226 281 190 333 q 321 229 263 229 q 403 274 369 231 q 436 394 436 317 q 400 530 436 478 q 306 582 364 582 m 336 -15 l 335 -15 q 214 -46 249 -15 q 150 -154 150 -97 q 203 -248 150 -210 q 333 -286 256 -286 q 481 -243 429 -286 q 533 -132 533 -200 q 469 -33 533 -60 q 336 -15 425 -15 z "},"h":{"ha":742,"x_min":25,"x_max":713,"o":"m 713 0 l 419 0 l 419 36 q 496 60 481 43 q 511 143 511 76 l 511 374 q 375 544 511 544 q 231 474 293 544 l 231 143 q 244 59 231 76 q 319 36 258 42 l 319 0 l 25 0 l 26 36 q 106 58 90 42 q 121 143 121 75 l 121 806 q 108 888 121 872 q 26 908 94 903 l 26 940 q 231 989 114 953 l 231 522 q 429 624 329 624 q 569 566 518 625 q 621 386 621 507 l 621 143 q 635 58 621 75 q 713 36 650 42 l 713 0 z "},"i":{"ha":372,"x_min":44,"x_max":350,"o":"m 188 744 q 139 766 160 744 q 118 815 118 788 q 139 867 118 846 q 189 888 160 888 q 238 867 218 888 q 258 815 258 846 q 238 765 258 786 q 188 744 217 744 m 350 0 l 44 0 l 44 36 q 126 60 111 43 q 142 147 142 76 l 142 435 q 129 514 142 499 q 54 539 117 529 l 54 572 q 251 626 160 589 l 251 147 q 267 60 251 76 q 350 36 283 43 l 350 0 z "},"j":{"ha":356,"x_min":-35,"x_max":257,"o":"m 188 744 q 139 766 160 744 q 118 815 118 788 q 139 867 118 846 q 189 888 160 888 q 237 867 217 888 q 257 815 257 846 q 237 765 257 786 q 188 744 217 744 m 47 540 l 47 572 q 250 626 163 589 l 250 156 q 218 -69 250 19 q 136 -236 188 -161 q 50 -342 85 -311 q 15 -357 33 -357 q -17 -338 0 -357 q -35 -296 -35 -319 q -6 -264 -35 -269 q 94 -211 69 -244 q 129 -111 119 -181 q 142 157 142 -22 l 142 429 q 127 515 142 499 q 47 540 113 531 z "},"k":{"ha":689,"x_min":19,"x_max":713,"o":"m 713 0 l 522 -3 q 294 272 500 22 q 251 303 269 303 q 229 299 244 303 l 229 144 q 246 60 229 76 q 331 36 263 43 l 331 0 l 19 0 l 19 36 q 105 60 89 42 q 121 144 121 78 l 121 801 q 107 885 121 869 q 29 907 93 901 l 29 940 q 229 989 108 949 l 229 335 q 317 383 281 344 q 415 506 360 426 q 430 549 438 538 q 374 567 422 561 l 374 603 l 657 615 l 657 581 q 552 553 586 568 q 478 499 518 538 q 358 367 435 456 q 457 244 378 336 q 574 113 536 151 q 642 55 611 72 q 713 36 674 38 l 713 0 z "},"l":{"ha":351,"x_min":21,"x_max":331,"o":"m 331 0 l 21 0 l 21 36 q 104 60 88 43 q 121 144 121 76 l 121 801 q 106 886 121 871 q 25 907 92 901 l 25 940 q 231 989 126 951 l 231 144 q 247 60 231 76 q 331 36 263 43 l 331 0 z "},"m":{"ha":1138,"x_min":38,"x_max":1106,"o":"m 1106 0 l 810 0 l 810 36 q 890 60 874 43 q 907 149 907 78 l 907 381 q 785 542 907 542 q 629 469 715 542 q 633 411 633 444 l 633 140 q 649 60 633 76 q 722 36 664 43 l 722 0 l 425 0 l 425 36 q 508 60 492 43 q 524 143 524 76 l 524 382 q 403 542 524 542 q 251 469 338 542 l 251 143 q 265 60 251 76 q 331 36 278 43 l 331 0 l 38 0 l 38 36 q 124 60 107 43 q 142 143 142 76 l 142 431 q 129 513 142 497 q 57 539 117 529 l 57 571 q 250 628 169 592 l 250 515 q 294 547 260 522 q 351 586 328 571 q 465 624 413 624 q 557 594 515 624 q 619 510 599 564 q 735 588 674 551 q 839 624 789 624 q 968 568 921 624 q 1015 411 1015 513 l 1015 143 q 1030 59 1015 75 q 1106 36 1044 43 l 1106 0 z "},"n":{"ha":760,"x_min":40,"x_max":726,"o":"m 726 0 l 438 0 l 438 36 q 514 61 499 43 q 529 151 529 79 l 529 383 q 403 542 529 542 q 251 471 333 542 l 251 144 q 265 59 251 75 q 342 36 279 43 l 342 0 l 40 0 l 40 36 q 126 60 111 43 q 142 144 142 76 l 142 432 q 129 513 142 497 q 58 539 117 528 l 58 571 q 251 628 174 593 l 251 517 q 344 582 281 538 q 460 624 410 624 q 591 568 543 624 q 639 413 639 513 l 639 144 q 652 59 639 75 q 726 36 665 43 l 726 0 z "},"o":{"ha":708,"x_min":51,"x_max":657,"o":"m 356 624 l 357 624 q 571 534 485 624 q 657 314 657 444 q 564 71 657 158 q 356 -17 471 -17 q 135 76 219 -17 q 51 290 51 168 q 81 438 51 372 q 156 543 110 504 q 254 603 203 582 q 356 624 306 624 m 342 578 l 340 578 q 227 513 274 578 q 181 335 181 447 q 233 115 181 201 q 371 29 286 29 q 485 90 442 29 q 528 283 528 150 q 478 494 528 411 q 342 578 429 578 z "},"p":{"ha":728,"x_min":24,"x_max":676,"o":"m 235 528 l 363 603 q 431 624 400 624 q 609 547 542 624 q 676 361 676 469 q 576 110 676 211 q 331 -17 475 10 q 235 8 278 -15 l 235 -174 q 253 -270 235 -251 q 353 -296 271 -289 l 353 -333 l 24 -333 l 24 -296 q 108 -272 92 -289 q 125 -187 125 -256 l 125 440 q 112 522 125 507 q 33 544 99 536 l 33 578 q 235 638 125 593 l 235 528 m 235 482 l 235 106 q 365 51 286 51 q 506 122 453 51 q 560 308 560 192 q 506 478 560 415 q 374 540 453 540 q 235 482 314 540 z "},"q":{"ha":710,"x_min":54,"x_max":715,"o":"m 715 -333 l 382 -333 l 382 -296 q 482 -272 464 -289 q 500 -181 500 -254 l 500 42 l 353 -17 q 133 73 211 -17 q 54 275 54 163 q 167 523 54 421 q 425 624 279 625 q 522 606 492 618 q 560 599 544 599 q 607 614 574 599 l 613 610 q 608 461 608 522 l 608 -183 q 625 -272 608 -256 q 715 -296 642 -289 l 715 -333 m 500 83 l 500 510 q 438 552 476 536 q 364 568 399 568 q 233 503 288 568 q 178 321 178 438 q 245 132 178 203 q 397 61 313 61 q 500 83 450 61 z "},"r":{"ha":515,"x_min":46,"x_max":503,"o":"m 251 476 l 254 476 q 422 624 343 624 q 479 602 456 624 q 503 554 503 581 q 458 486 503 507 q 421 489 433 476 q 363 518 393 518 q 304 487 335 518 q 251 399 274 456 l 251 144 q 269 58 251 75 q 365 36 286 42 l 365 0 l 46 0 l 46 36 q 126 60 111 43 q 142 144 142 76 l 142 432 q 128 516 142 500 q 56 540 115 532 l 56 571 q 251 628 160 588 l 251 476 z "},"s":{"ha":510,"x_min":57,"x_max":468,"o":"m 444 451 l 408 443 q 265 581 364 581 q 201 553 226 581 q 175 485 175 525 q 206 415 175 443 q 293 364 238 388 q 424 285 379 328 q 468 175 468 242 q 399 35 468 86 q 239 -17 329 -17 q 145 -2 190 -17 q 79 31 100 13 q 65 101 72 44 q 57 194 57 157 l 93 201 q 158 78 113 128 q 264 29 204 29 q 333 56 304 29 q 363 126 363 83 q 335 198 363 169 q 253 253 308 226 q 189 285 213 271 q 136 322 165 299 q 93 376 107 346 q 79 444 79 407 q 138 572 79 519 q 290 624 197 624 q 414 600 349 625 q 444 451 433 544 z "},"t":{"ha":424,"x_min":24,"x_max":414,"o":"m 414 50 l 319 1 q 261 -17 285 -17 q 125 149 125 -17 l 125 553 l 29 553 l 24 567 l 61 607 l 125 607 l 125 708 l 215 800 l 235 797 l 235 607 l 392 607 q 399 578 401 597 q 383 553 396 560 l 235 553 l 235 196 q 315 63 235 63 q 401 86 354 63 l 414 50 z "},"u":{"ha":738,"x_min":40,"x_max":719,"o":"m 719 68 l 719 33 q 613 11 675 28 q 561 -4 594 6 q 515 -17 528 -14 l 507 -8 l 507 90 q 404 18 432 35 q 297 -17 344 -17 q 173 34 221 -17 q 125 190 125 85 l 125 463 q 116 530 125 515 q 79 551 107 544 l 40 560 l 40 592 q 140 601 63 593 q 239 617 215 613 q 235 414 235 574 l 235 226 q 357 71 235 71 q 507 138 439 71 l 507 461 q 496 531 507 515 q 449 551 485 546 l 399 560 l 399 592 q 524 603 460 594 q 617 617 575 608 l 617 153 q 628 88 617 101 q 681 71 640 74 l 719 68 z "},"v":{"ha":643,"x_min":-3,"x_max":663,"o":"m 663 607 l 663 572 q 588 547 608 565 q 540 467 568 529 q 344 -15 429 214 l 307 -15 q 115 471 242 160 q 72 548 92 532 q -3 572 53 564 l -3 607 l 282 607 l 282 572 q 217 551 226 565 q 226 492 208 536 q 358 149 300 293 q 482 481 415 283 q 486 548 499 531 q 415 572 474 565 l 415 607 l 663 607 z "},"w":{"ha":951,"x_min":13,"x_max":967,"o":"m 967 607 l 967 572 q 897 546 915 564 q 856 468 878 528 q 689 -15 826 392 l 650 -15 q 553 233 617 74 q 481 417 490 392 q 317 -15 319 -7 l 276 -15 q 117 481 201 232 q 81 550 99 535 q 13 572 63 565 l 13 607 l 300 607 l 300 572 q 226 548 238 561 q 231 488 215 535 q 332 164 272 346 l 335 164 q 496 600 369 254 l 532 600 q 699 160 592 432 l 701 160 q 796 479 772 381 q 797 548 810 533 q 715 572 783 563 l 715 607 l 967 607 z "},"x":{"ha":656,"x_min":6,"x_max":660,"o":"m 660 0 l 361 0 l 361 36 q 416 53 407 42 q 408 92 425 64 l 306 254 q 217 107 251 174 q 204 58 196 72 q 265 36 213 44 l 265 0 l 6 0 l 6 36 q 94 60 69 44 q 163 128 119 75 q 279 294 210 188 l 158 483 q 103 550 128 535 q 22 572 79 565 l 22 607 l 300 607 l 300 572 q 249 554 256 567 q 261 513 242 542 l 343 385 q 424 514 392 454 q 433 557 442 547 q 379 572 425 567 l 379 607 l 632 607 l 632 572 q 542 553 567 565 q 479 497 517 540 q 371 344 444 454 l 507 139 q 572 62 546 79 q 660 36 597 44 l 660 0 z "},"y":{"ha":638,"x_min":1,"x_max":664,"o":"m 664 607 l 664 572 q 588 547 608 564 q 540 471 568 531 q 504 388 525 439 q 444 240 483 336 q 367 53 404 143 q 224 -324 247 -232 q 179 -357 213 -357 q 125 -336 150 -357 q 100 -290 100 -315 q 136 -240 100 -264 q 239 -117 196 -203 q 282 -21 271 -58 q 281 42 292 10 q 121 467 183 319 q 78 545 99 526 q 1 572 57 564 l 1 607 l 283 607 l 283 572 q 226 549 236 564 q 231 496 217 535 l 357 147 q 485 493 422 307 q 484 549 497 533 q 413 572 471 564 l 413 607 l 664 607 z "},"z":{"ha":583,"x_min":43,"x_max":574,"o":"m 538 192 l 574 175 q 540 85 563 146 q 510 0 518 24 l 51 0 l 43 21 q 389 561 201 254 l 265 561 q 166 542 193 561 q 108 461 139 524 l 89 424 l 54 436 q 101 638 82 531 l 131 638 q 207 607 142 607 l 526 607 l 535 588 q 196 46 369 329 l 333 46 q 442 69 408 46 q 519 158 476 92 l 538 192 z "},"{":{"ha":482,"x_min":90,"x_max":407,"o":"m 407 -196 l 407 -235 q 206 -56 206 -235 q 210 94 206 -4 q 215 233 215 192 q 213 273 215 257 q 199 308 210 289 q 160 340 188 328 q 90 354 133 351 l 90 396 q 160 410 133 399 q 199 442 188 422 q 213 477 210 461 q 215 517 215 493 q 210 660 215 563 q 206 801 206 757 q 407 985 206 985 l 407 946 q 313 903 336 936 q 290 815 290 871 q 299 678 290 771 q 308 539 308 585 q 193 378 308 404 l 193 372 q 280 316 251 360 q 308 211 308 272 q 299 72 308 163 q 290 -61 290 -18 q 313 -151 290 -118 q 407 -196 336 -185 z "},"|":{"ha":365,"x_min":138,"x_max":226,"o":"m 226 -347 l 138 -347 l 138 1042 l 226 1042 l 226 -347 z "},"}":{"ha":482,"x_min":75,"x_max":393,"o":"m 393 394 l 393 354 q 322 340 350 351 q 283 307 294 328 q 269 270 272 286 q 267 229 267 254 q 272 92 267 189 q 278 -57 278 -4 q 75 -235 278 -235 l 75 -196 q 169 -152 144 -185 q 193 -65 193 -119 q 183 72 193 -22 q 174 210 174 165 q 290 372 174 343 l 290 378 q 174 539 174 406 q 183 678 174 585 q 193 817 193 772 q 169 903 193 871 q 75 946 144 936 l 75 985 q 144 979 114 985 q 208 956 175 974 q 259 901 240 939 q 278 806 278 863 q 272 657 278 753 q 267 522 267 561 q 269 481 267 497 q 283 443 272 464 q 322 410 294 422 q 393 394 350 397 z "},"~":{"ha":806,"x_min":76,"x_max":729,"o":"m 679 428 l 729 399 q 553 246 683 246 q 376 308 482 246 q 251 354 303 354 q 125 235 169 354 l 76 271 q 257 424 136 424 q 419 369 322 424 q 561 315 511 315 q 679 428 639 315 z "}," ":{"ha":315,"x_min":0,"x_max":0,"o":""},"¡":{"ha":383,"x_min":111,"x_max":269,"o":"m 190 622 l 192 622 q 247 599 225 622 q 269 540 269 576 q 247 483 269 506 q 190 460 225 460 q 133 483 156 460 q 111 540 111 506 q 133 599 111 576 q 190 622 156 622 m 192 -317 l 190 -317 q 117 -275 117 -317 q 126 -165 117 -262 q 168 332 143 -12 q 193 340 174 340 q 217 332 213 340 q 228 169 221 271 q 241 -14 235 67 q 256 -165 247 -94 q 267 -275 267 -254 q 192 -317 267 -317 z "},"¢":{"ha":667,"x_min":71,"x_max":603,"o":"m 579 304 l 603 272 q 504 181 561 218 q 396 136 447 144 l 396 0 l 347 0 l 347 133 q 149 219 226 136 q 71 414 71 303 q 200 669 71 569 q 347 738 267 718 l 347 854 l 396 854 l 396 743 q 419 744 406 744 q 561 708 508 744 q 581 674 581 694 q 564 633 581 653 q 531 614 547 614 q 510 626 522 614 q 396 685 460 676 l 396 222 q 579 304 493 221 m 347 228 l 347 686 q 231 630 283 685 q 179 471 179 575 q 230 301 179 361 q 347 228 281 242 z "},"£":{"ha":667,"x_min":26,"x_max":633,"o":"m 521 410 l 285 410 l 285 378 q 165 138 285 250 q 310 100 224 138 q 476 47 424 47 q 535 65 514 47 q 557 111 557 82 q 547 156 557 129 q 550 186 539 169 q 600 222 574 222 q 624 204 614 222 q 633 165 633 186 q 601 77 633 121 q 525 6 568 33 q 400 -37 463 -37 q 214 36 342 -37 q 132 69 156 69 q 75 10 99 69 q 58 -7 69 -7 q 34 11 42 -7 q 42 60 26 29 q 107 140 47 71 q 165 328 165 204 q 161 410 165 347 l 39 410 l 39 463 l 154 463 q 147 576 147 549 q 263 819 147 726 q 336 864 294 846 q 407 882 378 882 q 489 863 450 882 q 542 825 528 844 q 546 782 556 803 q 519 750 538 764 q 482 753 501 736 q 351 811 413 811 q 253 678 253 811 q 279 463 253 621 l 521 463 l 521 410 z "},"¤":{"ha":667,"x_min":39,"x_max":622,"o":"m 622 188 l 565 132 l 476 236 q 331 182 411 182 q 182 235 244 182 l 94 132 l 39 188 l 135 279 q 75 451 75 351 q 136 621 75 551 l 39 715 l 94 769 l 183 665 q 331 719 247 719 l 332 719 q 478 667 413 719 l 565 769 l 622 715 l 526 621 q 586 451 586 553 q 525 281 586 353 l 622 188 m 332 651 l 331 651 q 208 596 257 651 q 160 451 160 540 q 209 306 160 363 q 332 250 258 250 q 454 306 406 250 q 503 451 503 363 q 454 596 503 540 q 332 651 406 651 z "},"¥":{"ha":667,"x_min":10,"x_max":647,"o":"m 647 865 l 647 829 q 573 805 594 822 q 519 731 551 788 q 382 460 472 649 l 561 460 l 561 410 l 372 410 l 372 367 l 372 317 l 561 317 l 561 265 l 372 265 l 372 149 q 392 60 372 78 q 497 38 411 43 l 497 0 l 140 0 l 140 38 q 245 60 226 43 q 264 149 264 78 l 264 265 l 81 265 l 81 317 l 264 317 l 264 360 q 263 410 264 393 l 81 410 l 81 460 l 249 460 q 128 732 201 575 q 79 807 99 792 q 10 829 60 822 l 10 865 l 294 865 l 294 829 l 258 822 q 222 808 229 817 q 224 778 215 800 q 346 489 268 667 q 468 760 433 668 q 475 802 481 789 q 438 822 469 815 l 399 829 l 399 865 l 647 865 z "},"¦":{"ha":365,"x_min":138,"x_max":226,"o":"m 226 451 l 138 451 l 138 938 l 226 938 l 226 451 m 226 -243 l 138 -243 l 138 243 l 226 243 l 226 -243 z "},"§":{"ha":663,"x_min":75,"x_max":592,"o":"m 592 281 q 456 -17 590 133 q 263 -144 363 -114 q 167 -114 207 -144 q 140 -72 140 -92 q 168 -28 140 -49 q 199 -22 183 -18 q 307 -62 253 -62 q 374 -40 344 -62 q 404 22 403 -18 q 311 167 406 78 q 175 303 242 233 q 75 514 75 397 q 185 753 76 635 q 286 844 240 813 q 394 890 332 875 q 486 858 451 890 q 503 826 503 843 q 478 781 503 799 q 450 779 463 769 q 346 817 408 817 q 280 793 303 817 q 257 743 257 769 q 308 649 257 693 q 388 580 333 626 q 461 515 442 533 q 592 281 592 406 m 144 574 l 144 571 q 268 349 144 464 q 438 172 408 221 q 464 64 468 122 l 467 63 q 519 221 519 140 q 408 426 519 328 q 254 568 271 551 q 200 706 192 631 l 194 706 q 144 574 146 642 z "},"¨":{"ha":556,"x_min":94,"x_max":461,"o":"m 161 747 q 115 767 135 747 q 94 814 94 788 q 115 863 94 843 q 163 883 135 883 q 208 863 189 883 q 226 814 226 843 q 208 767 226 788 q 161 747 189 747 m 394 747 q 349 767 368 747 q 329 814 329 788 q 349 863 329 843 q 396 883 368 883 q 442 863 424 883 q 461 814 461 843 q 442 767 461 788 q 394 747 422 747 z "},"©":{"ha":975,"x_min":71,"x_max":903,"o":"m 488 869 l 489 869 q 784 747 665 869 q 903 447 903 625 q 784 149 903 271 q 488 26 665 26 q 190 149 310 26 q 71 447 71 271 q 190 747 71 625 q 488 869 310 869 m 488 821 l 486 821 q 235 715 335 821 q 136 449 136 608 q 236 182 136 289 q 488 75 336 75 q 740 182 640 75 q 839 449 839 289 q 740 715 839 608 q 488 821 640 821 m 668 365 l 699 358 q 663 233 674 258 q 518 207 588 207 q 323 278 392 207 q 254 443 254 349 q 333 622 254 556 q 524 689 411 689 q 668 665 607 689 q 683 539 678 604 l 653 533 q 514 650 619 650 q 398 595 440 650 q 356 453 356 540 q 402 305 356 363 q 518 247 449 247 q 668 365 619 247 z "},"ª":{"ha":424,"x_min":46,"x_max":410,"o":"m 410 419 l 322 374 q 260 428 275 378 q 153 374 176 374 q 76 406 107 374 q 46 479 46 439 q 113 564 46 539 q 258 625 240 611 l 258 639 q 240 694 258 672 q 189 715 221 715 q 124 642 144 715 q 94 621 117 621 q 65 633 79 621 q 50 660 50 644 q 79 699 50 681 q 214 757 142 746 q 338 635 338 757 l 338 485 q 367 438 338 438 q 400 446 381 438 l 410 419 m 258 461 l 258 588 q 172 550 242 579 q 132 494 132 528 q 150 450 132 467 q 193 433 168 433 q 258 461 228 433 z "},"«":{"ha":617,"x_min":68,"x_max":550,"o":"m 319 75 l 289 53 q 68 307 142 240 q 289 563 160 399 l 319 542 l 190 307 l 319 75 m 550 75 l 518 53 q 299 307 372 238 q 518 563 394 407 l 550 542 l 421 307 l 550 75 z "},"¬":{"ha":806,"x_min":72,"x_max":735,"o":"m 735 135 l 654 135 l 654 443 l 72 443 l 72 511 l 735 511 l 735 135 z "},"­":{"ha":494,"x_min":79,"x_max":417,"o":"m 417 351 l 396 275 l 79 275 l 99 351 l 417 351 z "},"®":{"ha":446,"x_min":44,"x_max":404,"o":"m 224 915 l 225 915 q 352 863 300 915 q 404 736 404 810 q 352 610 404 664 q 224 557 300 557 q 96 608 147 557 q 44 736 44 660 q 97 863 44 810 q 224 915 149 915 m 224 883 l 222 883 q 124 841 163 883 q 85 736 85 799 q 124 632 85 674 q 224 590 164 590 q 324 632 283 590 q 364 736 364 674 q 324 841 364 799 q 224 883 283 883 m 326 657 l 321 640 q 254 669 276 640 q 244 685 249 676 q 235 703 239 694 q 229 714 231 711 q 210 724 222 724 l 204 724 l 204 690 q 208 669 204 672 q 231 664 213 665 l 231 642 l 138 642 l 138 664 q 160 669 156 665 q 164 690 164 672 l 164 785 q 160 806 164 803 q 139 811 157 810 l 139 832 l 233 832 q 300 783 300 832 q 263 736 300 750 q 308 671 281 703 q 326 657 318 661 m 204 744 l 217 744 q 240 750 233 744 q 256 779 256 758 q 222 811 256 811 q 204 794 204 811 l 204 744 z "},"¯":{"ha":556,"x_min":126,"x_max":431,"o":"m 431 761 l 126 761 l 126 838 l 431 838 l 431 761 z "},"°":{"ha":476,"x_min":44,"x_max":433,"o":"m 239 922 l 240 922 q 376 868 318 922 q 433 731 433 814 q 376 592 433 644 q 239 540 318 540 q 101 592 158 540 q 44 731 44 644 q 102 869 44 815 q 239 922 160 922 m 239 861 l 238 861 q 158 826 189 861 q 128 732 128 790 q 159 638 128 674 q 239 601 190 601 q 319 638 289 601 q 350 731 350 674 q 319 825 350 789 q 239 861 289 861 z "},"±":{"ha":806,"x_min":72,"x_max":735,"o":"m 735 432 l 444 432 l 444 149 l 364 149 l 364 432 l 72 432 l 72 500 l 364 500 l 364 765 l 444 765 l 444 500 l 735 500 l 735 432 m 735 0 l 72 0 l 72 69 l 735 69 l 735 0 z "},"²":{"ha":474,"x_min":56,"x_max":425,"o":"m 394 692 l 425 681 q 393 558 408 628 l 56 558 l 56 589 q 69 600 60 593 q 141 660 114 636 q 210 725 168 683 q 272 807 251 767 q 293 885 293 847 q 267 960 293 935 q 200 986 240 986 q 82 910 139 986 l 58 935 l 103 994 q 238 1057 153 1057 q 345 1017 300 1057 q 390 908 390 976 q 358 815 390 860 q 243 697 325 769 l 171 633 l 171 631 l 297 631 q 356 641 339 631 q 394 692 374 651 z "},"³":{"ha":474,"x_min":57,"x_max":407,"o":"m 286 853 l 286 850 q 374 810 342 840 q 407 735 407 779 q 359 631 407 676 q 260 566 311 585 q 174 547 208 547 q 79 576 118 547 q 64 617 57 594 q 89 649 69 635 q 117 647 103 660 q 222 601 181 601 q 288 627 263 601 q 313 706 313 653 q 281 775 313 751 q 206 799 250 799 q 149 789 178 799 l 139 824 q 242 871 207 846 q 278 932 278 896 q 258 978 278 960 q 204 996 239 996 q 100 926 147 996 l 78 949 l 118 1006 q 238 1056 165 1056 l 239 1056 q 335 1025 299 1056 q 371 950 371 994 q 344 893 371 913 q 286 853 322 872 z "},"´":{"ha":556,"x_min":232,"x_max":442,"o":"m 268 685 l 232 703 q 325 924 256 756 q 381 933 336 928 q 438 936 426 939 l 442 924 l 268 685 z "},"µ":{"ha":711,"x_min":94,"x_max":706,"o":"m 692 75 l 706 39 q 654 0 688 17 q 588 -17 621 -17 q 515 13 544 -17 q 479 92 486 43 l 476 92 q 292 -17 383 -17 q 178 42 218 -17 l 172 42 l 172 19 q 189 -177 171 -58 q 224 -340 207 -296 l 206 -357 q 151 -337 183 -356 q 101 -303 118 -319 q 99 57 99 -294 l 99 465 q 94 599 99 550 l 207 625 q 210 478 210 592 l 210 240 q 248 110 210 150 q 338 69 286 69 q 415 92 378 69 q 475 143 453 115 l 475 600 l 586 625 l 586 158 q 643 61 586 61 q 692 75 667 61 z "},"¶":{"ha":690,"x_min":69,"x_max":647,"o":"m 647 740 l 606 703 l 483 689 l 483 31 q 390 -226 483 -129 q 323 -276 363 -256 q 269 -296 283 -296 q 178 -264 210 -296 q 164 -222 156 -243 q 192 -185 169 -204 q 218 -185 204 -175 q 306 -215 264 -215 q 413 3 413 -215 l 413 211 l 319 171 q 296 167 311 167 q 148 247 226 167 q 69 447 69 328 q 161 669 69 582 q 261 733 204 710 q 367 757 318 757 l 642 757 l 647 740 z "},"·":{"ha":314,"x_min":79,"x_max":236,"o":"m 157 242 l 156 242 q 101 264 122 242 q 79 324 79 286 q 101 380 79 357 q 157 403 124 403 q 214 380 192 403 q 236 324 236 357 q 214 264 236 286 q 157 242 192 242 z "},"¸":{"ha":556,"x_min":197,"x_max":372,"o":"m 342 0 l 311 -37 q 299 -67 297 -56 q 318 -94 301 -78 q 372 -190 372 -149 q 330 -271 372 -233 q 214 -331 288 -308 l 197 -294 q 281 -211 281 -258 q 249 -157 281 -189 q 218 -115 222 -132 q 233 -71 214 -97 l 286 0 l 342 0 z "},"¹":{"ha":474,"x_min":106,"x_max":379,"o":"m 379 558 l 107 558 l 107 590 q 182 608 165 594 q 199 672 199 622 l 199 919 q 190 969 199 958 q 146 981 182 979 l 106 983 l 106 1015 q 289 1056 188 1025 l 289 672 q 305 610 289 624 q 379 590 321 597 l 379 558 z "},"º":{"ha":464,"x_min":36,"x_max":425,"o":"m 232 757 l 233 757 q 370 703 315 757 q 425 571 425 649 q 365 427 424 481 q 233 374 307 374 q 90 430 144 374 q 38 560 36 486 q 99 705 38 653 q 232 757 161 757 m 222 719 l 221 719 q 160 683 186 719 q 133 582 135 647 q 164 460 133 507 q 239 413 194 413 q 303 446 279 413 q 329 550 328 479 q 300 672 329 625 q 222 719 271 719 z "},"»":{"ha":618,"x_min":68,"x_max":549,"o":"m 68 542 l 100 563 q 319 308 225 406 q 100 54 217 203 l 68 74 l 199 308 l 68 542 m 299 542 l 329 563 q 549 308 465 392 q 329 54 458 218 l 299 74 l 428 308 l 299 542 z "},"¼":{"ha":1058,"x_min":110,"x_max":954,"o":"m 383 385 l 111 385 l 111 417 q 186 435 169 421 q 203 499 203 449 l 203 746 q 194 795 203 785 q 150 807 186 806 l 110 810 l 110 842 q 293 882 192 851 l 293 499 q 309 437 293 450 q 383 417 325 424 l 383 385 m 836 878 l 274 -37 l 231 -4 l 792 910 l 836 878 m 954 136 l 872 136 l 872 97 q 886 46 872 57 q 949 32 900 35 l 949 0 l 699 0 l 699 32 q 772 47 757 36 q 788 97 788 57 l 788 136 l 563 136 l 563 169 q 819 499 704 360 l 872 499 l 872 189 l 954 189 l 954 136 m 788 189 l 788 394 l 785 394 q 633 189 715 308 l 788 189 z "},"½":{"ha":1058,"x_min":100,"x_max":978,"o":"m 374 385 l 101 385 l 101 417 q 176 435 160 421 q 193 499 193 449 l 193 746 q 185 795 193 785 q 140 807 176 806 l 100 810 l 100 842 q 283 882 182 851 l 283 499 q 299 437 283 450 q 374 417 315 424 l 374 385 m 817 878 l 254 -37 l 211 -4 l 772 910 l 817 878 m 947 133 l 978 122 q 946 0 961 69 l 608 0 l 608 31 q 622 42 613 35 q 694 101 667 78 q 763 167 721 125 q 825 249 804 208 q 846 326 846 289 q 819 402 846 376 q 753 428 793 428 q 635 351 692 428 l 611 376 l 656 436 q 790 499 706 499 q 898 458 853 499 q 943 350 943 418 q 910 256 943 301 q 796 139 878 211 l 724 75 l 724 72 l 850 72 q 909 83 892 72 q 947 133 926 93 z "},"¾":{"ha":1058,"x_min":94,"x_max":946,"o":"m 842 878 l 279 -37 l 236 -4 l 797 910 l 842 878 m 946 136 l 864 136 l 864 97 q 878 46 864 57 q 940 32 892 35 l 940 0 l 690 0 l 690 32 q 764 47 749 36 q 779 97 779 57 l 779 136 l 554 136 l 554 169 q 811 499 696 360 l 864 499 l 864 189 l 946 189 l 946 136 m 779 189 l 779 394 l 776 394 q 625 189 707 308 l 779 189 m 324 679 l 324 676 q 412 636 379 667 q 444 561 444 606 q 397 457 444 503 q 297 392 349 411 q 211 374 246 374 q 117 403 156 374 q 101 443 94 421 q 126 475 107 461 q 154 474 140 486 q 260 428 218 428 q 325 453 300 428 q 350 532 350 479 q 319 601 350 578 q 243 625 288 625 q 186 615 215 625 l 176 650 q 280 697 244 672 q 315 758 315 722 q 296 804 315 786 q 242 822 276 822 q 138 753 185 822 l 115 775 l 156 832 q 275 882 203 882 l 276 882 q 372 851 336 882 q 408 776 408 821 q 382 719 408 739 q 324 679 360 699 z "},"¿":{"ha":526,"x_min":64,"x_max":444,"o":"m 265 622 l 267 622 q 319 600 297 622 q 340 543 340 578 q 319 487 340 510 q 265 464 297 464 q 210 487 232 464 q 189 543 189 510 q 210 600 189 578 q 265 622 232 622 m 221 307 l 246 339 q 348 268 296 321 q 400 158 400 215 q 374 87 400 122 q 283 3 347 51 q 263 -12 281 0 q 240 -30 246 -25 q 218 -47 233 -35 q 196 -67 203 -60 q 178 -87 189 -75 q 161 -109 167 -100 q 151 -130 156 -118 q 147 -153 147 -142 q 229 -226 147 -226 q 303 -208 268 -226 q 360 -171 339 -189 q 388 -153 382 -153 q 424 -172 404 -153 q 444 -214 444 -190 q 415 -264 444 -236 q 348 -303 386 -289 q 288 -317 310 -317 l 286 -317 q 132 -249 200 -317 q 64 -96 64 -182 q 131 28 64 -28 q 172 59 136 32 q 226 103 207 86 q 266 147 246 119 q 286 197 286 174 q 271 253 286 229 q 221 307 256 276 z "},"À":{"ha":960,"x_min":28,"x_max":935,"o":"m 935 0 l 594 0 l 594 39 q 675 61 660 47 q 676 115 690 75 q 600 329 667 143 l 304 329 q 243 150 261 207 q 235 65 221 85 q 329 39 250 46 l 329 0 l 28 0 l 28 39 q 122 71 96 49 q 183 182 149 93 l 471 911 l 514 924 q 626 612 522 900 q 782 179 729 324 q 840 68 815 90 q 935 39 865 46 l 935 0 m 581 389 l 458 743 l 456 743 q 325 389 397 586 l 581 389 m 565 985 l 547 950 l 288 1039 l 286 1049 q 311 1094 289 1064 q 346 1128 333 1124 q 565 985 475 1044 z "},"Á":{"ha":960,"x_min":28,"x_max":935,"o":"m 935 0 l 594 0 l 594 39 q 675 61 660 47 q 676 115 690 75 q 600 329 667 143 l 304 329 q 243 150 261 207 q 235 65 221 85 q 329 39 250 46 l 329 0 l 28 0 l 28 39 q 122 71 96 49 q 183 182 149 93 l 471 911 l 514 924 q 626 612 522 900 q 782 179 729 324 q 840 68 815 90 q 935 39 865 46 l 935 0 m 581 389 l 458 743 l 456 743 q 325 389 397 586 l 581 389 m 700 1050 l 697 1039 l 439 950 l 422 985 q 640 1126 474 1018 q 675 1095 653 1125 q 700 1050 697 1065 z "},"Â":{"ha":960,"x_min":28,"x_max":935,"o":"m 935 0 l 594 0 l 594 39 q 675 61 660 47 q 676 115 690 75 q 600 329 667 143 l 304 329 q 243 150 261 207 q 235 65 221 85 q 329 39 250 46 l 329 0 l 28 0 l 28 39 q 122 71 96 49 q 183 182 149 93 l 471 911 l 514 924 q 626 612 522 900 q 782 179 729 324 q 840 68 815 90 q 935 39 865 46 l 935 0 m 581 389 l 458 743 l 456 743 q 325 389 397 586 l 581 389 m 685 985 l 663 950 q 494 1036 588 983 q 329 950 385 974 l 306 985 q 481 1133 431 1081 l 511 1133 q 685 985 565 1076 z "},"Ã":{"ha":960,"x_min":28,"x_max":935,"o":"m 935 0 l 594 0 l 594 39 q 675 61 660 47 q 676 115 690 75 q 600 329 667 143 l 304 329 q 243 150 261 207 q 235 65 221 85 q 329 39 250 46 l 329 0 l 28 0 l 28 39 q 122 71 96 49 q 183 182 149 93 l 471 911 l 514 924 q 626 612 522 900 q 782 179 729 324 q 840 68 815 90 q 935 39 865 46 l 935 0 m 581 389 l 458 743 l 456 743 q 325 389 397 586 l 581 389 m 422 1094 l 424 1094 q 507 1068 453 1094 q 583 1046 556 1046 q 647 1106 619 1046 l 682 1086 q 568 968 643 968 q 471 999 535 968 q 410 1018 432 1018 q 343 957 376 1018 l 310 981 q 422 1094 356 1094 z "},"Ä":{"ha":960,"x_min":28,"x_max":935,"o":"m 935 0 l 594 0 l 594 39 q 675 61 660 47 q 676 115 690 75 q 600 329 667 143 l 304 329 q 243 150 261 207 q 235 65 221 85 q 329 39 250 46 l 329 0 l 28 0 l 28 39 q 122 71 96 49 q 183 182 149 93 l 471 911 l 514 924 q 626 612 522 900 q 782 179 729 324 q 840 68 815 90 q 935 39 865 46 l 935 0 m 581 389 l 458 743 l 456 743 q 325 389 397 586 l 581 389 m 622 1101 l 624 1101 q 670 1082 651 1101 q 689 1033 689 1063 q 669 986 689 1006 q 622 967 650 967 q 576 987 596 967 q 557 1033 557 1007 q 576 1082 557 1063 q 622 1101 596 1101 m 358 1101 l 360 1101 q 406 1082 388 1101 q 424 1032 424 1063 q 405 985 424 1006 q 358 965 386 965 q 312 985 332 965 q 292 1032 292 1006 q 311 1081 292 1061 q 358 1101 331 1101 z "},"Å":{"ha":960,"x_min":28,"x_max":935,"o":"m 935 0 l 594 0 l 594 39 q 675 61 660 47 q 676 115 690 75 q 600 329 667 143 l 304 329 q 243 150 261 207 q 235 65 221 85 q 329 39 250 46 l 329 0 l 28 0 l 28 39 q 122 71 96 49 q 183 182 149 93 l 471 911 l 514 924 q 626 612 522 900 q 782 179 729 324 q 840 68 815 90 q 935 39 865 46 l 935 0 m 581 389 l 458 743 l 456 743 q 325 389 397 586 l 581 389 m 492 1188 l 493 1188 q 577 1155 540 1188 q 614 1071 614 1122 q 577 986 614 1019 q 492 953 540 953 q 406 986 443 953 q 369 1071 369 1019 q 406 1155 369 1122 q 492 1188 443 1188 m 492 1143 l 490 1143 q 447 1123 464 1143 q 431 1071 431 1103 q 448 1017 431 1039 q 492 996 465 996 q 536 1017 519 996 q 553 1071 553 1038 q 536 1123 553 1103 q 492 1143 519 1143 z "},"Æ":{"ha":1207,"x_min":-15,"x_max":1176,"o":"m 1138 229 l 1176 219 q 1128 0 1146 64 l 471 0 l 471 39 q 581 69 560 44 q 601 186 601 93 l 601 413 l 356 413 q 224 142 265 236 q 211 67 197 88 q 303 38 225 47 l 303 0 l -15 0 l -15 38 q 81 67 53 47 q 150 156 110 86 q 482 779 253 336 q 499 837 506 822 q 439 858 492 851 l 382 865 l 382 903 l 1094 903 q 1108 706 1094 842 l 1067 700 q 1022 814 1046 783 q 975 846 1004 838 q 876 854 946 854 l 761 854 q 724 847 731 854 q 717 810 717 840 l 717 465 l 842 465 q 956 483 933 465 q 993 572 979 500 l 1035 572 l 1035 301 l 993 301 q 956 394 978 378 q 842 411 933 411 l 717 413 l 717 182 q 750 65 717 88 q 892 49 781 49 q 1007 58 968 49 q 1069 96 1046 68 q 1138 229 1104 138 m 601 467 l 601 847 q 563 819 585 847 q 381 467 504 713 l 601 467 z "},"Ç":{"ha":918,"x_min":64,"x_max":892,"o":"m 851 247 l 892 232 q 817 15 851 90 q 779 8 814 15 q 719 -4 744 0 q 656 -13 694 -8 q 586 -18 617 -18 l 571 -37 q 560 -67 558 -56 q 579 -96 563 -78 q 632 -190 632 -150 q 589 -270 632 -232 q 474 -332 546 -308 l 456 -293 q 540 -210 538 -257 q 508 -157 540 -189 q 478 -114 482 -131 q 493 -71 475 -97 l 531 -19 q 357 11 436 -17 q 225 84 278 39 q 135 188 172 129 q 81 308 97 246 q 64 436 64 371 q 212 788 64 651 q 590 924 360 924 q 675 919 632 924 q 742 909 718 914 q 801 896 765 904 q 838 888 836 888 q 865 672 857 746 l 824 665 q 730 825 792 778 q 551 872 668 872 q 301 757 396 872 q 207 467 207 642 q 304 154 207 276 q 563 32 401 32 q 730 83 667 32 q 851 247 793 133 z "},"È":{"ha":789,"x_min":40,"x_max":758,"o":"m 717 225 l 758 219 q 710 0 733 81 l 40 0 l 40 39 q 156 67 135 46 q 178 172 178 88 l 178 725 q 160 837 178 817 q 58 864 142 857 l 58 903 l 678 903 q 689 703 678 892 l 649 696 q 604 815 633 765 q 556 846 589 838 q 447 854 522 854 l 342 854 q 303 848 310 854 q 296 810 296 842 l 296 494 l 426 494 q 540 510 518 494 q 576 599 563 526 l 617 599 l 617 332 l 576 332 q 540 424 563 407 q 428 440 518 440 l 296 440 l 296 178 q 329 65 296 89 q 474 47 358 47 q 589 57 553 47 q 649 94 625 67 q 717 225 690 143 m 485 985 l 467 950 l 207 1039 l 206 1049 q 231 1094 208 1064 q 265 1128 253 1124 q 485 985 394 1044 z "},"É":{"ha":789,"x_min":40,"x_max":758,"o":"m 717 225 l 758 219 q 710 0 733 81 l 40 0 l 40 39 q 156 67 135 46 q 178 172 178 88 l 178 725 q 160 837 178 817 q 58 864 142 857 l 58 903 l 678 903 q 689 703 678 892 l 649 696 q 604 815 633 765 q 556 846 589 838 q 447 854 522 854 l 342 854 q 303 848 310 854 q 296 810 296 842 l 296 494 l 426 494 q 540 510 518 494 q 576 599 563 526 l 617 599 l 617 332 l 576 332 q 540 424 563 407 q 428 440 518 440 l 296 440 l 296 178 q 329 65 296 89 q 474 47 358 47 q 589 57 553 47 q 649 94 625 67 q 717 225 690 143 m 599 1050 l 596 1039 l 338 950 l 321 985 q 539 1126 372 1018 q 574 1095 551 1125 q 599 1050 596 1065 z "},"Ê":{"ha":789,"x_min":40,"x_max":758,"o":"m 717 225 l 758 219 q 710 0 733 81 l 40 0 l 40 39 q 156 67 135 46 q 178 172 178 88 l 178 725 q 160 837 178 817 q 58 864 142 857 l 58 903 l 678 903 q 689 703 678 892 l 649 696 q 604 815 633 765 q 556 846 589 838 q 447 854 522 854 l 342 854 q 303 848 310 854 q 296 810 296 842 l 296 494 l 426 494 q 540 510 518 494 q 576 599 563 526 l 617 599 l 617 332 l 576 332 q 540 424 563 407 q 428 440 518 440 l 296 440 l 296 178 q 329 65 296 89 q 474 47 358 47 q 589 57 553 47 q 649 94 625 67 q 717 225 690 143 m 589 985 l 567 950 q 399 1036 492 983 q 233 950 289 974 l 210 985 q 385 1133 335 1081 l 415 1133 q 589 985 469 1076 z "},"Ë":{"ha":789,"x_min":40,"x_max":758,"o":"m 717 225 l 758 219 q 710 0 733 81 l 40 0 l 40 39 q 156 67 135 46 q 178 172 178 88 l 178 725 q 160 837 178 817 q 58 864 142 857 l 58 903 l 678 903 q 689 703 678 892 l 649 696 q 604 815 633 765 q 556 846 589 838 q 447 854 522 854 l 342 854 q 303 848 310 854 q 296 810 296 842 l 296 494 l 426 494 q 540 510 518 494 q 576 599 563 526 l 617 599 l 617 332 l 576 332 q 540 424 563 407 q 428 440 518 440 l 296 440 l 296 178 q 329 65 296 89 q 474 47 358 47 q 589 57 553 47 q 649 94 625 67 q 717 225 690 143 m 535 1107 l 536 1107 q 583 1088 564 1107 q 601 1039 601 1068 q 582 992 601 1011 q 535 972 563 972 q 489 992 508 972 q 469 1039 469 1013 q 489 1088 469 1068 q 535 1107 508 1107 m 271 1107 l 272 1107 q 318 1088 300 1107 q 336 1038 336 1068 q 317 991 336 1011 q 271 971 299 971 q 224 991 244 971 q 204 1038 204 1011 q 224 1087 204 1067 q 271 1107 243 1107 z "},"Ì":{"ha":474,"x_min":49,"x_max":421,"o":"m 421 0 l 53 0 l 53 39 q 158 66 139 46 q 178 174 178 86 l 178 729 q 158 837 178 817 q 53 864 139 857 l 53 903 l 421 903 l 421 864 q 315 837 335 857 q 296 729 296 817 l 296 174 q 315 65 296 85 q 421 39 335 46 l 421 0 m 328 985 l 310 950 l 50 1039 l 49 1049 q 74 1094 51 1064 q 108 1128 96 1124 q 328 985 238 1044 z "},"Í":{"ha":474,"x_min":53,"x_max":435,"o":"m 421 0 l 53 0 l 53 39 q 158 66 139 46 q 178 174 178 86 l 178 729 q 158 837 178 817 q 53 864 139 857 l 53 903 l 421 903 l 421 864 q 315 837 335 857 q 296 729 296 817 l 296 174 q 315 65 296 85 q 421 39 335 46 l 421 0 m 435 1050 l 432 1039 l 174 950 l 157 985 q 375 1126 208 1018 q 410 1095 388 1125 q 435 1050 432 1065 z "},"Î":{"ha":474,"x_min":47,"x_max":426,"o":"m 421 0 l 53 0 l 53 39 q 158 66 139 46 q 178 174 178 86 l 178 729 q 158 837 178 817 q 53 864 139 857 l 53 903 l 421 903 l 421 864 q 315 837 335 857 q 296 729 296 817 l 296 174 q 315 65 296 85 q 421 39 335 46 l 421 0 m 426 985 l 404 950 q 236 1036 329 983 q 71 950 126 974 l 47 985 q 222 1133 172 1081 l 253 1133 q 426 985 307 1076 z "},"Ï":{"ha":474,"x_min":39,"x_max":436,"o":"m 421 0 l 53 0 l 53 39 q 158 66 139 46 q 178 174 178 86 l 178 729 q 158 837 178 817 q 53 864 139 857 l 53 903 l 421 903 l 421 864 q 315 837 335 857 q 296 729 296 817 l 296 174 q 315 65 296 85 q 421 39 335 46 l 421 0 m 369 1103 l 371 1103 q 417 1083 399 1103 q 436 1035 436 1064 q 417 988 436 1007 q 369 968 397 968 q 324 988 343 968 q 304 1035 304 1008 q 324 1083 304 1064 q 369 1103 343 1103 m 106 1103 l 107 1103 q 153 1083 135 1103 q 171 1033 171 1064 q 152 987 171 1007 q 106 967 133 967 q 59 987 79 967 q 39 1033 39 1007 q 58 1083 39 1063 q 106 1103 78 1103 z "},"Ð":{"ha":1024,"x_min":51,"x_max":961,"o":"m 75 903 l 457 903 q 842 783 718 903 q 961 486 961 671 q 788 115 961 244 q 382 0 635 0 l 63 0 l 63 39 q 173 69 153 46 q 193 190 193 92 l 193 444 l 51 444 l 51 501 l 193 501 l 193 713 q 185 811 193 783 q 155 849 176 839 q 75 864 133 860 l 75 903 m 311 444 l 311 183 q 338 81 311 110 q 446 51 364 51 q 726 169 631 51 q 822 465 822 286 q 663 801 822 701 q 438 857 576 857 q 329 843 354 857 q 311 783 311 833 l 311 501 l 531 501 l 531 444 l 311 444 z "},"Ñ":{"ha":1032,"x_min":28,"x_max":999,"o":"m 999 903 l 999 864 q 913 843 939 861 q 882 781 886 825 q 874 547 874 718 l 874 -12 l 831 -12 l 239 715 l 236 715 l 236 367 q 244 132 236 213 q 278 62 250 81 q 378 39 306 43 l 378 0 l 49 0 l 49 39 q 138 60 111 42 q 171 129 165 79 q 179 367 179 215 l 179 672 q 175 766 179 746 q 151 813 171 786 q 28 864 117 857 l 28 903 l 233 903 l 813 206 l 817 206 l 817 547 q 807 778 817 688 q 773 842 801 824 q 671 864 744 860 l 671 903 l 999 903 m 450 1094 l 451 1094 q 535 1068 481 1094 q 611 1046 583 1046 q 675 1106 647 1046 l 710 1086 q 596 968 671 968 q 499 999 563 968 q 438 1018 460 1018 q 371 957 404 1018 l 338 981 q 450 1094 383 1094 z "},"Ò":{"ha":1038,"x_min":61,"x_max":976,"o":"m 528 924 l 529 924 q 844 794 711 924 q 976 463 976 665 q 843 111 976 243 q 513 -21 710 -21 q 192 111 322 -21 q 61 442 61 243 q 190 781 61 639 q 528 924 318 924 m 500 874 l 499 874 q 289 770 375 874 q 203 481 203 667 q 299 157 203 285 q 542 29 394 29 q 750 132 665 29 q 835 425 835 235 q 739 755 835 636 q 500 874 643 874 m 618 997 l 600 963 l 340 1051 l 339 1061 q 364 1106 342 1076 q 399 1140 386 1136 q 618 997 528 1057 z "},"Ó":{"ha":1038,"x_min":61,"x_max":976,"o":"m 528 924 l 529 924 q 844 794 711 924 q 976 463 976 665 q 843 111 976 243 q 513 -21 710 -21 q 192 111 322 -21 q 61 442 61 243 q 190 781 61 639 q 528 924 318 924 m 500 874 l 499 874 q 289 770 375 874 q 203 481 203 667 q 299 157 203 285 q 542 29 394 29 q 750 132 665 29 q 835 425 835 235 q 739 755 835 636 q 500 874 643 874 m 699 1060 l 696 1049 l 438 960 l 421 994 q 639 1136 472 1028 q 674 1105 651 1135 q 699 1060 696 1075 z "},"Ô":{"ha":1038,"x_min":61,"x_max":976,"o":"m 528 924 l 529 924 q 844 794 711 924 q 976 463 976 665 q 843 111 976 243 q 513 -21 710 -21 q 192 111 322 -21 q 61 442 61 243 q 190 781 61 639 q 528 924 318 924 m 500 874 l 499 874 q 289 770 375 874 q 203 481 203 667 q 299 157 203 285 q 542 29 394 29 q 750 132 665 29 q 835 425 835 235 q 739 755 835 636 q 500 874 643 874 m 707 994 l 685 960 q 517 1046 610 993 q 351 960 407 983 l 328 994 q 503 1143 453 1090 l 533 1143 q 707 994 588 1086 z "},"Õ":{"ha":1038,"x_min":61,"x_max":976,"o":"m 528 924 l 529 924 q 844 794 711 924 q 976 463 976 665 q 843 111 976 243 q 513 -21 710 -21 q 192 111 322 -21 q 61 442 61 243 q 190 781 61 639 q 528 924 318 924 m 500 874 l 499 874 q 289 770 375 874 q 203 481 203 667 q 299 157 203 285 q 542 29 394 29 q 750 132 665 29 q 835 425 835 235 q 739 755 835 636 q 500 874 643 874 m 447 1107 l 449 1107 q 532 1081 478 1107 q 608 1058 581 1058 q 672 1118 644 1058 l 707 1099 q 593 981 668 981 q 496 1011 560 981 q 435 1031 457 1031 q 368 969 401 1031 l 335 993 q 447 1107 381 1107 z "},"Ö":{"ha":1038,"x_min":61,"x_max":976,"o":"m 528 924 l 529 924 q 844 794 711 924 q 976 463 976 665 q 843 111 976 243 q 513 -21 710 -21 q 192 111 322 -21 q 61 442 61 243 q 190 781 61 639 q 528 924 318 924 m 500 874 l 499 874 q 289 770 375 874 q 203 481 203 667 q 299 157 203 285 q 542 29 394 29 q 750 132 665 29 q 835 425 835 235 q 739 755 835 636 q 500 874 643 874 m 650 1108 l 651 1108 q 698 1089 679 1108 q 717 1040 717 1069 q 697 993 717 1013 q 650 974 678 974 q 604 994 624 974 q 585 1040 585 1014 q 604 1089 585 1069 q 650 1108 624 1108 m 386 1108 l 388 1108 q 433 1089 415 1108 q 451 1039 451 1069 q 433 992 451 1013 q 386 972 414 972 q 340 992 360 972 q 319 1039 319 1013 q 339 1088 319 1068 q 386 1108 358 1108 z "},"×":{"ha":806,"x_min":83,"x_max":725,"o":"m 725 65 l 674 13 l 403 290 l 132 13 l 83 65 l 351 343 l 83 618 l 132 671 l 403 394 l 674 672 l 725 621 l 454 343 l 725 65 z "},"Ø":{"ha":1040,"x_min":69,"x_max":986,"o":"m 879 936 l 810 832 q 938 672 890 767 q 986 465 986 578 q 852 113 986 247 q 518 -21 718 -21 q 279 49 386 -21 l 200 -62 l 164 -29 l 238 78 q 69 443 69 218 q 201 781 69 638 q 542 924 332 924 q 767 860 668 924 l 838 964 l 879 936 m 300 171 l 718 786 q 510 874 636 874 q 296 769 383 874 q 208 478 208 665 q 300 171 208 292 m 750 744 l 333 128 q 542 29 411 29 q 769 140 692 29 q 847 424 847 251 q 750 744 847 611 z "},"Ù":{"ha":1022,"x_min":46,"x_max":994,"o":"m 994 903 l 994 864 q 905 842 932 860 q 872 782 878 824 q 865 557 865 719 l 865 443 q 760 76 865 188 q 511 -19 668 -19 q 289 47 375 -19 q 167 378 167 140 l 167 724 q 148 836 167 815 q 46 864 129 857 l 46 903 l 406 903 l 406 864 q 303 838 322 858 q 285 724 285 817 l 285 408 q 351 148 285 239 q 546 57 418 57 q 808 453 808 57 l 808 557 q 799 786 808 711 q 765 842 793 826 q 664 864 738 858 l 664 903 l 994 903 m 610 985 l 592 950 l 332 1039 l 331 1049 q 356 1094 333 1064 q 390 1128 378 1124 q 610 985 519 1044 z "},"Ú":{"ha":1022,"x_min":46,"x_max":994,"o":"m 994 903 l 994 864 q 905 842 932 860 q 872 782 878 824 q 865 557 865 719 l 865 443 q 760 76 865 188 q 511 -19 668 -19 q 289 47 375 -19 q 167 378 167 140 l 167 724 q 148 836 167 815 q 46 864 129 857 l 46 903 l 406 903 l 406 864 q 303 838 322 858 q 285 724 285 817 l 285 408 q 351 148 285 239 q 546 57 418 57 q 808 453 808 57 l 808 557 q 799 786 808 711 q 765 842 793 826 q 664 864 738 858 l 664 903 l 994 903 m 721 1050 l 718 1039 l 460 950 l 443 985 q 661 1126 494 1018 q 696 1095 674 1125 q 721 1050 718 1065 z "},"Û":{"ha":1022,"x_min":46,"x_max":994,"o":"m 994 903 l 994 864 q 905 842 932 860 q 872 782 878 824 q 865 557 865 719 l 865 443 q 760 76 865 188 q 511 -19 668 -19 q 289 47 375 -19 q 167 378 167 140 l 167 724 q 148 836 167 815 q 46 864 129 857 l 46 903 l 406 903 l 406 864 q 303 838 322 858 q 285 724 285 817 l 285 408 q 351 148 285 239 q 546 57 418 57 q 808 453 808 57 l 808 557 q 799 786 808 711 q 765 842 793 826 q 664 864 738 858 l 664 903 l 994 903 m 718 985 l 696 950 q 528 1036 621 983 q 363 950 418 974 l 339 985 q 514 1133 464 1081 l 544 1133 q 718 985 599 1076 z "},"Ü":{"ha":1022,"x_min":46,"x_max":994,"o":"m 994 903 l 994 864 q 905 842 932 860 q 872 782 878 824 q 865 557 865 719 l 865 443 q 760 76 865 188 q 511 -19 668 -19 q 289 47 375 -19 q 167 378 167 140 l 167 724 q 148 836 167 815 q 46 864 129 857 l 46 903 l 406 903 l 406 864 q 303 838 322 858 q 285 724 285 817 l 285 408 q 351 148 285 239 q 546 57 418 57 q 808 453 808 57 l 808 557 q 799 786 808 711 q 765 842 793 826 q 664 864 738 858 l 664 903 l 994 903 m 656 1103 l 657 1103 q 703 1083 685 1103 q 722 1035 722 1064 q 703 988 722 1007 q 656 968 683 968 q 610 988 629 968 q 590 1035 590 1008 q 610 1083 590 1064 q 656 1103 629 1103 m 392 1103 l 393 1103 q 439 1083 421 1103 q 457 1033 457 1064 q 438 987 457 1007 q 392 967 419 967 q 345 987 365 967 q 325 1033 325 1007 q 344 1083 325 1063 q 392 1103 364 1103 z "},"Ý":{"ha":881,"x_min":21,"x_max":861,"o":"m 861 903 l 861 864 q 764 838 790 856 q 696 754 738 819 q 519 450 604 607 q 497 363 497 406 l 497 174 q 519 66 497 86 q 636 39 540 46 l 636 0 l 243 0 l 243 39 q 358 66 336 46 q 379 174 379 86 l 379 358 q 350 440 379 389 q 175 746 231 653 q 107 838 132 818 q 21 864 82 858 l 21 903 l 353 903 l 353 864 q 272 839 283 856 q 283 789 260 822 q 469 460 311 735 q 635 772 590 675 q 647 840 660 824 q 554 864 635 856 l 554 903 l 861 903 m 654 1050 l 651 1039 l 393 950 l 376 985 q 594 1126 428 1018 q 629 1095 607 1125 q 654 1050 651 1065 z "},"Þ":{"ha":763,"x_min":51,"x_max":708,"o":"m 400 903 l 400 864 q 339 856 357 860 q 307 835 321 853 q 291 790 293 817 q 289 703 289 763 q 411 706 372 706 q 708 468 708 706 q 615 278 708 346 q 388 211 522 211 l 289 235 l 289 176 q 310 67 289 88 q 419 39 331 46 l 419 0 l 51 0 l 51 39 q 153 67 135 46 q 172 183 172 89 l 172 719 q 155 836 172 815 q 58 864 138 857 l 58 903 l 400 903 m 289 601 l 289 283 q 383 267 329 267 q 522 318 468 267 q 576 464 576 369 q 524 609 576 560 q 379 658 472 658 q 304 646 324 658 q 289 601 289 638 z "},"ß":{"ha":757,"x_min":39,"x_max":719,"o":"m 143 607 l 143 624 q 158 743 143 685 q 274 914 188 842 q 451 989 354 981 q 608 932 547 986 q 669 781 668 878 q 654 722 669 747 q 511 533 511 614 q 528 482 511 508 q 558 444 546 456 q 607 400 569 433 q 660 350 640 371 q 700 292 681 329 q 719 217 719 254 q 633 51 719 121 q 464 -18 546 -18 q 388 0 417 -18 q 360 46 353 19 q 385 83 365 67 q 414 85 400 94 q 517 44 465 44 q 584 73 553 44 q 615 158 615 101 q 592 236 615 201 q 521 311 568 271 q 407 482 407 408 q 429 553 407 518 q 504 644 451 589 q 564 707 554 693 q 574 753 574 722 q 526 877 574 824 q 408 931 479 931 q 326 901 358 931 q 278 815 293 872 q 258 699 263 758 q 253 556 253 640 l 253 144 q 265 61 253 79 q 326 38 276 43 l 326 0 l 43 0 l 43 38 q 126 60 110 43 q 143 142 143 78 l 143 547 l 44 547 l 39 561 l 78 607 l 143 607 z "},"à":{"ha":610,"x_min":54,"x_max":601,"o":"m 601 54 l 483 -17 q 418 10 447 -17 q 385 72 396 33 q 351 49 378 68 q 314 24 325 31 q 282 5 303 17 q 247 -12 261 -7 q 221 -17 233 -17 q 101 34 149 -17 q 54 153 54 85 q 167 290 54 251 q 382 381 343 350 l 382 406 q 350 521 382 479 q 265 563 318 563 q 203 535 226 563 q 161 444 179 511 q 121 411 153 411 q 81 430 101 411 q 60 471 60 449 q 104 526 60 493 q 313 624 214 604 q 426 586 381 624 q 489 417 489 535 l 489 158 q 538 75 489 75 q 588 90 563 75 l 601 54 m 382 117 l 382 333 q 314 301 365 325 q 257 275 263 278 q 193 233 214 256 q 172 174 172 210 q 203 95 172 124 q 271 67 235 67 q 382 117 332 69 m 349 700 l 311 682 q 149 904 221 807 l 153 915 q 204 928 163 921 q 261 933 246 935 q 304 818 274 901 q 349 700 335 735 z "},"á":{"ha":610,"x_min":54,"x_max":601,"o":"m 601 54 l 483 -17 q 418 10 447 -17 q 385 72 396 33 q 351 49 378 68 q 314 24 325 31 q 282 5 303 17 q 247 -12 261 -7 q 221 -17 233 -17 q 101 34 149 -17 q 54 153 54 85 q 167 290 54 251 q 382 381 343 350 l 382 406 q 350 521 382 479 q 265 563 318 563 q 203 535 226 563 q 161 444 179 511 q 121 411 153 411 q 81 430 101 411 q 60 471 60 449 q 104 526 60 493 q 313 624 214 604 q 426 586 381 624 q 489 417 489 535 l 489 158 q 538 75 489 75 q 588 90 563 75 l 601 54 m 382 117 l 382 333 q 314 301 365 325 q 257 275 263 278 q 193 233 214 256 q 172 174 172 210 q 203 95 172 124 q 271 67 235 67 q 382 117 332 69 m 282 685 l 246 703 q 339 924 269 756 q 395 933 350 928 q 451 936 440 939 l 456 924 l 282 685 z "},"â":{"ha":610,"x_min":54,"x_max":601,"o":"m 601 54 l 483 -17 q 418 10 447 -17 q 385 72 396 33 q 351 49 378 68 q 314 24 325 31 q 282 5 303 17 q 247 -12 261 -7 q 221 -17 233 -17 q 101 34 149 -17 q 54 153 54 85 q 167 290 54 251 q 382 381 343 350 l 382 406 q 350 521 382 479 q 265 563 318 563 q 203 535 226 563 q 161 444 179 511 q 121 411 153 411 q 81 430 101 411 q 60 471 60 449 q 104 526 60 493 q 313 624 214 604 q 426 586 381 624 q 489 417 489 535 l 489 158 q 538 75 489 75 q 588 90 563 75 l 601 54 m 382 117 l 382 333 q 314 301 365 325 q 257 275 263 278 q 193 233 214 256 q 172 174 172 210 q 203 95 172 124 q 271 67 235 67 q 382 117 332 69 m 444 706 l 411 682 q 289 817 350 740 q 167 682 229 740 l 133 706 q 272 932 211 817 l 307 932 q 444 706 372 808 z "},"ã":{"ha":610,"x_min":54,"x_max":601,"o":"m 601 54 l 483 -17 q 418 10 447 -17 q 385 72 396 33 q 351 49 378 68 q 314 24 325 31 q 282 5 303 17 q 247 -12 261 -7 q 221 -17 233 -17 q 101 34 149 -17 q 54 153 54 85 q 167 290 54 251 q 382 381 343 350 l 382 406 q 350 521 382 479 q 265 563 318 563 q 203 535 226 563 q 161 444 179 511 q 121 411 153 411 q 81 430 101 411 q 60 471 60 449 q 104 526 60 493 q 313 624 214 604 q 426 586 381 624 q 489 417 489 535 l 489 158 q 538 75 489 75 q 588 90 563 75 l 601 54 m 382 117 l 382 333 q 314 301 365 325 q 257 275 263 278 q 193 233 214 256 q 172 174 172 210 q 203 95 172 124 q 271 67 235 67 q 382 117 332 69 m 150 724 l 114 746 q 225 871 154 871 q 306 844 254 871 q 379 818 358 818 q 440 881 413 818 l 475 861 q 365 736 438 736 q 274 769 333 736 q 210 790 236 790 q 150 724 178 790 z "},"ä":{"ha":610,"x_min":54,"x_max":601,"o":"m 601 54 l 483 -17 q 418 10 447 -17 q 385 72 396 33 q 351 49 378 68 q 314 24 325 31 q 282 5 303 17 q 247 -12 261 -7 q 221 -17 233 -17 q 101 34 149 -17 q 54 153 54 85 q 167 290 54 251 q 382 381 343 350 l 382 406 q 350 521 382 479 q 265 563 318 563 q 203 535 226 563 q 161 444 179 511 q 121 411 153 411 q 81 430 101 411 q 60 471 60 449 q 104 526 60 493 q 313 624 214 604 q 426 586 381 624 q 489 417 489 535 l 489 158 q 538 75 489 75 q 588 90 563 75 l 601 54 m 382 117 l 382 333 q 314 301 365 325 q 257 275 263 278 q 193 233 214 256 q 172 174 172 210 q 203 95 172 124 q 271 67 235 67 q 382 117 332 69 m 174 747 q 127 767 147 747 q 107 814 107 788 q 127 863 107 843 q 175 883 147 883 q 220 863 201 883 q 239 814 239 843 q 220 767 239 788 q 174 747 201 747 m 407 747 q 361 767 381 747 q 342 814 342 788 q 361 863 342 843 q 408 883 381 883 q 455 863 436 883 q 474 814 474 843 q 454 767 474 788 q 407 747 435 747 z "},"å":{"ha":610,"x_min":54,"x_max":601,"o":"m 601 54 l 483 -17 q 418 10 447 -17 q 385 72 396 33 q 351 49 378 68 q 314 24 325 31 q 282 5 303 17 q 247 -12 261 -7 q 221 -17 233 -17 q 101 34 149 -17 q 54 153 54 85 q 167 290 54 251 q 382 381 343 350 l 382 406 q 350 521 382 479 q 265 563 318 563 q 203 535 226 563 q 161 444 179 511 q 121 411 153 411 q 81 430 101 411 q 60 471 60 449 q 104 526 60 493 q 313 624 214 604 q 426 586 381 624 q 489 417 489 535 l 489 158 q 538 75 489 75 q 588 90 563 75 l 601 54 m 382 117 l 382 333 q 314 301 365 325 q 257 275 263 278 q 193 233 214 256 q 172 174 172 210 q 203 95 172 124 q 271 67 235 67 q 382 117 332 69 m 378 726 q 359 710 378 726 q 292 693 340 693 q 206 726 243 693 q 168 813 168 760 q 206 896 168 864 q 293 928 243 928 q 378 896 340 928 q 415 813 415 864 q 378 726 415 760 m 293 736 q 338 758 321 736 q 354 813 354 779 q 338 865 354 844 q 292 885 321 885 q 248 864 265 885 q 231 813 231 843 q 249 758 231 781 q 293 736 267 736 z "},"æ":{"ha":932,"x_min":56,"x_max":897,"o":"m 394 382 l 394 414 q 359 521 394 479 q 272 563 324 563 q 207 531 229 563 q 168 442 189 511 q 131 408 160 408 q 90 427 113 408 q 67 467 67 446 q 110 526 67 497 q 319 624 208 597 q 422 594 382 624 q 479 519 461 567 q 683 625 568 622 q 833 560 771 625 q 897 414 896 496 q 890 380 897 390 q 865 365 883 369 q 497 343 804 353 q 559 144 496 213 q 713 76 622 76 q 867 146 793 76 l 890 118 q 772 15 836 46 q 664 -17 708 -17 q 440 107 514 -17 l 392 69 q 224 -17 279 -17 q 103 35 151 -17 q 56 150 56 86 q 165 289 56 250 q 394 382 357 356 m 651 572 l 650 572 q 556 526 599 572 q 504 399 514 481 q 747 401 586 399 q 770 408 764 401 q 776 433 776 415 q 744 531 778 490 q 651 572 710 572 m 275 71 l 276 71 q 421 149 361 71 q 393 333 393 208 q 257 275 357 317 q 193 235 213 257 q 174 176 174 213 q 204 99 174 128 q 275 71 235 71 z "},"ç":{"ha":585,"x_min":51,"x_max":568,"o":"m 543 156 l 568 125 q 378 -11 476 13 l 358 -36 q 349 -65 346 -54 q 368 -93 351 -75 q 419 -186 419 -143 q 378 -265 419 -228 q 264 -326 336 -303 l 249 -290 q 331 -206 331 -253 q 300 -153 331 -186 q 269 -112 274 -128 q 283 -69 265 -96 l 325 -17 q 128 69 206 -12 q 51 271 51 151 q 192 544 51 438 q 404 624 296 624 q 473 613 436 624 q 528 586 510 603 q 549 544 550 567 q 531 505 549 525 q 499 485 514 485 q 474 500 489 485 q 332 557 411 557 q 216 501 267 557 q 165 336 165 446 q 186 212 165 265 q 241 131 207 158 q 308 90 275 103 q 374 78 342 78 q 460 94 422 78 q 543 156 497 111 z "},"è":{"ha":590,"x_min":51,"x_max":556,"o":"m 526 147 l 549 118 q 428 14 490 44 q 322 -17 365 -17 q 125 69 199 -17 q 51 279 51 156 q 143 522 51 422 q 346 624 233 624 l 347 624 q 494 560 432 624 q 556 413 556 496 q 524 368 556 375 q 161 344 443 354 q 224 145 163 213 q 368 78 286 78 q 526 147 453 78 m 314 572 l 313 572 q 224 528 264 572 q 168 401 183 483 q 403 406 282 401 q 436 433 436 406 q 403 531 438 490 q 314 572 369 572 m 368 700 l 331 682 q 168 904 240 807 l 172 915 q 224 928 182 921 q 281 933 265 935 q 324 818 293 901 q 368 700 354 735 z "},"é":{"ha":590,"x_min":51,"x_max":556,"o":"m 526 147 l 549 118 q 428 14 490 44 q 322 -17 365 -17 q 125 69 199 -17 q 51 279 51 156 q 143 522 51 422 q 346 624 233 624 l 347 624 q 494 560 432 624 q 556 413 556 496 q 524 368 556 375 q 161 344 443 354 q 224 145 163 213 q 368 78 286 78 q 526 147 453 78 m 314 572 l 313 572 q 224 528 264 572 q 168 401 183 483 q 403 406 282 401 q 436 433 436 406 q 403 531 438 490 q 314 572 369 572 m 303 685 l 267 703 q 360 924 290 756 q 416 933 371 928 q 472 936 461 939 l 476 924 l 303 685 z "},"ê":{"ha":590,"x_min":51,"x_max":556,"o":"m 526 147 l 549 118 q 428 14 490 44 q 322 -17 365 -17 q 125 69 199 -17 q 51 279 51 156 q 143 522 51 422 q 346 624 233 624 l 347 624 q 494 560 432 624 q 556 413 556 496 q 524 368 556 375 q 161 344 443 354 q 224 145 163 213 q 368 78 286 78 q 526 147 453 78 m 314 572 l 313 572 q 224 528 264 572 q 168 401 183 483 q 403 406 282 401 q 436 433 436 406 q 403 531 438 490 q 314 572 369 572 m 472 706 l 439 682 q 317 817 378 740 q 194 682 257 740 l 161 706 q 300 932 239 817 l 335 932 q 472 706 400 808 z "},"ë":{"ha":590,"x_min":51,"x_max":556,"o":"m 526 147 l 549 118 q 428 14 490 44 q 322 -17 365 -17 q 125 69 199 -17 q 51 279 51 156 q 143 522 51 422 q 346 624 233 624 l 347 624 q 494 560 432 624 q 556 413 556 496 q 524 368 556 375 q 161 344 443 354 q 224 145 163 213 q 368 78 286 78 q 526 147 453 78 m 314 572 l 313 572 q 224 528 264 572 q 168 401 183 483 q 403 406 282 401 q 436 433 436 406 q 403 531 438 490 q 314 572 369 572 m 194 747 q 148 767 168 747 q 128 814 128 788 q 148 863 128 843 q 196 883 168 883 q 241 863 222 883 q 260 814 260 843 q 241 767 260 788 q 194 747 222 747 m 428 747 q 382 767 401 747 q 363 814 363 788 q 382 863 363 843 q 429 883 401 883 q 476 863 457 883 q 494 814 494 843 q 475 767 494 788 q 428 747 456 747 z "},"ì":{"ha":372,"x_min":35,"x_max":350,"o":"m 350 0 l 46 0 l 46 36 q 128 61 113 43 q 143 150 143 79 l 143 428 q 130 513 143 497 q 56 539 117 529 l 56 572 q 253 626 163 589 l 253 150 q 268 60 253 78 q 350 36 283 43 l 350 0 m 235 700 l 197 682 q 35 904 107 807 l 39 915 q 90 928 49 921 q 147 933 132 935 q 190 818 160 901 q 235 700 221 735 z "},"í":{"ha":372,"x_min":46,"x_max":350,"o":"m 350 0 l 46 0 l 46 36 q 128 61 113 43 q 143 150 143 79 l 143 428 q 130 513 143 497 q 56 539 117 529 l 56 572 q 253 626 163 589 l 253 150 q 268 60 253 78 q 350 36 283 43 l 350 0 m 172 685 l 136 703 q 229 924 160 756 q 285 933 240 928 q 342 936 331 939 l 346 924 l 172 685 z "},"î":{"ha":372,"x_min":28,"x_max":350,"o":"m 350 0 l 46 0 l 46 36 q 128 61 113 43 q 143 150 143 79 l 143 428 q 130 513 143 497 q 56 539 117 529 l 56 572 q 253 626 163 589 l 253 150 q 268 60 253 78 q 350 36 283 43 l 350 0 m 339 706 l 306 682 q 183 817 244 740 q 61 682 124 740 l 28 706 q 167 932 106 817 l 201 932 q 339 706 267 808 z "},"ï":{"ha":372,"x_min":0,"x_max":367,"o":"m 350 0 l 46 0 l 46 36 q 128 61 113 43 q 143 150 143 79 l 143 428 q 130 513 143 497 q 56 539 117 529 l 56 572 q 253 626 163 589 l 253 150 q 268 60 253 78 q 350 36 283 43 l 350 0 m 67 747 q 20 767 40 747 q 0 814 0 788 q 20 863 0 843 q 68 883 40 883 q 113 863 94 883 q 132 814 132 843 q 113 767 132 788 q 67 747 94 747 m 300 747 q 254 767 274 747 q 235 814 235 788 q 254 863 235 843 q 301 883 274 883 q 348 863 329 883 q 367 814 367 843 q 347 767 367 788 q 300 747 328 747 z "},"ð":{"ha":701,"x_min":53,"x_max":649,"o":"m 625 918 l 467 835 q 649 371 649 643 q 560 83 649 182 q 343 -17 471 -17 q 134 78 215 -17 q 53 290 53 172 q 103 475 53 396 q 222 589 154 554 q 358 624 289 624 l 360 624 q 493 590 432 624 q 393 792 468 704 l 192 683 l 169 726 l 357 828 q 117 947 247 928 q 114 969 111 956 q 125 989 117 983 q 428 868 292 979 l 603 961 l 625 918 m 353 578 l 351 578 q 229 510 276 578 q 182 329 182 442 q 233 113 182 196 q 368 31 283 31 q 526 326 522 31 q 518 458 528 418 q 485 524 508 499 q 353 578 428 578 z "},"ñ":{"ha":760,"x_min":40,"x_max":726,"o":"m 726 0 l 438 0 l 438 36 q 514 61 499 43 q 529 151 529 79 l 529 383 q 403 542 529 542 q 251 471 333 542 l 251 144 q 265 59 251 75 q 342 36 279 43 l 342 0 l 40 0 l 40 36 q 126 60 111 43 q 142 144 142 76 l 142 432 q 129 513 142 497 q 58 539 117 528 l 58 571 q 251 628 174 593 l 251 517 q 344 582 281 538 q 460 624 410 624 q 591 568 543 624 q 639 413 639 513 l 639 144 q 652 59 639 75 q 726 36 665 43 l 726 0 m 232 724 l 196 746 q 307 871 236 871 q 388 844 336 871 q 461 818 440 818 q 522 881 494 818 l 557 861 q 447 736 519 736 q 356 769 415 736 q 292 790 318 790 q 232 724 258 790 z "},"ò":{"ha":708,"x_min":51,"x_max":657,"o":"m 356 624 l 357 624 q 571 534 485 624 q 657 314 657 444 q 564 71 657 158 q 356 -17 471 -17 q 135 76 219 -17 q 51 290 51 168 q 81 438 51 372 q 156 543 110 504 q 254 603 203 582 q 356 624 306 624 m 342 578 l 340 578 q 227 513 274 578 q 181 335 181 447 q 233 115 181 201 q 371 29 286 29 q 485 90 442 29 q 528 283 528 150 q 478 494 528 411 q 342 578 429 578 m 408 700 l 371 682 q 208 904 281 807 l 213 915 q 264 928 222 921 q 321 933 306 935 q 364 818 333 901 q 408 700 394 735 z "},"ó":{"ha":708,"x_min":51,"x_max":657,"o":"m 356 624 l 357 624 q 571 534 485 624 q 657 314 657 444 q 564 71 657 158 q 356 -17 471 -17 q 135 76 219 -17 q 51 290 51 168 q 81 438 51 372 q 156 543 110 504 q 254 603 203 582 q 356 624 306 624 m 342 578 l 340 578 q 227 513 274 578 q 181 335 181 447 q 233 115 181 201 q 371 29 286 29 q 485 90 442 29 q 528 283 528 150 q 478 494 528 411 q 342 578 429 578 m 340 685 l 304 703 q 397 924 328 756 q 453 933 408 928 q 510 936 499 939 l 514 924 l 340 685 z "},"ô":{"ha":708,"x_min":51,"x_max":657,"o":"m 356 624 l 357 624 q 571 534 485 624 q 657 314 657 444 q 564 71 657 158 q 356 -17 471 -17 q 135 76 219 -17 q 51 290 51 168 q 81 438 51 372 q 156 543 110 504 q 254 603 203 582 q 356 624 306 624 m 342 578 l 340 578 q 227 513 274 578 q 181 335 181 447 q 233 115 181 201 q 371 29 286 29 q 485 90 442 29 q 528 283 528 150 q 478 494 528 411 q 342 578 429 578 m 510 706 l 476 682 q 354 817 415 740 q 232 682 294 740 l 199 706 q 338 932 276 817 l 372 932 q 510 706 438 808 z "},"õ":{"ha":708,"x_min":51,"x_max":657,"o":"m 356 624 l 357 624 q 571 534 485 624 q 657 314 657 444 q 564 71 657 158 q 356 -17 471 -17 q 135 76 219 -17 q 51 290 51 168 q 81 438 51 372 q 156 543 110 504 q 254 603 203 582 q 356 624 306 624 m 342 578 l 340 578 q 227 513 274 578 q 181 335 181 447 q 233 115 181 201 q 371 29 286 29 q 485 90 442 29 q 528 283 528 150 q 478 494 528 411 q 342 578 429 578 m 210 724 l 174 746 q 285 871 214 871 q 365 844 314 871 q 439 818 418 818 q 500 881 472 818 l 535 861 q 425 736 497 736 q 333 769 393 736 q 269 790 296 790 q 210 724 236 790 z "},"ö":{"ha":708,"x_min":51,"x_max":657,"o":"m 356 624 l 357 624 q 571 534 485 624 q 657 314 657 444 q 564 71 657 158 q 356 -17 471 -17 q 135 76 219 -17 q 51 290 51 168 q 81 438 51 372 q 156 543 110 504 q 254 603 203 582 q 356 624 306 624 m 342 578 l 340 578 q 227 513 274 578 q 181 335 181 447 q 233 115 181 201 q 371 29 286 29 q 485 90 442 29 q 528 283 528 150 q 478 494 528 411 q 342 578 429 578 m 238 747 q 191 767 211 747 q 171 814 171 788 q 191 863 171 843 q 239 883 211 883 q 284 863 265 883 q 303 814 303 843 q 284 767 303 788 q 238 747 265 747 m 471 747 q 425 767 444 747 q 406 814 406 788 q 425 863 406 843 q 472 883 444 883 q 519 863 500 883 q 538 814 538 843 q 518 767 538 788 q 471 747 499 747 z "},"÷":{"ha":806,"x_min":72,"x_max":735,"o":"m 406 492 l 404 492 q 358 513 378 492 q 338 561 338 533 q 358 608 338 588 q 406 629 379 629 q 454 609 433 629 q 475 561 475 589 q 454 512 475 532 q 406 492 433 492 m 735 319 l 72 319 l 72 388 l 735 388 l 735 319 m 404 214 l 406 214 q 451 194 431 214 q 472 146 472 174 q 451 99 472 119 q 404 78 429 78 q 355 98 375 78 q 335 146 335 118 q 355 194 335 175 q 404 214 375 214 z "},"ø":{"ha":713,"x_min":51,"x_max":661,"o":"m 600 631 l 550 557 q 661 315 661 465 q 569 72 661 161 q 360 -17 476 -17 q 200 26 271 -17 l 144 -50 l 110 -19 l 163 53 q 81 161 110 97 q 51 292 51 225 q 81 440 51 374 q 158 544 111 506 q 258 603 206 582 q 361 624 311 624 q 513 583 443 624 l 563 656 l 600 631 m 218 139 l 468 517 q 346 578 424 578 q 224 510 274 578 q 175 324 175 443 q 218 139 175 213 m 496 474 l 247 97 q 372 29 292 29 q 490 95 443 29 q 538 297 538 161 q 496 474 538 399 z "},"ù":{"ha":738,"x_min":40,"x_max":719,"o":"m 719 68 l 719 33 q 613 11 675 28 q 561 -4 594 6 q 515 -17 528 -14 l 507 -8 l 507 90 q 404 18 432 35 q 297 -17 344 -17 q 173 34 221 -17 q 125 190 125 85 l 125 463 q 116 530 125 515 q 79 551 107 544 l 40 560 l 40 592 q 140 601 63 593 q 239 617 215 613 q 235 414 235 574 l 235 226 q 357 71 235 71 q 507 138 439 71 l 507 461 q 496 531 507 515 q 449 551 485 546 l 399 560 l 399 592 q 524 603 460 594 q 617 617 575 608 l 617 153 q 628 88 617 101 q 681 71 640 74 l 719 68 m 406 700 l 368 682 q 206 904 279 807 l 210 915 q 261 928 219 921 q 318 933 303 935 q 361 818 331 901 q 406 700 392 735 z "},"ú":{"ha":738,"x_min":40,"x_max":719,"o":"m 719 68 l 719 33 q 613 11 675 28 q 561 -4 594 6 q 515 -17 528 -14 l 507 -8 l 507 90 q 404 18 432 35 q 297 -17 344 -17 q 173 34 221 -17 q 125 190 125 85 l 125 463 q 116 530 125 515 q 79 551 107 544 l 40 560 l 40 592 q 140 601 63 593 q 239 617 215 613 q 235 414 235 574 l 235 226 q 357 71 235 71 q 507 138 439 71 l 507 461 q 496 531 507 515 q 449 551 485 546 l 399 560 l 399 592 q 524 603 460 594 q 617 617 575 608 l 617 153 q 628 88 617 101 q 681 71 640 74 l 719 68 m 350 685 l 314 703 q 407 924 338 756 q 463 933 418 928 q 519 936 508 939 l 524 924 l 350 685 z "},"û":{"ha":738,"x_min":40,"x_max":719,"o":"m 719 68 l 719 33 q 613 11 675 28 q 561 -4 594 6 q 515 -17 528 -14 l 507 -8 l 507 90 q 404 18 432 35 q 297 -17 344 -17 q 173 34 221 -17 q 125 190 125 85 l 125 463 q 116 530 125 515 q 79 551 107 544 l 40 560 l 40 592 q 140 601 63 593 q 239 617 215 613 q 235 414 235 574 l 235 226 q 357 71 235 71 q 507 138 439 71 l 507 461 q 496 531 507 515 q 449 551 485 546 l 399 560 l 399 592 q 524 603 460 594 q 617 617 575 608 l 617 153 q 628 88 617 101 q 681 71 640 74 l 719 68 m 518 706 l 485 682 q 363 817 424 740 q 240 682 303 740 l 207 706 q 346 932 285 817 l 381 932 q 518 706 446 808 z "},"ü":{"ha":738,"x_min":40,"x_max":719,"o":"m 719 68 l 719 33 q 613 11 675 28 q 561 -4 594 6 q 515 -17 528 -14 l 507 -8 l 507 90 q 404 18 432 35 q 297 -17 344 -17 q 173 34 221 -17 q 125 190 125 85 l 125 463 q 116 530 125 515 q 79 551 107 544 l 40 560 l 40 592 q 140 601 63 593 q 239 617 215 613 q 235 414 235 574 l 235 226 q 357 71 235 71 q 507 138 439 71 l 507 461 q 496 531 507 515 q 449 551 485 546 l 399 560 l 399 592 q 524 603 460 594 q 617 617 575 608 l 617 153 q 628 88 617 101 q 681 71 640 74 l 719 68 m 242 747 q 195 767 215 747 q 175 814 175 788 q 195 863 175 843 q 243 883 215 883 q 288 863 269 883 q 307 814 307 843 q 288 767 307 788 q 242 747 269 747 m 475 747 q 429 767 449 747 q 410 814 410 788 q 429 863 410 843 q 476 883 449 883 q 523 863 504 883 q 542 814 542 843 q 522 767 542 788 q 475 747 503 747 z "},"ý":{"ha":638,"x_min":1,"x_max":664,"o":"m 664 607 l 664 572 q 588 547 608 564 q 540 471 568 531 q 504 388 525 439 q 444 240 483 336 q 367 53 404 143 q 224 -324 247 -232 q 179 -357 213 -357 q 125 -336 150 -357 q 100 -290 100 -315 q 136 -240 100 -264 q 239 -117 196 -203 q 282 -21 271 -58 q 281 42 292 10 q 121 467 183 319 q 78 545 99 526 q 1 572 57 564 l 1 607 l 283 607 l 283 572 q 226 549 236 564 q 231 496 217 535 l 357 147 q 485 493 422 307 q 484 549 497 533 q 413 572 471 564 l 413 607 l 664 607 m 340 685 l 304 703 q 397 924 328 756 q 453 933 408 928 q 510 936 499 939 l 514 924 l 340 685 z "},"þ":{"ha":714,"x_min":7,"x_max":663,"o":"m 217 989 l 217 533 q 369 613 304 582 q 419 624 394 624 q 595 544 529 624 q 661 361 661 464 q 563 110 663 211 q 314 -17 463 10 q 217 11 256 -12 l 217 -182 q 237 -272 217 -254 q 340 -297 257 -290 l 340 -333 l 7 -333 l 7 -297 q 90 -273 74 -290 q 107 -185 107 -256 l 107 803 q 93 888 107 874 q 10 910 79 903 l 10 943 q 217 989 111 953 m 217 488 l 217 111 q 276 71 238 88 q 353 54 315 54 q 489 117 432 54 q 546 303 546 179 q 492 480 546 418 q 354 542 438 542 q 217 488 294 542 z "},"ÿ":{"ha":638,"x_min":1,"x_max":664,"o":"m 664 607 l 664 572 q 588 547 608 564 q 540 471 568 531 q 504 388 525 439 q 444 240 483 336 q 367 53 404 143 q 224 -324 247 -232 q 179 -357 213 -357 q 125 -336 150 -357 q 100 -290 100 -315 q 136 -240 100 -264 q 239 -117 196 -203 q 282 -21 271 -58 q 281 42 292 10 q 121 467 183 319 q 78 545 99 526 q 1 572 57 564 l 1 607 l 283 607 l 283 572 q 226 549 236 564 q 231 496 217 535 l 357 147 q 485 493 422 307 q 484 549 497 533 q 413 572 471 564 l 413 607 l 664 607 m 218 747 q 172 767 192 747 q 151 814 151 788 q 172 863 151 843 q 219 883 192 883 q 265 863 246 883 q 283 814 283 843 q 265 767 283 788 q 218 747 246 747 m 451 747 q 406 767 425 747 q 386 814 386 788 q 406 863 386 843 q 453 883 425 883 q 499 863 481 883 q 518 814 518 843 q 499 767 518 788 q 451 747 479 747 z "},"Ā":{"ha":960,"x_min":28,"x_max":935,"o":"m 935 0 l 594 0 l 594 39 q 675 61 660 47 q 676 115 690 75 q 600 329 667 143 l 304 329 q 243 150 261 207 q 235 65 221 85 q 329 39 250 46 l 329 0 l 28 0 l 28 39 q 122 71 96 49 q 183 182 149 93 l 471 911 l 514 924 q 626 612 522 900 q 782 179 729 324 q 840 68 815 90 q 935 39 865 46 l 935 0 m 581 389 l 458 743 l 456 743 q 325 389 397 586 l 581 389 m 650 994 l 339 994 l 339 1067 l 650 1067 l 650 994 z "},"ā":{"ha":610,"x_min":54,"x_max":601,"o":"m 601 54 l 483 -17 q 418 10 447 -17 q 385 72 396 33 q 351 49 378 68 q 314 24 325 31 q 282 5 303 17 q 247 -12 261 -7 q 221 -17 233 -17 q 101 34 149 -17 q 54 153 54 85 q 167 290 54 251 q 382 381 343 350 l 382 406 q 350 521 382 479 q 265 563 318 563 q 203 535 226 563 q 161 444 179 511 q 121 411 153 411 q 81 430 101 411 q 60 471 60 449 q 104 526 60 493 q 313 624 214 604 q 426 586 381 624 q 489 417 489 535 l 489 158 q 538 75 489 75 q 588 90 563 75 l 601 54 m 382 117 l 382 333 q 314 301 365 325 q 257 275 263 278 q 193 233 214 256 q 172 174 172 210 q 203 95 172 124 q 271 67 235 67 q 382 117 332 69 m 438 761 l 133 761 l 133 838 l 438 838 l 438 761 z "},"Ă":{"ha":960,"x_min":28,"x_max":935,"o":"m 935 0 l 594 0 l 594 39 q 675 61 660 47 q 676 115 690 75 q 600 329 667 143 l 304 329 q 243 150 261 207 q 235 65 221 85 q 329 39 250 46 l 329 0 l 28 0 l 28 39 q 122 71 96 49 q 183 182 149 93 l 471 911 l 514 924 q 626 612 522 900 q 782 179 729 324 q 840 68 815 90 q 935 39 865 46 l 935 0 m 581 389 l 458 743 l 456 743 q 325 389 397 586 l 581 389 m 614 1129 l 656 1129 q 610 1007 654 1049 q 493 965 567 965 q 376 1007 419 965 q 331 1129 332 1049 l 372 1129 q 493 1044 394 1044 q 614 1129 592 1044 z "},"ă":{"ha":610,"x_min":54,"x_max":601,"o":"m 601 54 l 483 -17 q 418 10 447 -17 q 385 72 396 33 q 351 49 378 68 q 314 24 325 31 q 282 5 303 17 q 247 -12 261 -7 q 221 -17 233 -17 q 101 34 149 -17 q 54 153 54 85 q 167 290 54 251 q 382 381 343 350 l 382 406 q 350 521 382 479 q 265 563 318 563 q 203 535 226 563 q 161 444 179 511 q 121 411 153 411 q 81 430 101 411 q 60 471 60 449 q 104 526 60 493 q 313 624 214 604 q 426 586 381 624 q 489 417 489 535 l 489 158 q 538 75 489 75 q 588 90 563 75 l 601 54 m 382 117 l 382 333 q 314 301 365 325 q 257 275 263 278 q 193 233 214 256 q 172 174 172 210 q 203 95 172 124 q 271 67 235 67 q 382 117 332 69 m 399 900 l 440 900 q 397 754 440 799 q 285 710 354 710 q 174 754 217 710 q 132 900 132 799 l 174 900 q 286 790 189 790 q 399 900 383 790 z "},"Ą":{"ha":960,"x_min":28,"x_max":935,"o":"m 935 0 l 700 0 q 641 -81 669 -26 q 613 -172 613 -135 q 635 -228 613 -208 q 693 -249 657 -249 q 757 -233 717 -249 l 768 -268 l 689 -315 q 642 -329 665 -329 q 548 -295 578 -329 q 518 -212 518 -261 q 675 42 518 -115 q 683 92 694 61 q 640 214 675 118 q 599 329 606 310 l 306 329 q 243 150 269 236 q 236 65 221 83 q 331 38 251 46 l 331 0 l 28 0 l 28 38 q 122 71 96 47 q 183 183 149 94 q 471 911 279 422 q 492 917 478 913 q 514 924 507 921 q 626 612 522 900 q 782 179 729 324 q 841 67 815 92 q 935 36 867 43 l 935 0 m 581 389 l 460 740 l 457 740 q 388 556 432 676 q 325 389 343 436 l 581 389 z "},"ą":{"ha":610,"x_min":54,"x_max":603,"o":"m 589 90 l 603 56 q 533 13 590 49 q 436 -77 481 -21 q 392 -182 392 -133 q 465 -246 392 -246 q 524 -232 492 -246 l 535 -268 l 464 -310 q 414 -326 435 -326 q 327 -298 357 -326 q 297 -218 297 -269 q 446 -4 297 -125 q 385 72 399 18 q 351 49 378 68 q 314 24 325 31 q 282 5 303 17 q 247 -12 261 -7 q 221 -17 233 -17 q 101 34 149 -17 q 54 153 54 85 q 167 290 54 251 q 383 381 343 349 l 383 407 q 352 522 383 481 q 268 564 321 564 q 204 535 231 564 q 164 444 185 514 q 122 411 154 411 q 83 430 103 411 q 63 471 63 449 q 106 528 63 496 q 315 624 207 600 q 428 586 382 624 q 489 418 489 536 l 489 158 q 539 75 489 75 q 589 90 564 75 m 383 118 l 383 335 q 316 303 365 326 q 258 276 267 281 q 174 174 174 238 q 205 95 174 124 q 272 67 236 67 q 383 118 335 69 z "},"Ć":{"ha":924,"x_min":61,"x_max":893,"o":"m 853 244 l 893 229 q 814 17 847 76 q 558 -21 664 -21 q 335 19 433 -21 q 179 126 238 60 q 91 273 121 193 q 61 439 61 353 q 211 790 61 656 q 596 924 361 924 q 695 917 646 924 q 791 898 744 910 q 842 886 838 886 q 869 676 863 733 l 828 667 q 737 825 801 776 q 558 874 672 874 q 298 754 393 874 q 203 467 203 635 q 305 151 203 272 q 567 29 407 29 q 733 81 668 29 q 853 244 797 133 m 715 1071 l 713 1060 l 454 971 l 438 1006 q 656 1147 489 1039 q 690 1116 668 1146 q 715 1071 713 1086 z "},"ć":{"ha":588,"x_min":53,"x_max":567,"o":"m 543 154 l 567 125 q 455 23 519 63 q 331 -17 390 -17 q 128 69 204 -17 q 53 274 53 156 q 192 546 53 438 q 400 624 293 624 l 401 624 q 525 588 481 624 q 547 544 547 568 q 531 504 547 524 q 501 485 514 485 q 475 500 492 485 q 336 557 414 557 q 214 498 264 557 q 164 335 164 439 q 231 142 164 206 q 374 78 299 78 q 543 154 461 78 m 317 685 l 281 703 q 374 924 304 756 q 430 933 385 928 q 486 936 475 939 l 490 924 l 317 685 z "},"Ĉ":{"ha":924,"x_min":61,"x_max":893,"o":"m 853 244 l 893 229 q 814 17 847 76 q 558 -21 664 -21 q 335 19 433 -21 q 179 126 238 60 q 91 273 121 193 q 61 439 61 353 q 211 790 61 656 q 596 924 361 924 q 695 917 646 924 q 791 898 744 910 q 842 886 838 886 q 869 676 863 733 l 828 667 q 737 825 801 776 q 558 874 672 874 q 298 754 393 874 q 203 467 203 635 q 305 151 203 272 q 567 29 407 29 q 733 81 668 29 q 853 244 797 133 m 740 1004 l 718 969 q 550 1056 643 1003 q 385 969 440 993 l 361 1004 q 536 1153 486 1100 l 567 1153 q 740 1004 621 1096 z "},"ĉ":{"ha":588,"x_min":53,"x_max":567,"o":"m 543 154 l 567 125 q 455 23 519 63 q 331 -17 390 -17 q 128 69 204 -17 q 53 274 53 156 q 192 546 53 438 q 400 624 293 624 l 401 624 q 525 588 481 624 q 547 544 547 568 q 531 504 547 524 q 501 485 514 485 q 475 500 492 485 q 336 557 414 557 q 214 498 264 557 q 164 335 164 439 q 231 142 164 206 q 374 78 299 78 q 543 154 461 78 m 494 706 l 461 682 q 339 817 400 740 q 217 682 279 740 l 183 706 q 322 932 261 817 l 357 932 q 494 706 422 808 z "},"Ċ":{"ha":924,"x_min":61,"x_max":893,"o":"m 853 244 l 893 229 q 814 17 847 76 q 558 -21 664 -21 q 335 19 433 -21 q 179 126 238 60 q 91 273 121 193 q 61 439 61 353 q 211 790 61 656 q 596 924 361 924 q 695 917 646 924 q 791 898 744 910 q 842 886 838 886 q 869 676 863 733 l 828 667 q 737 825 801 776 q 558 874 672 874 q 298 754 393 874 q 203 467 203 635 q 305 151 203 272 q 567 29 407 29 q 733 81 668 29 q 853 244 797 133 m 554 1126 l 556 1126 q 605 1105 585 1126 q 625 1053 625 1083 q 605 1002 625 1022 q 554 982 585 982 q 503 1002 524 982 q 483 1053 483 1022 q 503 1106 483 1085 q 554 1126 524 1126 z "},"ċ":{"ha":588,"x_min":53,"x_max":567,"o":"m 543 154 l 567 125 q 455 23 519 63 q 331 -17 390 -17 q 128 69 204 -17 q 53 274 53 156 q 192 546 53 438 q 400 624 293 624 l 401 624 q 525 588 481 624 q 547 544 547 568 q 531 504 547 524 q 501 485 514 485 q 475 500 492 485 q 336 557 414 557 q 214 498 264 557 q 164 335 164 439 q 231 142 164 206 q 374 78 299 78 q 543 154 461 78 m 336 747 q 288 768 308 747 q 267 817 267 789 q 288 869 267 847 q 338 890 308 890 q 386 869 367 890 q 406 817 406 849 q 385 767 406 788 q 336 747 365 747 z "},"Č":{"ha":924,"x_min":61,"x_max":893,"o":"m 853 244 l 893 229 q 814 17 847 76 q 558 -21 664 -21 q 335 19 433 -21 q 179 126 238 60 q 91 273 121 193 q 61 439 61 353 q 211 790 61 656 q 596 924 361 924 q 695 917 646 924 q 791 898 744 910 q 842 886 838 886 q 869 676 863 733 l 828 667 q 737 825 801 776 q 558 874 672 874 q 298 754 393 874 q 203 467 203 635 q 305 151 203 272 q 567 29 407 29 q 733 81 668 29 q 853 244 797 133 m 719 1161 l 740 1125 q 567 976 631 1043 l 536 976 q 361 1125 481 1033 l 382 1161 q 551 1075 479 1118 q 719 1161 626 1119 z "},"č":{"ha":588,"x_min":53,"x_max":567,"o":"m 543 154 l 567 125 q 455 23 519 63 q 331 -17 390 -17 q 128 69 204 -17 q 53 274 53 156 q 192 546 53 438 q 400 624 293 624 l 401 624 q 525 588 481 624 q 547 544 547 568 q 531 504 547 524 q 501 485 514 485 q 475 500 492 485 q 336 557 414 557 q 214 498 264 557 q 164 335 164 439 q 231 142 164 206 q 374 78 299 78 q 543 154 461 78 m 467 938 l 500 914 q 361 688 428 814 l 326 688 q 188 914 261 810 l 222 938 q 343 803 293 869 q 467 938 418 892 z "},"Ď":{"ha":1021,"x_min":46,"x_max":958,"o":"m 58 903 l 449 903 q 842 785 718 903 q 958 486 958 671 q 788 115 958 244 q 375 0 639 0 l 46 0 l 46 38 q 156 65 136 44 q 176 172 176 85 l 176 729 q 168 816 176 792 q 138 849 160 840 q 58 863 117 858 l 58 903 m 296 760 l 296 182 q 330 78 296 106 q 443 50 364 50 q 725 169 628 50 q 822 467 822 288 q 781 665 822 578 q 658 799 739 751 q 422 856 569 856 q 314 839 338 856 q 296 760 296 826 m 644 1140 l 665 1104 q 492 956 556 1022 l 461 956 q 286 1104 406 1013 l 307 1140 q 476 1054 404 1097 q 644 1140 551 1099 z "},"ď":{"ha":733,"x_min":53,"x_max":819,"o":"m 718 71 l 718 36 q 503 -17 578 11 l 503 74 l 418 24 q 310 -17 350 -17 q 134 64 215 -17 q 53 279 53 144 q 160 523 53 422 q 411 624 268 624 q 503 608 458 624 l 503 804 q 487 887 503 872 q 396 907 471 901 l 396 940 q 613 989 522 957 l 613 160 q 623 93 613 107 q 674 75 633 79 l 718 71 m 503 118 l 503 501 q 360 572 454 572 q 304 560 333 572 q 246 521 275 547 q 198 441 217 494 q 179 317 179 388 q 238 136 179 201 q 369 71 296 71 q 503 118 440 71 m 735 988 l 736 988 q 795 956 771 988 q 819 878 819 925 q 699 732 819 768 l 685 769 q 749 849 749 803 q 704 903 749 886 q 685 938 685 910 q 699 974 685 961 q 735 988 714 988 z "},"Đ":{"ha":1024,"x_min":51,"x_max":961,"o":"m 75 903 l 457 903 q 842 783 718 903 q 961 486 961 671 q 788 115 961 244 q 382 0 635 0 l 63 0 l 63 39 q 173 69 153 46 q 193 190 193 92 l 193 444 l 51 444 l 51 501 l 193 501 l 193 713 q 185 811 193 783 q 155 849 176 839 q 75 864 133 860 l 75 903 m 311 444 l 311 183 q 338 81 311 110 q 446 51 364 51 q 726 169 631 51 q 822 465 822 286 q 663 801 822 701 q 438 857 576 857 q 329 843 354 857 q 311 783 311 833 l 311 501 l 531 501 l 531 444 l 311 444 z "},"đ":{"ha":731,"x_min":51,"x_max":718,"o":"m 718 71 l 718 36 q 503 -17 576 10 l 503 75 l 415 24 q 310 -17 347 -17 q 134 65 215 -17 q 51 281 53 146 q 158 522 51 421 q 408 624 265 624 q 503 607 458 624 l 503 740 l 318 740 l 318 792 l 501 792 l 501 821 q 485 890 500 878 q 400 910 471 903 l 400 942 q 611 990 504 956 l 611 792 l 717 792 l 717 740 l 611 740 l 611 161 q 622 92 611 107 q 674 75 633 78 l 718 71 m 503 118 l 503 501 q 438 555 478 536 q 361 574 399 574 q 308 562 336 574 q 249 524 279 550 q 198 443 218 497 q 178 317 178 389 q 236 135 178 200 q 369 69 294 69 q 503 118 432 69 z "},"Ē":{"ha":789,"x_min":40,"x_max":758,"o":"m 717 225 l 758 219 q 710 0 733 81 l 40 0 l 40 39 q 156 67 135 46 q 178 172 178 88 l 178 725 q 160 837 178 817 q 58 864 142 857 l 58 903 l 678 903 q 689 703 678 892 l 649 696 q 604 815 633 765 q 556 846 589 838 q 447 854 522 854 l 342 854 q 303 848 310 854 q 296 810 296 842 l 296 494 l 426 494 q 540 510 518 494 q 576 599 563 526 l 617 599 l 617 332 l 576 332 q 540 424 563 407 q 428 440 518 440 l 296 440 l 296 178 q 329 65 296 89 q 474 47 358 47 q 589 57 553 47 q 649 94 625 67 q 717 225 690 143 m 572 994 l 261 994 l 261 1067 l 572 1067 l 572 994 z "},"ē":{"ha":590,"x_min":51,"x_max":556,"o":"m 526 147 l 549 118 q 428 14 490 44 q 322 -17 365 -17 q 125 69 199 -17 q 51 279 51 156 q 143 522 51 422 q 346 624 233 624 l 347 624 q 494 560 432 624 q 556 413 556 496 q 524 368 556 375 q 161 344 443 354 q 224 145 163 213 q 368 78 286 78 q 526 147 453 78 m 314 572 l 313 572 q 224 528 264 572 q 168 401 183 483 q 403 406 282 401 q 436 433 436 406 q 403 531 438 490 q 314 572 369 572 m 471 761 l 167 761 l 167 838 l 471 838 l 471 761 z "},"Ĕ":{"ha":789,"x_min":40,"x_max":758,"o":"m 717 225 l 758 219 q 710 0 733 81 l 40 0 l 40 39 q 156 67 135 46 q 178 172 178 88 l 178 725 q 160 837 178 817 q 58 864 142 857 l 58 903 l 678 903 q 689 703 678 892 l 649 696 q 604 815 633 765 q 556 846 589 838 q 447 854 522 854 l 342 854 q 303 848 310 854 q 296 810 296 842 l 296 494 l 426 494 q 540 510 518 494 q 576 599 563 526 l 617 599 l 617 332 l 576 332 q 540 424 563 407 q 428 440 518 440 l 296 440 l 296 178 q 329 65 296 89 q 474 47 358 47 q 589 57 553 47 q 649 94 625 67 q 717 225 690 143 m 536 1129 l 578 1129 q 533 1007 576 1049 q 415 965 489 965 q 298 1007 342 965 q 253 1129 254 1049 l 294 1129 q 415 1044 317 1044 q 536 1129 514 1044 z "},"ĕ":{"ha":590,"x_min":51,"x_max":556,"o":"m 526 147 l 549 118 q 428 14 490 44 q 322 -17 365 -17 q 125 69 199 -17 q 51 279 51 156 q 143 522 51 422 q 346 624 233 624 l 347 624 q 494 560 432 624 q 556 413 556 496 q 524 368 556 375 q 161 344 443 354 q 224 145 163 213 q 368 78 286 78 q 526 147 453 78 m 314 572 l 313 572 q 224 528 264 572 q 168 401 183 483 q 403 406 282 401 q 436 433 436 406 q 403 531 438 490 q 314 572 369 572 m 435 900 l 476 900 q 433 754 476 799 q 321 710 390 710 q 210 754 253 710 q 168 900 168 799 l 210 900 q 322 790 225 790 q 435 900 419 790 z "},"Ė":{"ha":789,"x_min":40,"x_max":758,"o":"m 717 225 l 758 219 q 710 0 733 81 l 40 0 l 40 39 q 156 67 135 46 q 178 172 178 88 l 178 725 q 160 837 178 817 q 58 864 142 857 l 58 903 l 678 903 q 689 703 678 892 l 649 696 q 604 815 633 765 q 556 846 589 838 q 447 854 522 854 l 342 854 q 303 848 310 854 q 296 810 296 842 l 296 494 l 426 494 q 540 510 518 494 q 576 599 563 526 l 617 599 l 617 332 l 576 332 q 540 424 563 407 q 428 440 518 440 l 296 440 l 296 178 q 329 65 296 89 q 474 47 358 47 q 589 57 553 47 q 649 94 625 67 q 717 225 690 143 m 414 1121 l 415 1121 q 465 1099 444 1121 q 485 1047 485 1078 q 465 997 485 1017 q 414 976 444 976 q 363 997 383 976 q 343 1047 343 1017 q 363 1100 343 1079 q 414 1121 383 1121 z "},"ė":{"ha":590,"x_min":51,"x_max":556,"o":"m 526 147 l 549 118 q 428 14 490 44 q 322 -17 365 -17 q 125 69 199 -17 q 51 279 51 156 q 143 522 51 422 q 346 624 233 624 l 347 624 q 494 560 432 624 q 556 413 556 496 q 524 368 556 375 q 161 344 443 354 q 224 145 163 213 q 368 78 286 78 q 526 147 453 78 m 314 572 l 313 572 q 224 528 264 572 q 168 401 183 483 q 403 406 282 401 q 436 433 436 406 q 403 531 438 490 q 314 572 369 572 m 317 747 q 268 768 289 747 q 247 817 247 789 q 268 869 247 847 q 318 890 289 890 q 367 869 347 890 q 386 817 386 849 q 366 767 386 788 q 317 747 346 747 z "},"Ę":{"ha":789,"x_min":40,"x_max":758,"o":"m 718 226 l 758 219 q 710 0 733 81 l 658 0 q 577 -94 608 -42 q 546 -186 546 -147 q 615 -249 546 -249 q 681 -233 649 -249 l 692 -269 l 618 -314 q 567 -329 594 -329 q 478 -301 507 -329 q 450 -226 450 -272 q 494 -114 450 -175 q 603 0 538 -53 l 40 0 l 40 39 q 157 67 136 46 q 178 178 178 89 l 178 721 q 159 835 178 814 q 58 864 140 857 l 58 903 l 675 903 q 689 703 676 863 l 649 697 q 599 818 629 782 q 547 847 579 839 q 442 854 515 854 l 342 854 q 303 847 310 854 q 296 810 296 840 l 296 499 l 431 499 q 543 513 524 499 q 576 597 563 526 l 617 597 l 617 339 l 576 339 q 542 427 563 413 q 432 442 522 442 l 296 442 l 296 182 q 329 65 296 89 q 474 47 358 47 q 588 58 549 47 q 650 96 626 69 q 718 226 678 131 z "},"ę":{"ha":589,"x_min":50,"x_max":556,"o":"m 368 -10 l 367 -6 q 321 -17 333 -17 q 124 69 197 -17 q 50 279 50 156 q 140 519 50 422 q 344 624 233 624 l 346 624 q 493 559 431 624 q 556 413 556 494 q 549 381 556 390 q 524 367 543 371 q 160 344 458 354 q 223 144 161 213 q 367 76 285 76 q 526 147 451 76 l 549 118 q 475 44 511 74 q 369 -69 417 -4 q 322 -185 322 -135 q 340 -230 322 -214 q 388 -246 358 -246 q 458 -228 419 -246 l 469 -261 l 393 -310 q 342 -325 369 -325 q 256 -295 285 -325 q 226 -225 226 -265 q 368 -10 226 -126 m 313 574 l 311 574 q 220 528 261 574 q 167 401 179 482 q 241 402 201 401 q 328 404 281 403 q 404 406 376 406 q 429 411 422 406 q 436 431 436 417 q 403 531 438 488 q 313 574 368 574 z "},"Ě":{"ha":789,"x_min":40,"x_max":758,"o":"m 717 225 l 758 219 q 710 0 733 81 l 40 0 l 40 39 q 156 67 135 46 q 178 172 178 88 l 178 725 q 160 837 178 817 q 58 864 142 857 l 58 903 l 678 903 q 689 703 678 892 l 649 696 q 604 815 633 765 q 556 846 589 838 q 447 854 522 854 l 342 854 q 303 848 310 854 q 296 810 296 842 l 296 494 l 426 494 q 540 510 518 494 q 576 599 563 526 l 617 599 l 617 332 l 576 332 q 540 424 563 407 q 428 440 518 440 l 296 440 l 296 178 q 329 65 296 89 q 474 47 358 47 q 589 57 553 47 q 649 94 625 67 q 717 225 690 143 m 578 1142 l 599 1106 q 425 957 489 1024 l 394 957 q 219 1106 339 1014 l 240 1142 q 410 1056 338 1099 q 578 1142 485 1100 z "},"ě":{"ha":590,"x_min":51,"x_max":556,"o":"m 526 147 l 549 118 q 428 14 490 44 q 322 -17 365 -17 q 125 69 199 -17 q 51 279 51 156 q 143 522 51 422 q 346 624 233 624 l 347 624 q 494 560 432 624 q 556 413 556 496 q 524 368 556 375 q 161 344 443 354 q 224 145 163 213 q 368 78 286 78 q 526 147 453 78 m 314 572 l 313 572 q 224 528 264 572 q 168 401 183 483 q 403 406 282 401 q 436 433 436 406 q 403 531 438 490 q 314 572 369 572 m 442 938 l 475 914 q 336 688 403 814 l 301 688 q 163 914 236 810 l 197 938 q 318 803 268 869 q 442 938 393 892 z "},"Ĝ":{"ha":993,"x_min":61,"x_max":961,"o":"m 961 418 l 961 381 q 885 356 899 371 q 872 279 872 340 l 872 161 q 882 31 872 75 q 571 -21 669 -21 q 202 108 343 -21 q 61 444 61 238 q 106 655 61 561 q 225 806 150 749 q 394 893 300 863 q 592 924 488 924 q 658 921 624 924 q 724 913 692 918 q 777 902 756 907 q 826 891 799 897 q 858 883 853 885 q 881 667 868 769 l 842 658 q 749 826 818 778 q 571 874 679 874 q 306 762 408 874 q 203 461 203 650 q 226 308 203 383 q 295 169 250 233 q 417 67 340 106 q 589 28 493 28 q 710 53 660 28 q 744 84 733 65 q 754 143 754 103 l 754 261 q 732 354 754 336 q 608 381 710 372 l 608 418 l 961 418 m 746 994 l 724 960 q 556 1046 649 993 q 390 960 446 983 l 367 994 q 542 1143 492 1090 l 572 1143 q 746 994 626 1086 z "},"ĝ":{"ha":650,"x_min":40,"x_max":650,"o":"m 642 608 l 650 597 q 588 526 619 542 l 508 531 q 550 407 550 482 q 477 243 550 301 q 307 185 404 185 q 236 192 292 185 q 194 135 194 165 q 216 96 194 111 q 282 81 238 81 q 356 81 307 81 q 428 82 406 82 q 519 71 478 82 q 594 21 560 60 q 628 -82 628 -18 q 523 -272 628 -187 q 281 -357 418 -357 q 107 -305 172 -357 q 40 -187 42 -253 q 74 -110 40 -143 q 189 -12 117 -67 q 86 64 121 8 q 71 122 68 94 q 193 207 149 151 q 106 278 142 229 q 71 393 71 326 q 149 563 71 503 q 318 624 226 624 l 319 624 q 453 589 390 624 q 642 608 549 593 m 306 582 l 304 582 q 224 538 257 582 q 190 415 190 493 q 226 281 190 333 q 321 229 263 229 q 403 274 369 231 q 436 394 436 317 q 400 530 436 478 q 306 582 364 582 m 336 -15 l 335 -15 q 214 -46 249 -15 q 150 -154 150 -97 q 203 -248 150 -210 q 333 -286 256 -286 q 481 -243 429 -286 q 533 -132 533 -200 q 469 -33 533 -60 q 336 -15 425 -15 m 467 706 l 433 682 q 311 817 372 740 q 189 682 251 740 l 156 706 q 294 932 233 817 l 329 932 q 467 706 394 808 z "},"Ğ":{"ha":993,"x_min":61,"x_max":961,"o":"m 961 418 l 961 381 q 885 356 899 371 q 872 279 872 340 l 872 161 q 882 31 872 75 q 571 -21 669 -21 q 202 108 343 -21 q 61 444 61 238 q 106 655 61 561 q 225 806 150 749 q 394 893 300 863 q 592 924 488 924 q 658 921 624 924 q 724 913 692 918 q 777 902 756 907 q 826 891 799 897 q 858 883 853 885 q 881 667 868 769 l 842 658 q 749 826 818 778 q 571 874 679 874 q 306 762 408 874 q 203 461 203 650 q 226 308 203 383 q 295 169 250 233 q 417 67 340 106 q 589 28 493 28 q 710 53 660 28 q 744 84 733 65 q 754 143 754 103 l 754 261 q 732 354 754 336 q 608 381 710 372 l 608 418 l 961 418 m 665 1140 l 707 1140 q 662 1018 706 1060 q 544 976 618 976 q 427 1018 471 976 q 382 1140 383 1060 l 424 1140 q 544 1056 446 1056 q 665 1140 643 1056 z "},"ğ":{"ha":650,"x_min":40,"x_max":650,"o":"m 642 608 l 650 597 q 588 526 619 542 l 508 531 q 550 407 550 482 q 477 243 550 301 q 307 185 404 185 q 236 192 292 185 q 194 135 194 165 q 216 96 194 111 q 282 81 238 81 q 356 81 307 81 q 428 82 406 82 q 519 71 478 82 q 594 21 560 60 q 628 -82 628 -18 q 523 -272 628 -187 q 281 -357 418 -357 q 107 -305 172 -357 q 40 -187 42 -253 q 74 -110 40 -143 q 189 -12 117 -67 q 86 64 121 8 q 71 122 68 94 q 193 207 149 151 q 106 278 142 229 q 71 393 71 326 q 149 563 71 503 q 318 624 226 624 l 319 624 q 453 589 390 624 q 642 608 549 593 m 306 582 l 304 582 q 224 538 257 582 q 190 415 190 493 q 226 281 190 333 q 321 229 263 229 q 403 274 369 231 q 436 394 436 317 q 400 530 436 478 q 306 582 364 582 m 336 -15 l 335 -15 q 214 -46 249 -15 q 150 -154 150 -97 q 203 -248 150 -210 q 333 -286 256 -286 q 481 -243 429 -286 q 533 -132 533 -200 q 469 -33 533 -60 q 336 -15 425 -15 m 424 900 l 465 900 q 422 754 465 799 q 310 710 379 710 q 199 754 242 710 q 157 900 157 799 l 199 900 q 311 790 214 790 q 424 900 408 790 z "},"Ġ":{"ha":993,"x_min":61,"x_max":961,"o":"m 961 418 l 961 381 q 885 356 899 371 q 872 279 872 340 l 872 161 q 882 31 872 75 q 571 -21 669 -21 q 202 108 343 -21 q 61 444 61 238 q 106 655 61 561 q 225 806 150 749 q 394 893 300 863 q 592 924 488 924 q 658 921 624 924 q 724 913 692 918 q 777 902 756 907 q 826 891 799 897 q 858 883 853 885 q 881 667 868 769 l 842 658 q 749 826 818 778 q 571 874 679 874 q 306 762 408 874 q 203 461 203 650 q 226 308 203 383 q 295 169 250 233 q 417 67 340 106 q 589 28 493 28 q 710 53 660 28 q 744 84 733 65 q 754 143 754 103 l 754 261 q 732 354 754 336 q 608 381 710 372 l 608 418 l 961 418 m 554 1124 l 556 1124 q 605 1102 585 1124 q 625 1050 625 1081 q 605 999 625 1019 q 554 979 585 979 q 503 999 524 979 q 483 1050 483 1019 q 503 1103 483 1082 q 554 1124 524 1124 z "},"ġ":{"ha":650,"x_min":40,"x_max":650,"o":"m 642 608 l 650 597 q 588 526 619 542 l 508 531 q 550 407 550 482 q 477 243 550 301 q 307 185 404 185 q 236 192 292 185 q 194 135 194 165 q 216 96 194 111 q 282 81 238 81 q 356 81 307 81 q 428 82 406 82 q 519 71 478 82 q 594 21 560 60 q 628 -82 628 -18 q 523 -272 628 -187 q 281 -357 418 -357 q 107 -305 172 -357 q 40 -187 42 -253 q 74 -110 40 -143 q 189 -12 117 -67 q 86 64 121 8 q 71 122 68 94 q 193 207 149 151 q 106 278 142 229 q 71 393 71 326 q 149 563 71 503 q 318 624 226 624 l 319 624 q 453 589 390 624 q 642 608 549 593 m 306 582 l 304 582 q 224 538 257 582 q 190 415 190 493 q 226 281 190 333 q 321 229 263 229 q 403 274 369 231 q 436 394 436 317 q 400 530 436 478 q 306 582 364 582 m 336 -15 l 335 -15 q 214 -46 249 -15 q 150 -154 150 -97 q 203 -248 150 -210 q 333 -286 256 -286 q 481 -243 429 -286 q 533 -132 533 -200 q 469 -33 533 -60 q 336 -15 425 -15 m 311 747 q 263 768 283 747 q 242 817 242 789 q 263 869 242 847 q 313 890 283 890 q 361 869 342 890 q 381 817 381 849 q 360 767 381 788 q 311 747 340 747 z "},"Ģ":{"ha":993,"x_min":61,"x_max":961,"o":"m 961 418 l 961 381 q 885 356 899 371 q 872 279 872 340 l 872 161 q 882 31 872 75 q 571 -21 669 -21 q 202 108 343 -21 q 61 444 61 238 q 106 655 61 561 q 225 806 150 749 q 394 893 300 863 q 592 924 488 924 q 658 921 624 924 q 724 913 692 918 q 777 902 756 907 q 826 891 799 897 q 858 883 853 885 q 881 667 868 769 l 842 658 q 749 826 818 778 q 571 874 679 874 q 306 762 408 874 q 203 461 203 650 q 226 308 203 383 q 295 169 250 233 q 417 67 340 106 q 589 28 493 28 q 710 53 660 28 q 744 84 733 65 q 754 143 754 103 l 754 261 q 732 354 754 336 q 608 381 710 372 l 608 418 l 961 418 m 547 -65 l 549 -65 q 619 -96 589 -65 q 650 -174 650 -126 q 503 -321 650 -285 l 489 -283 q 574 -206 574 -247 q 511 -149 574 -164 q 490 -115 490 -143 q 508 -78 490 -92 q 547 -65 525 -65 z "},"ģ":{"ha":650,"x_min":40,"x_max":650,"o":"m 642 608 l 650 597 q 588 526 619 542 l 508 531 q 550 407 550 482 q 477 243 550 301 q 307 185 404 185 q 236 192 292 185 q 194 135 194 165 q 216 96 194 111 q 282 81 238 81 q 356 81 307 81 q 428 82 406 82 q 519 71 478 82 q 594 21 560 60 q 628 -82 628 -18 q 523 -272 628 -187 q 281 -357 418 -357 q 107 -305 172 -357 q 40 -187 42 -253 q 74 -110 40 -143 q 189 -12 117 -67 q 86 64 121 8 q 71 122 68 94 q 193 207 149 151 q 106 278 142 229 q 71 393 71 326 q 149 563 71 503 q 318 624 226 624 l 319 624 q 453 589 390 624 q 642 608 549 593 m 306 582 l 304 582 q 224 538 257 582 q 190 415 190 493 q 226 281 190 333 q 321 229 263 229 q 403 274 369 231 q 436 394 436 317 q 400 530 436 478 q 306 582 364 582 m 336 -15 l 335 -15 q 214 -46 249 -15 q 150 -154 150 -97 q 203 -248 150 -210 q 333 -286 256 -286 q 481 -243 429 -286 q 533 -132 533 -200 q 469 -33 533 -60 q 336 -15 425 -15 m 329 719 l 328 719 q 256 751 286 719 q 225 831 225 782 q 375 978 225 939 l 386 939 q 303 860 303 904 q 367 804 303 819 q 386 771 386 799 q 369 733 386 747 q 329 719 351 719 z "},"Ĥ":{"ha":1064,"x_min":53,"x_max":1013,"o":"m 1013 903 l 1013 864 q 907 837 926 857 q 888 732 888 817 l 888 171 q 906 65 888 85 q 1011 39 925 46 l 1011 0 l 639 0 l 639 39 q 749 65 729 46 q 769 171 769 85 l 769 449 l 296 449 l 296 171 q 315 65 296 85 q 421 39 335 46 l 421 0 l 56 0 l 56 39 q 159 65 140 46 q 178 171 178 85 l 178 732 q 159 838 178 818 q 53 864 140 857 l 53 903 l 413 903 l 413 864 q 314 837 332 857 q 296 732 296 817 l 296 507 l 769 507 l 769 732 q 751 837 769 817 q 650 864 732 857 l 650 903 l 1013 903 m 721 985 l 699 950 q 531 1036 624 983 q 365 950 421 974 l 342 985 q 517 1133 467 1081 l 547 1133 q 721 985 601 1076 z "},"ĥ":{"ha":742,"x_min":-28,"x_max":713,"o":"m 713 0 l 419 0 l 419 36 q 496 60 481 43 q 511 143 511 76 l 511 374 q 375 544 511 544 q 231 474 293 544 l 231 143 q 244 59 231 76 q 319 36 258 42 l 319 0 l 25 0 l 26 36 q 106 58 90 42 q 121 143 121 75 l 121 806 q 108 888 121 872 q 26 908 94 903 l 26 940 q 231 989 114 953 l 231 522 q 429 624 329 624 q 569 566 518 625 q 621 386 621 507 l 621 143 q 635 58 621 75 q 713 36 650 42 l 713 0 m 351 1038 l 329 1003 q 161 1089 254 1036 q -4 1003 51 1026 l -28 1038 q 147 1186 97 1133 l 178 1186 q 351 1038 232 1129 z "},"Ħ":{"ha":1064,"x_min":53,"x_max":1013,"o":"m 1010 656 l 888 656 l 888 179 q 907 67 888 89 q 1011 39 926 46 l 1011 0 l 639 0 l 639 39 q 749 67 728 46 q 769 179 769 89 l 769 431 l 296 431 l 296 179 q 315 67 296 89 q 421 39 335 46 l 421 0 l 56 0 l 56 39 q 122 47 101 42 q 158 67 143 51 q 175 106 172 83 q 178 179 178 129 l 178 656 l 56 656 l 56 706 l 178 706 l 178 731 q 158 838 178 818 q 53 864 139 857 l 53 903 l 413 903 l 413 864 q 314 838 332 857 q 296 731 296 818 l 296 706 l 769 706 l 769 731 q 751 838 769 818 q 650 864 733 857 l 650 903 l 1013 903 l 1013 864 q 907 837 926 857 q 888 731 888 817 l 888 706 l 1010 706 l 1010 656 m 769 489 l 769 656 l 296 656 l 296 489 l 769 489 z "},"ħ":{"ha":740,"x_min":25,"x_max":713,"o":"m 713 0 l 421 0 l 421 36 q 497 59 482 42 q 511 144 511 76 l 511 375 q 376 544 511 544 q 231 472 288 544 l 231 146 q 245 60 231 78 q 319 36 260 42 l 319 0 l 28 0 l 28 36 q 105 60 89 42 q 121 147 121 78 l 121 744 l 25 744 l 25 794 l 121 794 l 121 867 q 110 909 121 900 q 58 924 100 918 l 58 957 q 231 996 129 965 l 231 794 l 446 794 l 446 744 l 231 744 l 231 522 q 431 624 322 622 q 569 568 518 626 q 621 394 621 510 l 621 144 q 636 59 621 76 q 713 36 651 42 l 713 0 z "},"Ĩ":{"ha":474,"x_min":53,"x_max":425,"o":"m 421 0 l 53 0 l 53 39 q 158 66 139 46 q 178 174 178 86 l 178 729 q 158 837 178 817 q 53 864 139 857 l 53 903 l 421 903 l 421 864 q 315 837 335 857 q 296 729 296 817 l 296 174 q 315 65 296 85 q 421 39 335 46 l 421 0 m 165 1094 l 167 1094 q 250 1068 196 1094 q 326 1046 299 1046 q 390 1106 363 1046 l 425 1086 q 311 968 386 968 q 214 999 278 968 q 153 1018 175 1018 q 86 957 119 1018 l 53 981 q 165 1094 99 1094 z "},"ĩ":{"ha":372,"x_min":7,"x_max":368,"o":"m 350 0 l 46 0 l 46 36 q 128 61 113 43 q 143 150 143 79 l 143 428 q 130 513 143 497 q 56 539 117 529 l 56 572 q 253 626 163 589 l 253 150 q 268 60 253 78 q 350 36 283 43 l 350 0 m 43 724 l 7 746 q 118 871 47 871 q 199 844 147 871 q 272 818 251 818 q 333 881 306 818 l 368 861 q 258 736 331 736 q 167 769 226 736 q 103 790 129 790 q 43 724 69 790 z "},"Ī":{"ha":474,"x_min":53,"x_max":421,"o":"m 421 0 l 53 0 l 53 39 q 158 66 139 46 q 178 174 178 86 l 178 729 q 158 837 178 817 q 53 864 139 857 l 53 903 l 421 903 l 421 864 q 315 837 335 857 q 296 729 296 817 l 296 174 q 315 65 296 85 q 421 39 335 46 l 421 0 m 393 994 l 82 994 l 82 1067 l 393 1067 l 393 994 z "},"ī":{"ha":372,"x_min":29,"x_max":350,"o":"m 350 0 l 46 0 l 46 36 q 128 61 113 43 q 143 150 143 79 l 143 428 q 130 513 143 497 q 56 539 117 529 l 56 572 q 253 626 163 589 l 253 150 q 268 60 253 78 q 350 36 283 43 l 350 0 m 333 761 l 29 761 l 29 838 l 333 838 l 333 761 z "},"Ĭ":{"ha":474,"x_min":53,"x_max":421,"o":"m 421 0 l 53 0 l 53 39 q 158 66 139 46 q 178 174 178 86 l 178 729 q 158 837 178 817 q 53 864 139 857 l 53 903 l 421 903 l 421 864 q 315 837 335 857 q 296 729 296 817 l 296 174 q 315 65 296 85 q 421 39 335 46 l 421 0 m 358 1129 l 400 1129 q 355 1007 399 1049 q 238 965 311 965 q 120 1007 164 965 q 75 1129 76 1049 l 117 1129 q 238 1044 139 1044 q 358 1129 336 1044 z "},"ĭ":{"ha":372,"x_min":26,"x_max":350,"o":"m 350 0 l 46 0 l 46 36 q 128 61 113 43 q 143 150 143 79 l 143 428 q 130 513 143 497 q 56 539 117 529 l 56 572 q 253 626 163 589 l 253 150 q 268 60 253 78 q 350 36 283 43 l 350 0 m 293 900 l 335 900 q 292 754 335 799 q 179 710 249 710 q 69 754 111 710 q 26 900 26 799 l 68 900 q 181 790 83 790 q 293 900 278 790 z "},"Į":{"ha":474,"x_min":53,"x_max":421,"o":"m 421 0 l 263 0 q 214 -172 214 -103 q 237 -229 214 -208 q 296 -250 260 -250 q 364 -232 325 -250 l 375 -267 l 297 -314 q 243 -329 272 -329 q 151 -297 182 -329 q 121 -217 121 -264 q 124 -188 121 -203 q 129 -162 126 -174 q 140 -133 132 -150 q 152 -106 149 -115 q 167 -78 156 -97 q 183 -53 179 -58 q 200 -25 186 -47 q 215 0 214 -3 l 53 0 l 53 38 q 158 65 139 44 q 178 176 178 86 l 178 725 q 158 837 178 815 q 53 865 139 858 l 53 903 l 421 903 l 421 865 q 315 837 335 858 q 296 725 296 815 l 296 176 q 315 66 296 88 q 421 38 335 44 l 421 0 z "},"į":{"ha":372,"x_min":44,"x_max":350,"o":"m 350 0 l 221 0 q 172 -165 172 -97 q 250 -244 172 -244 q 313 -231 274 -244 l 324 -265 l 253 -307 q 203 -324 228 -324 q 114 -294 144 -324 q 83 -211 83 -264 q 175 0 83 -136 l 44 0 l 44 36 q 126 60 111 43 q 142 149 142 78 l 142 428 q 128 513 142 497 q 54 539 115 529 l 54 572 q 251 626 161 589 l 251 149 q 267 60 251 78 q 350 36 283 43 l 350 0 m 189 747 q 140 768 161 747 q 119 817 119 789 q 140 869 119 847 q 190 890 161 890 q 239 869 219 890 q 258 817 258 849 q 238 767 258 788 q 189 747 218 747 z "},"İ":{"ha":474,"x_min":53,"x_max":421,"o":"m 421 0 l 53 0 l 53 39 q 158 66 139 46 q 178 174 178 86 l 178 729 q 158 837 178 817 q 53 864 139 857 l 53 903 l 421 903 l 421 864 q 315 837 335 857 q 296 729 296 817 l 296 174 q 315 65 296 85 q 421 39 335 46 l 421 0 m 238 1121 l 239 1121 q 288 1099 268 1121 q 308 1047 308 1078 q 288 997 308 1017 q 238 976 268 976 q 187 997 207 976 q 167 1047 167 1017 q 187 1100 167 1079 q 238 1121 207 1121 z "},"ı":{"ha":372,"x_min":46,"x_max":350,"o":"m 350 0 l 46 0 l 46 36 q 128 61 113 43 q 143 150 143 79 l 143 428 q 130 513 143 497 q 56 539 117 529 l 56 572 q 253 626 163 589 l 253 150 q 268 60 253 78 q 350 36 283 43 l 350 0 z "},"Ĳ":{"ha":929,"x_min":53,"x_max":894,"o":"m 421 0 l 53 0 l 53 39 q 158 66 139 46 q 178 174 178 86 l 178 729 q 158 837 178 817 q 53 864 139 857 l 53 903 l 421 903 l 421 864 q 315 837 335 857 q 296 729 296 817 l 296 174 q 315 65 296 85 q 421 39 335 46 l 421 0 m 894 903 l 894 864 q 795 837 814 857 q 776 729 776 817 l 776 210 q 751 -6 776 74 q 657 -149 725 -86 q 528 -229 590 -210 l 510 -190 q 643 -8 621 -135 q 658 256 658 74 l 658 729 q 639 837 658 817 q 535 864 619 857 l 535 903 l 894 903 z "},"ĳ":{"ha":725,"x_min":44,"x_max":613,"o":"m 188 744 q 139 766 160 744 q 118 815 118 788 q 139 867 118 846 q 189 888 160 888 q 238 867 218 888 q 258 815 258 846 q 238 765 258 786 q 188 744 217 744 m 350 0 l 44 0 l 44 36 q 126 60 111 43 q 142 147 142 76 l 142 435 q 129 514 142 499 q 54 539 117 529 l 54 572 q 251 626 160 589 l 251 147 q 267 60 251 76 q 350 36 283 43 l 350 0 m 543 744 q 494 766 515 744 q 474 815 474 788 q 494 867 474 846 q 544 888 515 888 q 592 867 572 888 q 613 815 613 846 q 592 765 613 786 q 543 744 572 744 m 403 540 l 403 572 q 606 626 518 589 l 606 156 q 574 -69 606 19 q 492 -236 543 -161 q 406 -342 440 -311 q 371 -357 389 -357 q 338 -338 356 -357 q 321 -296 321 -319 q 350 -264 321 -269 q 450 -211 425 -244 q 485 -111 475 -181 q 497 157 497 -22 l 497 429 q 483 515 497 499 q 403 540 468 531 z "},"Ĵ":{"ha":457,"x_min":36,"x_max":429,"o":"m 421 903 l 421 864 q 322 837 340 857 q 303 729 303 817 l 303 210 q 277 -6 303 74 q 183 -149 251 -86 q 54 -229 117 -210 l 36 -190 q 169 -8 147 -135 q 185 256 185 74 l 185 729 q 165 837 185 817 q 61 864 146 857 l 61 903 l 421 903 m 429 985 l 407 950 q 239 1036 332 983 q 74 950 129 974 l 50 985 q 225 1133 175 1081 l 256 1133 q 429 985 310 1076 z "},"ĵ":{"ha":358,"x_min":-31,"x_max":333,"o":"m 46 544 l 46 572 q 253 626 167 590 l 253 154 q 221 -71 253 19 q 138 -238 189 -162 q 53 -343 86 -314 q 17 -358 31 -358 q -15 -341 1 -358 q -31 -300 -31 -324 q -3 -268 -31 -274 q 97 -214 71 -250 q 131 -112 121 -185 q 143 157 143 -25 l 143 429 q 128 518 143 501 q 46 544 114 535 m 333 706 l 300 682 q 178 817 239 740 q 56 682 118 740 l 22 706 q 161 932 100 817 l 196 932 q 333 706 261 808 z "},"Ķ":{"ha":935,"x_min":56,"x_max":926,"o":"m 926 0 l 713 0 q 368 404 681 36 q 293 443 329 450 l 293 179 q 314 67 293 89 q 421 39 335 46 l 421 0 l 60 0 l 60 39 q 159 67 140 46 q 178 179 178 89 l 178 722 q 175 797 178 774 q 157 837 172 821 q 122 856 142 853 q 56 864 101 860 l 56 903 l 414 903 l 414 864 q 313 835 332 857 q 293 722 293 814 l 293 479 q 390 543 333 490 q 624 789 543 690 q 651 840 654 826 q 600 860 647 854 l 569 864 l 569 903 l 903 903 l 903 864 q 783 838 824 857 q 676 760 743 819 q 431 517 608 697 q 757 139 592 317 q 842 64 811 82 q 926 39 874 46 l 926 0 m 503 -32 l 504 -32 q 575 -62 544 -32 q 606 -140 606 -93 q 458 -287 606 -251 l 444 -250 q 529 -172 529 -214 q 467 -115 529 -131 q 446 -82 446 -110 q 463 -45 446 -58 q 503 -32 481 -32 z "},"ķ":{"ha":689,"x_min":19,"x_max":713,"o":"m 713 0 l 522 -3 q 294 272 500 22 q 251 303 269 303 q 229 299 244 303 l 229 144 q 246 60 229 76 q 331 36 263 43 l 331 0 l 19 0 l 19 36 q 105 60 89 42 q 121 144 121 78 l 121 801 q 107 885 121 869 q 29 907 93 901 l 29 940 q 229 989 108 949 l 229 335 q 317 383 281 344 q 415 506 360 426 q 430 549 438 538 q 374 567 422 561 l 374 603 l 657 615 l 657 581 q 552 553 586 568 q 478 499 518 538 q 358 367 435 456 q 457 244 378 336 q 574 113 536 151 q 642 55 611 72 q 713 36 674 38 l 713 0 m 365 -46 l 367 -46 q 438 -76 407 -46 q 468 -154 468 -107 q 321 -301 468 -265 l 307 -264 q 392 -186 392 -228 q 329 -129 392 -144 q 308 -96 308 -124 q 326 -59 308 -72 q 365 -46 343 -46 z "},"ĸ":{"ha":729,"x_min":51,"x_max":722,"o":"m 722 0 l 533 0 q 319 264 458 82 q 257 285 292 300 l 257 149 q 273 60 257 78 q 354 36 289 42 l 354 0 l 51 0 l 51 36 q 133 59 117 42 q 149 149 149 76 l 149 447 q 133 533 149 515 q 54 558 118 551 l 54 593 q 257 628 151 600 l 257 325 q 326 360 294 332 q 469 508 419 443 q 453 567 508 558 l 429 571 l 429 607 l 703 607 l 703 571 q 617 552 650 565 q 542 503 585 539 q 385 356 489 460 q 594 107 492 210 q 657 55 633 68 q 722 36 681 42 l 722 0 z "},"Ĺ":{"ha":747,"x_min":50,"x_max":729,"o":"m 688 226 l 729 218 q 679 0 703 81 l 50 0 l 50 39 q 158 67 138 46 q 178 175 178 88 l 178 731 q 169 817 178 793 q 139 851 161 842 q 56 864 117 860 l 56 903 l 418 903 l 418 864 q 315 838 335 857 q 296 731 296 818 l 296 182 q 303 100 296 125 q 328 65 310 75 q 461 47 361 47 q 617 90 579 47 q 688 226 660 140 m 443 1050 l 440 1039 l 182 950 l 165 985 q 383 1126 217 1018 q 418 1095 396 1125 q 443 1050 440 1065 z "},"ĺ":{"ha":351,"x_min":21,"x_max":349,"o":"m 331 0 l 21 0 l 21 36 q 104 60 88 43 q 121 144 121 76 l 121 801 q 106 886 121 871 q 25 907 92 901 l 25 940 q 231 989 126 951 l 231 144 q 247 60 231 76 q 331 36 263 43 l 331 0 m 349 1114 l 346 1103 l 88 1014 l 71 1049 q 289 1190 122 1082 q 324 1159 301 1189 q 349 1114 346 1129 z "},"Ļ":{"ha":747,"x_min":50,"x_max":729,"o":"m 688 226 l 729 218 q 679 0 703 81 l 50 0 l 50 39 q 158 67 138 46 q 178 175 178 88 l 178 731 q 169 817 178 793 q 139 851 161 842 q 56 864 117 860 l 56 903 l 418 903 l 418 864 q 315 838 335 857 q 296 731 296 818 l 296 182 q 303 100 296 125 q 328 65 310 75 q 461 47 361 47 q 617 90 579 47 q 688 226 660 140 m 406 -49 l 407 -49 q 478 -79 447 -49 q 508 -157 508 -110 q 361 -304 508 -268 l 347 -267 q 432 -189 432 -231 q 369 -132 432 -147 q 349 -99 349 -126 q 366 -62 349 -75 q 406 -49 383 -49 z "},"ļ":{"ha":351,"x_min":21,"x_max":331,"o":"m 331 0 l 21 0 l 21 36 q 104 60 88 43 q 121 144 121 76 l 121 801 q 106 886 121 871 q 25 907 92 901 l 25 940 q 231 989 126 951 l 231 144 q 247 60 231 76 q 331 36 263 43 l 331 0 m 160 -49 l 161 -49 q 232 -79 201 -49 q 263 -157 263 -110 q 115 -304 263 -268 l 101 -267 q 186 -189 186 -231 q 124 -132 186 -147 q 103 -99 103 -126 q 120 -62 103 -75 q 160 -49 138 -49 z "},"Ľ":{"ha":747,"x_min":50,"x_max":729,"o":"m 688 226 l 729 218 q 679 0 703 81 l 50 0 l 50 39 q 158 67 138 46 q 178 175 178 88 l 178 731 q 169 817 178 793 q 139 851 161 842 q 56 864 117 860 l 56 903 l 418 903 l 418 864 q 315 838 335 857 q 296 731 296 818 l 296 182 q 303 100 296 125 q 328 65 310 75 q 461 47 361 47 q 617 90 579 47 q 688 226 660 140 m 533 910 l 535 910 q 594 878 569 910 q 618 800 618 847 q 497 654 618 690 l 483 692 q 547 771 547 725 q 503 825 547 808 q 483 860 483 832 q 498 897 483 883 q 533 910 513 910 z "},"ľ":{"ha":351,"x_min":21,"x_max":428,"o":"m 331 0 l 21 0 l 21 36 q 104 60 88 43 q 121 144 121 76 l 121 801 q 106 886 121 871 q 25 907 92 901 l 25 940 q 231 989 126 951 l 231 144 q 247 60 231 76 q 331 36 263 43 l 331 0 m 343 988 l 344 988 q 403 956 379 988 q 428 878 428 925 q 307 732 428 768 l 293 769 q 357 849 357 803 q 313 903 357 886 q 293 938 293 910 q 308 974 293 961 q 343 988 322 988 z "},"Ŀ":{"ha":747,"x_min":50,"x_max":729,"o":"m 688 226 l 729 218 q 679 0 703 81 l 50 0 l 50 39 q 158 67 138 46 q 178 175 178 88 l 178 731 q 169 817 178 793 q 139 851 161 842 q 56 864 117 860 l 56 903 l 418 903 l 418 864 q 315 838 335 857 q 296 731 296 818 l 296 182 q 303 100 296 125 q 328 65 310 75 q 461 47 361 47 q 617 90 579 47 q 688 226 660 140 m 501 564 l 503 564 q 552 542 532 564 q 572 490 572 521 q 552 440 572 460 q 501 419 532 419 q 451 440 471 419 q 431 490 431 460 q 451 543 431 522 q 501 564 471 564 z "},"ŀ":{"ha":376,"x_min":21,"x_max":432,"o":"m 364 565 l 365 565 q 413 545 393 565 q 432 494 432 525 q 413 445 432 465 q 364 425 393 425 q 316 445 336 425 q 296 494 296 465 q 316 544 296 524 q 364 565 336 565 m 331 0 l 21 0 l 21 36 q 104 60 88 43 q 121 144 121 76 l 121 801 q 106 886 121 871 q 25 907 92 901 l 25 940 q 231 989 126 951 l 231 144 q 247 60 231 76 q 331 36 263 43 l 331 0 z "},"Ł":{"ha":764,"x_min":58,"x_max":746,"o":"m 703 229 l 746 224 q 696 0 710 50 l 64 0 l 64 39 q 174 67 154 46 q 194 182 194 89 l 194 385 l 58 283 l 58 346 l 194 449 l 194 724 q 175 835 194 813 q 72 864 156 857 l 72 903 l 435 903 l 435 864 q 332 835 351 857 q 313 724 313 813 l 313 532 l 488 664 l 488 599 l 313 467 l 313 196 q 319 105 313 133 q 344 65 325 76 q 476 47 375 47 q 576 56 542 47 q 632 90 610 64 q 703 229 668 131 z "},"ł":{"ha":379,"x_min":38,"x_max":375,"o":"m 375 642 l 250 535 l 250 150 q 267 60 250 78 q 353 36 283 43 l 353 0 l 38 0 l 38 36 q 124 60 107 43 q 140 150 140 78 l 140 447 l 38 363 l 38 426 l 140 510 l 140 810 q 126 889 140 874 q 43 911 111 904 l 43 944 q 250 993 164 958 l 250 597 l 375 706 l 375 642 z "},"Ń":{"ha":1032,"x_min":28,"x_max":999,"o":"m 999 903 l 999 864 q 913 843 939 861 q 882 781 886 825 q 874 547 874 718 l 874 -12 l 831 -12 l 239 715 l 236 715 l 236 367 q 244 132 236 213 q 278 62 250 81 q 378 39 306 43 l 378 0 l 49 0 l 49 39 q 138 60 111 42 q 171 129 165 79 q 179 367 179 215 l 179 672 q 175 766 179 746 q 151 813 171 786 q 28 864 117 857 l 28 903 l 233 903 l 813 206 l 817 206 l 817 547 q 807 778 817 688 q 773 842 801 824 q 671 864 744 860 l 671 903 l 999 903 m 707 1050 l 704 1039 l 446 950 l 429 985 q 647 1126 481 1018 q 682 1095 660 1125 q 707 1050 704 1065 z "},"ń":{"ha":760,"x_min":40,"x_max":726,"o":"m 726 0 l 438 0 l 438 36 q 514 61 499 43 q 529 151 529 79 l 529 383 q 403 542 529 542 q 251 471 333 542 l 251 144 q 265 59 251 75 q 342 36 279 43 l 342 0 l 40 0 l 40 36 q 126 60 111 43 q 142 144 142 76 l 142 432 q 129 513 142 497 q 58 539 117 528 l 58 571 q 251 628 174 593 l 251 517 q 344 582 281 538 q 460 624 410 624 q 591 568 543 624 q 639 413 639 513 l 639 144 q 652 59 639 75 q 726 36 665 43 l 726 0 m 369 685 l 333 703 q 426 924 357 756 q 483 933 438 928 q 539 936 528 939 l 543 924 l 369 685 z "},"Ņ":{"ha":1032,"x_min":28,"x_max":999,"o":"m 999 903 l 999 864 q 913 843 939 861 q 882 781 886 825 q 874 547 874 718 l 874 -12 l 831 -12 l 239 715 l 236 715 l 236 367 q 244 132 236 213 q 278 62 250 81 q 378 39 306 43 l 378 0 l 49 0 l 49 39 q 138 60 111 42 q 171 129 165 79 q 179 367 179 215 l 179 672 q 175 766 179 746 q 151 813 171 786 q 28 864 117 857 l 28 903 l 233 903 l 813 206 l 817 206 l 817 547 q 807 778 817 688 q 773 842 801 824 q 671 864 744 860 l 671 903 l 999 903 m 533 -19 l 535 -19 q 606 -50 575 -19 q 636 -128 636 -81 q 489 -275 636 -239 l 475 -237 q 560 -160 560 -201 q 497 -103 560 -118 q 476 -69 476 -97 q 494 -33 476 -46 q 533 -19 511 -19 z "},"ņ":{"ha":760,"x_min":40,"x_max":726,"o":"m 726 0 l 438 0 l 438 36 q 514 61 499 43 q 529 151 529 79 l 529 383 q 403 542 529 542 q 251 471 333 542 l 251 144 q 265 59 251 75 q 342 36 279 43 l 342 0 l 40 0 l 40 36 q 126 60 111 43 q 142 144 142 76 l 142 432 q 129 513 142 497 q 58 539 117 528 l 58 571 q 251 628 174 593 l 251 517 q 344 582 281 538 q 460 624 410 624 q 591 568 543 624 q 639 413 639 513 l 639 144 q 652 59 639 75 q 726 36 665 43 l 726 0 m 392 -61 l 393 -61 q 464 -92 433 -61 q 494 -169 494 -122 q 347 -317 494 -281 l 333 -279 q 418 -201 418 -243 q 356 -144 418 -160 q 335 -111 335 -139 q 352 -74 335 -87 q 392 -61 369 -61 z "},"Ň":{"ha":1032,"x_min":28,"x_max":999,"o":"m 999 903 l 999 864 q 913 843 939 861 q 882 781 886 825 q 874 547 874 718 l 874 -12 l 831 -12 l 239 715 l 236 715 l 236 367 q 244 132 236 213 q 278 62 250 81 q 378 39 306 43 l 378 0 l 49 0 l 49 39 q 138 60 111 42 q 171 129 165 79 q 179 367 179 215 l 179 672 q 175 766 179 746 q 151 813 171 786 q 28 864 117 857 l 28 903 l 233 903 l 813 206 l 817 206 l 817 547 q 807 778 817 688 q 773 842 801 824 q 671 864 744 860 l 671 903 l 999 903 m 688 1119 l 708 1083 q 535 935 599 1001 l 504 935 q 329 1083 449 992 l 350 1119 q 519 1033 447 1076 q 688 1119 594 1078 z "},"ň":{"ha":760,"x_min":40,"x_max":726,"o":"m 726 0 l 438 0 l 438 36 q 514 61 499 43 q 529 151 529 79 l 529 383 q 403 542 529 542 q 251 471 333 542 l 251 144 q 265 59 251 75 q 342 36 279 43 l 342 0 l 40 0 l 40 36 q 126 60 111 43 q 142 144 142 76 l 142 432 q 129 513 142 497 q 58 539 117 528 l 58 571 q 251 628 174 593 l 251 517 q 344 582 281 538 q 460 624 410 624 q 591 568 543 624 q 639 413 639 513 l 639 144 q 652 59 639 75 q 726 36 665 43 l 726 0 m 501 938 l 535 914 q 396 688 463 814 l 361 688 q 222 914 296 810 l 257 938 q 378 803 328 869 q 501 938 453 892 z "},"ŉ":{"ha":760,"x_min":18,"x_max":726,"o":"m 75 989 l 76 989 q 160 953 122 989 q 199 858 199 917 q 149 755 199 796 q 29 697 99 714 l 18 729 q 114 835 114 768 q 90 886 114 865 q 35 913 67 907 q 18 938 18 915 q 37 975 18 961 q 75 989 56 989 m 726 0 l 438 0 l 438 36 q 514 61 499 43 q 529 151 529 79 l 529 383 q 403 542 529 542 q 251 471 333 542 l 251 144 q 265 59 251 75 q 342 36 279 43 l 342 0 l 40 0 l 40 36 q 126 60 111 43 q 142 144 142 76 l 142 432 q 129 513 142 497 q 58 539 117 528 l 58 571 q 251 628 174 593 l 251 517 q 344 582 281 538 q 460 624 410 624 q 591 568 543 624 q 639 413 639 513 l 639 144 q 652 59 639 75 q 726 36 665 43 l 726 0 z "},"Ŋ":{"ha":1022,"x_min":28,"x_max":989,"o":"m 989 903 l 989 864 q 903 844 929 861 q 872 782 878 826 q 864 540 864 696 l 865 142 q 814 -204 865 -115 q 686 -294 765 -294 q 643 -272 663 -294 q 624 -222 624 -250 q 643 -194 624 -194 q 665 -198 647 -194 q 697 -201 682 -201 q 772 -153 740 -201 q 804 13 803 -104 l 240 711 l 238 711 l 238 372 q 246 132 238 213 q 279 61 251 79 q 379 39 307 43 l 379 0 l 49 0 l 49 39 q 138 60 111 42 q 169 129 164 79 q 179 372 179 204 l 179 665 q 175 764 179 740 q 151 813 171 788 q 28 864 117 857 l 28 903 l 233 903 l 803 210 l 807 210 l 807 540 q 797 778 807 688 q 763 842 792 825 q 660 864 733 860 l 660 903 l 989 903 z "},"ŋ":{"ha":751,"x_min":39,"x_max":638,"o":"m 250 628 l 250 517 q 344 582 294 550 q 458 624 406 624 q 590 568 542 624 q 638 414 638 513 l 638 167 q 615 -35 638 47 q 540 -181 592 -118 q 415 -265 476 -265 q 378 -244 396 -265 q 360 -199 360 -222 q 378 -171 360 -171 q 409 -178 385 -171 q 447 -185 433 -185 q 500 -158 482 -185 q 528 44 528 -111 l 528 381 q 403 540 528 540 q 250 468 331 540 l 250 146 q 265 59 250 76 q 344 36 279 42 l 344 0 l 39 0 l 39 36 q 124 60 108 43 q 140 146 140 76 l 140 429 q 128 513 140 497 q 56 540 115 529 l 56 571 q 250 628 169 592 z "},"Ō":{"ha":1038,"x_min":61,"x_max":976,"o":"m 528 924 l 529 924 q 844 794 711 924 q 976 463 976 665 q 843 111 976 243 q 513 -21 710 -21 q 192 111 322 -21 q 61 442 61 243 q 190 781 61 639 q 528 924 318 924 m 500 874 l 499 874 q 289 770 375 874 q 203 481 203 667 q 299 157 203 285 q 542 29 394 29 q 750 132 665 29 q 835 425 835 235 q 739 755 835 636 q 500 874 643 874 m 676 996 l 365 996 l 365 1068 l 676 1068 l 676 996 z "},"ō":{"ha":708,"x_min":51,"x_max":657,"o":"m 356 624 l 357 624 q 571 534 485 624 q 657 314 657 444 q 564 71 657 158 q 356 -17 471 -17 q 135 76 219 -17 q 51 290 51 168 q 81 438 51 372 q 156 543 110 504 q 254 603 203 582 q 356 624 306 624 m 342 578 l 340 578 q 227 513 274 578 q 181 335 181 447 q 233 115 181 201 q 371 29 286 29 q 485 90 442 29 q 528 283 528 150 q 478 494 528 411 q 342 578 429 578 m 507 761 l 203 761 l 203 838 l 507 838 l 507 761 z "},"Ŏ":{"ha":1038,"x_min":61,"x_max":976,"o":"m 528 924 l 529 924 q 844 794 711 924 q 976 463 976 665 q 843 111 976 243 q 513 -21 710 -21 q 192 111 322 -21 q 61 442 61 243 q 190 781 61 639 q 528 924 318 924 m 500 874 l 499 874 q 289 770 375 874 q 203 481 203 667 q 299 157 203 285 q 542 29 394 29 q 750 132 665 29 q 835 425 835 235 q 739 755 835 636 q 500 874 643 874 m 631 1138 l 672 1138 q 627 1015 671 1057 q 510 974 583 974 q 392 1015 436 974 q 347 1138 349 1057 l 389 1138 q 510 1053 411 1053 q 631 1138 608 1053 z "},"ŏ":{"ha":708,"x_min":51,"x_max":657,"o":"m 356 624 l 357 624 q 571 534 485 624 q 657 314 657 444 q 564 71 657 158 q 356 -17 471 -17 q 135 76 219 -17 q 51 290 51 168 q 81 438 51 372 q 156 543 110 504 q 254 603 203 582 q 356 624 306 624 m 342 578 l 340 578 q 227 513 274 578 q 181 335 181 447 q 233 115 181 201 q 371 29 286 29 q 485 90 442 29 q 528 283 528 150 q 478 494 528 411 q 342 578 429 578 m 458 900 l 500 900 q 457 754 500 799 q 344 710 414 710 q 234 754 276 710 q 192 900 192 799 l 233 900 q 346 790 249 790 q 458 900 443 790 z "},"Ő":{"ha":1038,"x_min":61,"x_max":976,"o":"m 528 924 l 529 924 q 844 794 711 924 q 976 463 976 665 q 843 111 976 243 q 513 -21 710 -21 q 192 111 322 -21 q 61 442 61 243 q 190 781 61 639 q 528 924 318 924 m 500 874 l 499 874 q 289 770 375 874 q 203 481 203 667 q 299 157 203 285 q 542 29 394 29 q 750 132 665 29 q 835 425 835 235 q 739 755 835 636 q 500 874 643 874 m 763 1107 l 626 951 l 592 971 q 625 1053 600 993 q 661 1142 650 1114 q 713 1137 681 1143 q 761 1124 746 1131 l 763 1107 m 565 1107 l 429 951 l 394 971 q 428 1051 403 989 q 465 1142 453 1114 q 518 1137 485 1143 q 564 1122 551 1131 l 565 1107 z "},"ő":{"ha":708,"x_min":51,"x_max":657,"o":"m 356 624 l 357 624 q 571 534 485 624 q 657 314 657 444 q 564 71 657 158 q 356 -17 471 -17 q 135 76 219 -17 q 51 290 51 168 q 81 438 51 372 q 156 543 110 504 q 254 603 203 582 q 356 624 306 624 m 342 578 l 340 578 q 227 513 274 578 q 181 335 181 447 q 233 115 181 201 q 371 29 286 29 q 485 90 442 29 q 528 283 528 150 q 478 494 528 411 q 342 578 429 578 m 256 686 l 217 699 q 279 922 276 906 q 332 933 290 926 q 386 939 374 940 l 390 925 l 256 686 m 447 686 l 408 699 q 471 922 471 921 q 523 933 481 926 q 578 939 565 940 l 582 925 l 447 686 z "},"Œ":{"ha":1351,"x_min":63,"x_max":1321,"o":"m 1279 224 l 1321 218 q 1271 0 1294 79 l 846 0 q 704 -6 767 0 q 564 -15 600 -15 q 192 117 322 -15 q 63 440 63 250 q 214 785 63 654 q 593 918 365 917 q 671 914 622 918 q 726 910 719 910 q 856 903 806 903 l 1238 903 q 1251 706 1242 803 l 1210 701 q 1167 817 1192 781 q 1118 846 1151 838 q 1011 854 1085 854 l 903 854 q 865 848 872 854 q 858 811 858 842 l 858 496 l 996 496 q 1083 504 1057 496 q 1118 531 1108 513 q 1136 597 1128 549 l 1178 597 l 1178 333 l 1136 333 q 1102 424 1122 407 q 996 440 1082 440 l 858 440 l 858 185 q 892 67 858 89 q 1036 49 919 49 q 1151 58 1115 49 q 1211 93 1188 67 q 1279 224 1243 129 m 742 153 l 742 758 q 717 840 742 826 q 578 869 668 869 q 304 758 403 869 q 204 458 206 647 q 225 300 204 374 q 289 165 246 226 q 406 69 332 104 q 579 33 481 33 q 693 53 650 33 q 731 88 721 67 q 742 153 742 108 z "},"œ":{"ha":1069,"x_min":51,"x_max":1033,"o":"m 350 624 l 351 624 q 489 586 428 624 q 585 485 550 549 q 689 585 624 546 q 821 624 754 624 q 971 560 908 624 q 1033 414 1033 497 q 1027 380 1033 389 q 1003 367 1021 371 q 629 343 939 353 q 692 142 628 208 q 846 76 756 76 q 1003 147 922 76 l 1024 117 q 908 14 971 44 q 800 -17 846 -17 q 668 16 728 -17 q 575 104 608 49 q 472 15 532 46 q 349 -17 411 -17 q 133 76 215 -17 q 51 289 51 169 q 81 438 51 371 q 158 543 111 504 q 254 603 204 582 q 350 624 304 624 m 786 572 l 785 572 q 690 526 733 572 q 638 397 647 479 q 715 398 665 397 q 806 399 764 399 q 886 401 849 400 q 914 435 914 401 q 879 533 915 493 q 786 572 843 572 m 339 578 l 338 578 q 227 512 272 578 q 182 335 182 446 q 233 115 182 199 q 369 31 283 31 q 478 93 435 31 q 522 288 522 156 q 474 497 522 415 q 339 578 426 578 z "},"Ŕ":{"ha":863,"x_min":51,"x_max":876,"o":"m 876 25 l 871 -11 q 822 -10 839 -11 q 693 22 743 -6 q 597 117 643 50 q 457 339 568 158 q 414 382 439 369 q 338 394 389 394 l 293 394 l 293 174 q 313 66 293 86 q 417 39 332 46 l 417 0 l 51 0 l 51 39 q 158 66 138 46 q 178 174 178 86 l 178 732 q 160 838 178 818 q 58 864 142 857 l 58 903 l 403 903 q 625 856 553 903 q 717 674 717 796 q 540 436 717 513 q 664 235 576 365 q 776 90 732 136 q 876 25 822 40 m 293 440 l 360 440 q 511 479 463 440 q 588 651 588 538 q 529 807 588 757 q 383 857 471 857 q 308 843 326 857 q 293 782 293 832 l 293 440 m 601 1050 l 599 1039 l 340 950 l 324 985 q 542 1126 375 1018 q 576 1095 554 1125 q 601 1050 599 1065 z "},"ŕ":{"ha":515,"x_min":46,"x_max":503,"o":"m 251 476 l 254 476 q 422 624 343 624 q 479 602 456 624 q 503 554 503 581 q 458 486 503 507 q 421 489 433 476 q 363 518 393 518 q 304 487 335 518 q 251 399 274 456 l 251 144 q 269 58 251 75 q 365 36 286 42 l 365 0 l 46 0 l 46 36 q 126 60 111 43 q 142 144 142 76 l 142 432 q 128 516 142 500 q 56 540 115 532 l 56 571 q 251 628 160 588 l 251 476 m 279 685 l 243 703 q 336 924 267 756 q 392 933 347 928 q 449 936 438 939 l 453 924 l 279 685 z "},"Ŗ":{"ha":863,"x_min":51,"x_max":876,"o":"m 876 25 l 871 -11 q 822 -10 839 -11 q 693 22 743 -6 q 597 117 643 50 q 457 339 568 158 q 414 382 439 369 q 338 394 389 394 l 293 394 l 293 174 q 313 66 293 86 q 417 39 332 46 l 417 0 l 51 0 l 51 39 q 158 66 138 46 q 178 174 178 86 l 178 732 q 160 838 178 818 q 58 864 142 857 l 58 903 l 403 903 q 625 856 553 903 q 717 674 717 796 q 540 436 717 513 q 664 235 576 365 q 776 90 732 136 q 876 25 822 40 m 293 440 l 360 440 q 511 479 463 440 q 588 651 588 538 q 529 807 588 757 q 383 857 471 857 q 308 843 326 857 q 293 782 293 832 l 293 440 m 474 -31 l 475 -31 q 546 -61 515 -31 q 576 -139 576 -92 q 429 -286 576 -250 l 415 -249 q 500 -171 500 -212 q 438 -114 500 -129 q 417 -81 417 -108 q 434 -44 417 -57 q 474 -31 451 -31 z "},"ŗ":{"ha":515,"x_min":46,"x_max":503,"o":"m 251 476 l 254 476 q 422 624 343 624 q 479 602 456 624 q 503 554 503 581 q 458 486 503 507 q 421 489 433 476 q 363 518 393 518 q 304 487 335 518 q 251 399 274 456 l 251 144 q 269 58 251 75 q 365 36 286 42 l 365 0 l 46 0 l 46 36 q 126 60 111 43 q 142 144 142 76 l 142 432 q 128 516 142 500 q 56 540 115 532 l 56 571 q 251 628 160 588 l 251 476 m 193 -53 l 194 -53 q 265 -83 235 -53 q 296 -161 296 -114 q 149 -308 296 -272 l 135 -271 q 219 -193 219 -235 q 157 -136 219 -151 q 136 -103 136 -131 q 153 -66 136 -79 q 193 -53 171 -53 z "},"Ř":{"ha":863,"x_min":51,"x_max":876,"o":"m 876 25 l 871 -11 q 822 -10 839 -11 q 693 22 743 -6 q 597 117 643 50 q 457 339 568 158 q 414 382 439 369 q 338 394 389 394 l 293 394 l 293 174 q 313 66 293 86 q 417 39 332 46 l 417 0 l 51 0 l 51 39 q 158 66 138 46 q 178 174 178 86 l 178 732 q 160 838 178 818 q 58 864 142 857 l 58 903 l 403 903 q 625 856 553 903 q 717 674 717 796 q 540 436 717 513 q 664 235 576 365 q 776 90 732 136 q 876 25 822 40 m 293 440 l 360 440 q 511 479 463 440 q 588 651 588 538 q 529 807 588 757 q 383 857 471 857 q 308 843 326 857 q 293 782 293 832 l 293 440 m 563 1140 l 583 1104 q 410 956 474 1022 l 379 956 q 204 1104 324 1013 l 225 1140 q 394 1054 322 1097 q 563 1140 469 1099 z "},"ř":{"ha":515,"x_min":46,"x_max":503,"o":"m 251 476 l 254 476 q 422 624 343 624 q 479 602 456 624 q 503 554 503 581 q 458 486 503 507 q 421 489 433 476 q 363 518 393 518 q 304 487 335 518 q 251 399 274 456 l 251 144 q 269 58 251 75 q 365 36 286 42 l 365 0 l 46 0 l 46 36 q 126 60 111 43 q 142 144 142 76 l 142 432 q 128 516 142 500 q 56 540 115 532 l 56 571 q 251 628 160 588 l 251 476 m 411 938 l 444 914 q 306 688 372 814 l 271 688 q 132 914 206 810 l 167 938 q 288 803 238 869 q 411 938 363 892 z "},"Ś":{"ha":658,"x_min":58,"x_max":608,"o":"m 568 700 l 528 692 q 506 759 517 732 q 474 816 494 786 q 421 861 453 846 q 346 876 389 876 q 231 831 271 876 q 192 724 192 786 q 233 610 192 653 q 368 518 275 567 q 436 482 414 494 q 498 442 458 469 q 557 390 538 414 q 592 326 576 365 q 608 242 608 286 q 522 55 608 131 q 300 -21 436 -21 q 164 0 239 -21 q 96 29 119 15 q 58 244 81 71 l 99 254 q 124 182 108 217 q 167 110 140 147 q 235 51 193 74 q 326 29 276 29 q 449 74 404 29 q 493 196 493 119 q 449 310 493 267 q 313 403 406 353 q 263 430 276 422 q 215 459 250 438 q 163 499 181 481 q 124 545 146 518 q 93 606 103 572 q 83 676 83 639 q 161 852 83 781 q 369 924 239 924 q 544 892 443 924 q 568 700 550 846 m 531 1061 l 528 1050 l 269 961 l 253 996 q 471 1138 304 1029 q 506 1106 483 1136 q 531 1061 528 1076 z "},"ś":{"ha":510,"x_min":57,"x_max":468,"o":"m 444 451 l 408 443 q 265 581 364 581 q 201 553 226 581 q 175 485 175 525 q 206 415 175 443 q 293 364 238 388 q 424 285 379 328 q 468 175 468 242 q 399 35 468 86 q 239 -17 329 -17 q 145 -2 190 -17 q 79 31 100 13 q 65 101 72 44 q 57 194 57 157 l 93 201 q 158 78 113 128 q 264 29 204 29 q 333 56 304 29 q 363 126 363 83 q 335 198 363 169 q 253 253 308 226 q 189 285 213 271 q 136 322 165 299 q 93 376 107 346 q 79 444 79 407 q 138 572 79 519 q 290 624 197 624 q 414 600 349 625 q 444 451 433 544 m 249 685 l 213 703 q 306 924 236 756 q 362 933 317 928 q 418 936 407 939 l 422 924 l 249 685 z "},"Ŝ":{"ha":658,"x_min":58,"x_max":608,"o":"m 568 700 l 528 692 q 506 759 517 732 q 474 816 494 786 q 421 861 453 846 q 346 876 389 876 q 231 831 271 876 q 192 724 192 786 q 233 610 192 653 q 368 518 275 567 q 436 482 414 494 q 498 442 458 469 q 557 390 538 414 q 592 326 576 365 q 608 242 608 286 q 522 55 608 131 q 300 -21 436 -21 q 164 0 239 -21 q 96 29 119 15 q 58 244 81 71 l 99 254 q 124 182 108 217 q 167 110 140 147 q 235 51 193 74 q 326 29 276 29 q 449 74 404 29 q 493 196 493 119 q 449 310 493 267 q 313 403 406 353 q 263 430 276 422 q 215 459 250 438 q 163 499 181 481 q 124 545 146 518 q 93 606 103 572 q 83 676 83 639 q 161 852 83 781 q 369 924 239 924 q 544 892 443 924 q 568 700 550 846 m 536 993 l 514 958 q 346 1044 439 992 q 181 958 236 982 l 157 993 q 332 1142 282 1089 l 363 1142 q 536 993 417 1085 z "},"ŝ":{"ha":510,"x_min":57,"x_max":468,"o":"m 444 451 l 408 443 q 265 581 364 581 q 201 553 226 581 q 175 485 175 525 q 206 415 175 443 q 293 364 238 388 q 424 285 379 328 q 468 175 468 242 q 399 35 468 86 q 239 -17 329 -17 q 145 -2 190 -17 q 79 31 100 13 q 65 101 72 44 q 57 194 57 157 l 93 201 q 158 78 113 128 q 264 29 204 29 q 333 56 304 29 q 363 126 363 83 q 335 198 363 169 q 253 253 308 226 q 189 285 213 271 q 136 322 165 299 q 93 376 107 346 q 79 444 79 407 q 138 572 79 519 q 290 624 197 624 q 414 600 349 625 q 444 451 433 544 m 417 706 l 383 682 q 261 817 322 740 q 139 682 201 740 l 106 706 q 244 932 183 817 l 279 932 q 417 706 344 808 z "},"Ş":{"ha":663,"x_min":56,"x_max":608,"o":"m 571 697 l 531 692 q 469 826 508 776 q 349 876 429 876 q 236 833 276 876 q 196 728 196 789 q 238 611 196 656 q 372 521 279 567 q 456 477 425 496 q 528 424 488 458 q 588 346 568 390 q 608 244 608 301 q 549 81 608 150 q 388 -8 489 13 l 368 -39 q 359 -68 357 -57 q 376 -96 361 -79 q 431 -190 431 -149 q 388 -269 431 -232 q 274 -329 346 -307 l 257 -293 q 342 -211 339 -257 q 308 -158 342 -189 q 278 -115 282 -132 q 292 -69 274 -99 l 331 -18 q 306 -21 322 -21 q 165 0 233 -19 q 93 31 132 11 q 56 246 75 82 l 94 254 q 122 183 106 217 q 165 111 138 149 q 235 51 192 74 q 332 29 279 29 q 451 74 407 29 q 494 196 494 119 q 467 288 494 247 q 408 351 440 329 q 317 406 376 374 q 258 437 276 426 q 200 475 239 447 q 141 528 161 503 q 103 593 121 553 q 86 678 86 633 q 165 852 86 781 q 374 924 243 924 q 546 892 444 924 q 558 796 549 864 q 571 697 567 728 z "},"ş":{"ha":508,"x_min":54,"x_max":468,"o":"m 444 453 l 408 442 q 265 581 364 581 q 200 554 225 581 q 175 488 175 528 q 293 367 175 417 q 424 285 379 329 q 468 175 468 242 q 425 58 468 104 q 314 -6 382 11 l 290 -39 q 279 -68 278 -58 q 299 -96 281 -78 q 349 -187 349 -142 q 308 -266 349 -229 q 197 -325 267 -303 l 183 -287 q 264 -208 261 -251 q 232 -156 264 -187 q 201 -113 204 -131 q 215 -71 197 -96 l 258 -15 q 236 -17 251 -17 q 142 -1 189 -17 q 75 33 96 15 q 61 106 68 51 q 54 199 54 161 l 92 206 q 158 80 111 131 q 265 29 204 29 q 333 55 304 29 q 363 125 363 81 q 335 199 363 169 q 251 256 308 229 q 125 333 172 290 q 78 444 78 375 q 137 571 78 518 q 290 624 196 624 q 414 600 349 625 q 444 453 438 531 z "},"Š":{"ha":658,"x_min":58,"x_max":608,"o":"m 568 700 l 528 692 q 506 759 517 732 q 474 816 494 786 q 421 861 453 846 q 346 876 389 876 q 231 831 271 876 q 192 724 192 786 q 233 610 192 653 q 368 518 275 567 q 436 482 414 494 q 498 442 458 469 q 557 390 538 414 q 592 326 576 365 q 608 242 608 286 q 522 55 608 131 q 300 -21 436 -21 q 164 0 239 -21 q 96 29 119 15 q 58 244 81 71 l 99 254 q 124 182 108 217 q 167 110 140 147 q 235 51 193 74 q 326 29 276 29 q 449 74 404 29 q 493 196 493 119 q 449 310 493 267 q 313 403 406 353 q 263 430 276 422 q 215 459 250 438 q 163 499 181 481 q 124 545 146 518 q 93 606 103 572 q 83 676 83 639 q 161 852 83 781 q 369 924 239 924 q 544 892 443 924 q 568 700 550 846 m 514 1153 l 535 1117 q 361 968 425 1035 l 331 968 q 156 1117 275 1025 l 176 1153 q 346 1067 274 1110 q 514 1153 421 1111 z "},"š":{"ha":510,"x_min":57,"x_max":468,"o":"m 444 451 l 408 443 q 265 581 364 581 q 201 553 226 581 q 175 485 175 525 q 206 415 175 443 q 293 364 238 388 q 424 285 379 328 q 468 175 468 242 q 399 35 468 86 q 239 -17 329 -17 q 145 -2 190 -17 q 79 31 100 13 q 65 101 72 44 q 57 194 57 157 l 93 201 q 158 78 113 128 q 264 29 204 29 q 333 56 304 29 q 363 126 363 83 q 335 198 363 169 q 253 253 308 226 q 189 285 213 271 q 136 322 165 299 q 93 376 107 346 q 79 444 79 407 q 138 572 79 519 q 290 624 197 624 q 414 600 349 625 q 444 451 433 544 m 388 938 l 421 914 q 282 688 349 814 l 247 688 q 108 914 182 810 l 143 938 q 264 803 214 869 q 388 938 339 892 z "},"Ţ":{"ha":857,"x_min":39,"x_max":822,"o":"m 822 692 l 782 688 q 738 811 761 781 q 692 846 721 838 q 588 854 664 854 l 489 854 l 489 171 q 511 66 489 88 q 632 39 533 44 l 632 0 l 233 0 l 233 39 q 349 66 328 44 q 371 171 371 88 l 371 854 l 285 854 q 169 845 201 854 q 124 811 138 836 q 79 688 106 786 l 39 688 q 56 938 53 849 l 83 938 q 113 909 97 915 q 160 903 128 903 l 708 903 q 748 910 735 903 q 779 938 761 917 l 808 938 q 822 692 808 853 m 418 -51 l 419 -51 q 490 -82 460 -51 q 521 -160 521 -112 q 374 -307 521 -271 l 360 -269 q 444 -192 444 -233 q 382 -135 444 -150 q 361 -101 361 -129 q 378 -65 361 -78 q 418 -51 396 -51 z "},"ţ":{"ha":424,"x_min":24,"x_max":414,"o":"m 414 50 l 319 1 q 261 -17 285 -17 q 125 149 125 -17 l 125 553 l 29 553 l 24 567 l 61 607 l 125 607 l 125 708 l 215 800 l 235 797 l 235 607 l 392 607 q 399 578 401 597 q 383 553 396 560 l 235 553 l 235 196 q 315 63 235 63 q 401 86 354 63 l 414 50 m 232 -65 l 233 -65 q 304 -96 274 -65 q 335 -174 335 -126 q 188 -321 335 -285 l 174 -283 q 258 -206 258 -247 q 196 -149 258 -164 q 175 -115 175 -143 q 192 -78 175 -92 q 232 -65 210 -65 z "},"Ť":{"ha":857,"x_min":39,"x_max":822,"o":"m 822 692 l 782 688 q 738 811 761 781 q 692 846 721 838 q 588 854 664 854 l 489 854 l 489 171 q 511 66 489 88 q 632 39 533 44 l 632 0 l 233 0 l 233 39 q 349 66 328 44 q 371 171 371 88 l 371 854 l 285 854 q 169 845 201 854 q 124 811 138 836 q 79 688 106 786 l 39 688 q 56 938 53 849 l 83 938 q 113 909 97 915 q 160 903 128 903 l 708 903 q 748 910 735 903 q 779 938 761 917 l 808 938 q 822 692 808 853 m 597 1140 l 618 1104 q 444 956 508 1022 l 414 956 q 239 1104 358 1013 l 260 1140 q 429 1054 357 1097 q 597 1140 504 1099 z "},"ť":{"ha":424,"x_min":24,"x_max":461,"o":"m 414 50 l 319 1 q 261 -17 285 -17 q 125 149 125 -17 l 125 553 l 29 553 l 24 567 l 61 607 l 125 607 l 125 708 l 215 800 l 235 797 l 235 607 l 392 607 q 399 578 401 597 q 383 553 396 560 l 235 553 l 235 196 q 315 63 235 63 q 401 86 354 63 l 414 50 m 376 964 l 378 964 q 437 933 413 964 q 461 854 461 901 q 340 708 461 744 l 326 746 q 390 825 390 779 q 346 879 390 863 q 326 914 326 886 q 341 951 326 938 q 376 964 356 964 z "},"Ŧ":{"ha":851,"x_min":39,"x_max":817,"o":"m 817 693 l 775 689 q 735 811 756 778 q 685 845 717 836 q 575 854 653 854 l 486 854 l 486 486 l 693 486 l 693 432 l 486 432 l 486 175 q 508 66 486 89 q 628 38 531 43 l 628 0 l 231 0 l 231 38 q 347 66 325 43 q 368 175 368 89 l 368 432 l 164 432 l 164 486 l 368 486 l 368 854 l 299 854 q 170 845 204 854 q 122 811 136 836 q 81 689 104 782 l 39 689 q 56 938 53 851 l 83 938 q 112 908 99 914 q 156 903 125 903 l 707 903 q 744 909 733 903 q 772 938 756 915 l 803 938 q 817 693 803 825 z "},"ŧ":{"ha":421,"x_min":24,"x_max":415,"o":"m 415 51 l 317 0 q 261 -17 285 -17 q 125 149 125 -17 l 125 313 l 32 313 l 32 363 l 125 363 l 125 551 l 29 551 l 24 567 l 63 607 l 125 607 l 125 708 l 215 800 l 235 797 l 235 607 l 392 607 q 400 578 403 597 q 383 551 397 560 l 235 551 l 235 363 l 375 363 l 375 313 l 235 313 l 235 196 q 317 63 235 63 q 401 86 357 63 l 415 51 z "},"Ũ":{"ha":1022,"x_min":46,"x_max":994,"o":"m 994 903 l 994 864 q 905 842 932 860 q 872 782 878 824 q 865 557 865 719 l 865 443 q 760 76 865 188 q 511 -19 668 -19 q 289 47 375 -19 q 167 378 167 140 l 167 724 q 148 836 167 815 q 46 864 129 857 l 46 903 l 406 903 l 406 864 q 303 838 322 858 q 285 724 285 817 l 285 408 q 351 148 285 239 q 546 57 418 57 q 808 453 808 57 l 808 557 q 799 786 808 711 q 765 842 793 826 q 664 864 738 858 l 664 903 l 994 903 m 471 1094 l 472 1094 q 556 1068 501 1094 q 632 1046 604 1046 q 696 1106 668 1046 l 731 1086 q 617 968 692 968 q 519 999 583 968 q 458 1018 481 1018 q 392 957 425 1018 l 358 981 q 471 1094 404 1094 z "},"ũ":{"ha":738,"x_min":40,"x_max":719,"o":"m 719 68 l 719 33 q 613 11 675 28 q 561 -4 594 6 q 515 -17 528 -14 l 507 -8 l 507 90 q 404 18 432 35 q 297 -17 344 -17 q 173 34 221 -17 q 125 190 125 85 l 125 463 q 116 530 125 515 q 79 551 107 544 l 40 560 l 40 592 q 140 601 63 593 q 239 617 215 613 q 235 414 235 574 l 235 226 q 357 71 235 71 q 507 138 439 71 l 507 461 q 496 531 507 515 q 449 551 485 546 l 399 560 l 399 592 q 524 603 460 594 q 617 617 575 608 l 617 153 q 628 88 617 101 q 681 71 640 74 l 719 68 m 224 724 l 188 746 q 299 871 228 871 q 379 844 328 871 q 453 818 432 818 q 514 881 486 818 l 549 861 q 439 736 511 736 q 347 769 407 736 q 283 790 310 790 q 224 724 250 790 z "},"Ū":{"ha":1022,"x_min":46,"x_max":994,"o":"m 994 903 l 994 864 q 905 842 932 860 q 872 782 878 824 q 865 557 865 719 l 865 443 q 760 76 865 188 q 511 -19 668 -19 q 289 47 375 -19 q 167 378 167 140 l 167 724 q 148 836 167 815 q 46 864 129 857 l 46 903 l 406 903 l 406 864 q 303 838 322 858 q 285 724 285 817 l 285 408 q 351 148 285 239 q 546 57 418 57 q 808 453 808 57 l 808 557 q 799 786 808 711 q 765 842 793 826 q 664 864 738 858 l 664 903 l 994 903 m 688 996 l 376 996 l 376 1068 l 688 1068 l 688 996 z "},"ū":{"ha":738,"x_min":40,"x_max":719,"o":"m 719 68 l 719 33 q 613 11 675 28 q 561 -4 594 6 q 515 -17 528 -14 l 507 -8 l 507 90 q 404 18 432 35 q 297 -17 344 -17 q 173 34 221 -17 q 125 190 125 85 l 125 463 q 116 530 125 515 q 79 551 107 544 l 40 560 l 40 592 q 140 601 63 593 q 239 617 215 613 q 235 414 235 574 l 235 226 q 357 71 235 71 q 507 138 439 71 l 507 461 q 496 531 507 515 q 449 551 485 546 l 399 560 l 399 592 q 524 603 460 594 q 617 617 575 608 l 617 153 q 628 88 617 101 q 681 71 640 74 l 719 68 m 521 761 l 217 761 l 217 838 l 521 838 l 521 761 z "},"Ŭ":{"ha":1022,"x_min":46,"x_max":994,"o":"m 994 903 l 994 864 q 905 842 932 860 q 872 782 878 824 q 865 557 865 719 l 865 443 q 760 76 865 188 q 511 -19 668 -19 q 289 47 375 -19 q 167 378 167 140 l 167 724 q 148 836 167 815 q 46 864 129 857 l 46 903 l 406 903 l 406 864 q 303 838 322 858 q 285 724 285 817 l 285 408 q 351 148 285 239 q 546 57 418 57 q 808 453 808 57 l 808 557 q 799 786 808 711 q 765 842 793 826 q 664 864 738 858 l 664 903 l 994 903 m 657 1117 l 699 1117 q 653 994 697 1036 q 536 953 610 953 q 419 994 463 953 q 374 1117 375 1036 l 415 1117 q 536 1032 438 1032 q 657 1117 635 1032 z "},"ŭ":{"ha":738,"x_min":40,"x_max":719,"o":"m 719 68 l 719 33 q 613 11 675 28 q 561 -4 594 6 q 515 -17 528 -14 l 507 -8 l 507 90 q 404 18 432 35 q 297 -17 344 -17 q 173 34 221 -17 q 125 190 125 85 l 125 463 q 116 530 125 515 q 79 551 107 544 l 40 560 l 40 592 q 140 601 63 593 q 239 617 215 613 q 235 414 235 574 l 235 226 q 357 71 235 71 q 507 138 439 71 l 507 461 q 496 531 507 515 q 449 551 485 546 l 399 560 l 399 592 q 524 603 460 594 q 617 617 575 608 l 617 153 q 628 88 617 101 q 681 71 640 74 l 719 68 m 474 900 l 515 900 q 472 754 515 799 q 360 710 429 710 q 249 754 292 710 q 207 900 207 799 l 249 900 q 361 790 264 790 q 474 900 458 790 z "},"Ů":{"ha":1022,"x_min":46,"x_max":994,"o":"m 994 903 l 994 864 q 905 842 932 860 q 872 782 878 824 q 865 557 865 719 l 865 443 q 760 76 865 188 q 511 -19 668 -19 q 289 47 375 -19 q 167 378 167 140 l 167 724 q 148 836 167 815 q 46 864 129 857 l 46 903 l 406 903 l 406 864 q 303 838 322 858 q 285 724 285 817 l 285 408 q 351 148 285 239 q 546 57 418 57 q 808 453 808 57 l 808 557 q 799 786 808 711 q 765 842 793 826 q 664 864 738 858 l 664 903 l 994 903 m 538 1171 l 539 1171 q 623 1138 586 1171 q 660 1054 660 1106 q 623 969 660 1003 q 538 936 586 936 q 452 969 489 936 q 415 1054 415 1003 q 452 1138 415 1106 q 538 1171 489 1171 m 538 1126 l 536 1126 q 493 1106 510 1126 q 476 1054 476 1086 q 494 1001 476 1022 q 538 979 511 979 q 582 1000 565 979 q 599 1054 599 1021 q 582 1106 599 1086 q 538 1126 565 1126 z "},"ů":{"ha":738,"x_min":40,"x_max":719,"o":"m 719 68 l 719 33 q 613 11 675 28 q 561 -4 594 6 q 515 -17 528 -14 l 507 -8 l 507 90 q 404 18 432 35 q 297 -17 344 -17 q 173 34 221 -17 q 125 190 125 85 l 125 463 q 116 530 125 515 q 79 551 107 544 l 40 560 l 40 592 q 140 601 63 593 q 239 617 215 613 q 235 414 235 574 l 235 226 q 357 71 235 71 q 507 138 439 71 l 507 461 q 496 531 507 515 q 449 551 485 546 l 399 560 l 399 592 q 524 603 460 594 q 617 617 575 608 l 617 153 q 628 88 617 101 q 681 71 640 74 l 719 68 m 454 726 q 435 710 454 726 q 368 693 417 693 q 282 726 319 693 q 244 813 244 760 q 282 896 244 864 q 369 928 319 928 q 454 896 417 928 q 492 813 492 864 q 454 726 492 760 m 369 736 q 414 758 397 736 q 431 813 431 779 q 414 865 431 844 q 368 885 397 885 q 324 864 342 885 q 307 813 307 843 q 325 758 307 781 q 369 736 343 736 z "},"Ű":{"ha":1022,"x_min":46,"x_max":994,"o":"m 994 903 l 994 864 q 905 842 932 860 q 872 782 878 824 q 865 557 865 719 l 865 443 q 760 76 865 188 q 511 -19 668 -19 q 289 47 375 -19 q 167 378 167 140 l 167 724 q 148 836 167 815 q 46 864 129 857 l 46 903 l 406 903 l 406 864 q 303 838 322 858 q 285 724 285 817 l 285 408 q 351 148 285 239 q 546 57 418 57 q 808 453 808 57 l 808 557 q 799 786 808 711 q 765 842 793 826 q 664 864 738 858 l 664 903 l 994 903 m 763 1106 l 626 950 l 592 969 q 625 1052 600 992 q 661 1140 650 1113 q 713 1135 681 1142 q 761 1122 746 1129 l 763 1106 m 565 1106 l 429 950 l 394 969 q 428 1050 403 988 q 465 1140 453 1113 q 518 1135 485 1142 q 564 1121 551 1129 l 565 1106 z "},"ű":{"ha":738,"x_min":40,"x_max":719,"o":"m 719 68 l 719 33 q 613 11 675 28 q 561 -4 594 6 q 515 -17 528 -14 l 507 -8 l 507 90 q 404 18 432 35 q 297 -17 344 -17 q 173 34 221 -17 q 125 190 125 85 l 125 463 q 116 530 125 515 q 79 551 107 544 l 40 560 l 40 592 q 140 601 63 593 q 239 617 215 613 q 235 414 235 574 l 235 226 q 357 71 235 71 q 507 138 439 71 l 507 461 q 496 531 507 515 q 449 551 485 546 l 399 560 l 399 592 q 524 603 460 594 q 617 617 575 608 l 617 153 q 628 88 617 101 q 681 71 640 74 l 719 68 m 269 686 l 231 699 q 293 922 290 906 q 346 933 304 926 q 400 939 388 940 l 404 925 l 269 686 m 461 686 l 422 699 q 485 922 485 921 q 537 933 494 926 q 592 939 579 940 l 596 925 l 461 686 z "},"Ų":{"ha":1018,"x_min":46,"x_max":990,"o":"m 990 903 l 990 865 q 901 842 928 860 q 871 782 875 825 q 861 554 861 714 l 861 443 q 757 76 861 188 q 606 -6 699 15 q 544 -93 568 -43 q 521 -179 521 -143 q 542 -234 521 -217 q 594 -251 563 -251 q 661 -235 614 -251 l 671 -269 l 592 -317 q 542 -331 568 -331 q 456 -299 485 -331 q 426 -225 426 -268 q 549 -15 426 -131 q 289 47 388 -28 q 167 378 167 140 l 167 719 q 148 835 167 814 q 46 865 129 857 l 46 903 l 406 903 l 406 865 q 303 838 322 860 q 285 719 285 815 l 285 410 q 349 148 285 239 q 543 57 414 57 q 743 160 683 57 q 803 454 803 264 l 803 554 q 793 786 803 711 q 759 843 786 826 q 660 865 732 860 l 660 903 l 990 903 z "},"ų":{"ha":738,"x_min":39,"x_max":721,"o":"m 721 68 l 721 33 q 664 22 669 22 q 565 -76 607 -18 q 524 -185 524 -135 q 543 -231 524 -214 q 593 -247 563 -247 q 658 -232 625 -247 l 669 -267 l 590 -312 q 542 -328 567 -328 q 458 -298 488 -328 q 429 -222 429 -268 q 583 4 429 -133 q 515 -17 549 -4 q 511 -10 514 -14 q 508 -6 508 -7 l 508 90 q 406 18 410 21 q 297 -17 346 -17 q 173 34 221 -17 q 125 190 125 85 l 125 460 q 115 528 125 513 q 78 550 106 544 l 39 558 l 39 592 q 140 601 64 593 q 239 617 215 613 q 235 415 235 574 l 235 226 q 357 71 235 71 q 508 138 438 71 l 508 460 q 497 529 508 514 q 449 550 485 544 l 401 558 l 401 592 q 524 603 461 594 q 617 617 572 608 l 617 153 q 629 88 617 101 q 682 71 642 74 l 721 68 z "},"Ŵ":{"ha":1349,"x_min":22,"x_max":1328,"o":"m 1328 903 l 1328 864 q 1232 833 1256 854 q 1178 725 1208 811 q 949 -15 1111 539 l 906 -15 q 663 678 882 54 l 660 678 q 546 331 622 560 q 433 -15 469 101 l 390 -15 q 163 728 357 97 q 113 833 138 811 q 22 864 89 856 l 22 903 l 360 903 l 360 864 q 272 838 286 854 q 276 769 258 822 q 446 197 385 394 l 449 197 q 563 549 486 318 q 674 889 639 779 l 714 889 q 957 196 754 771 l 960 196 q 1117 753 1072 553 q 1117 835 1133 815 q 1021 864 1101 854 l 1021 903 l 1328 903 m 882 978 l 860 943 q 692 1029 785 976 q 526 943 582 967 l 503 978 q 678 1126 628 1074 l 708 1126 q 882 978 763 1069 z "},"ŵ":{"ha":951,"x_min":13,"x_max":967,"o":"m 967 607 l 967 572 q 897 546 915 564 q 856 468 878 528 q 689 -15 826 392 l 650 -15 q 553 233 617 74 q 481 417 490 392 q 317 -15 319 -7 l 276 -15 q 117 481 201 232 q 81 550 99 535 q 13 572 63 565 l 13 607 l 300 607 l 300 572 q 226 548 238 561 q 231 488 215 535 q 332 164 272 346 l 335 164 q 496 600 369 254 l 532 600 q 699 160 592 432 l 701 160 q 796 479 772 381 q 797 548 810 533 q 715 572 783 563 l 715 607 l 967 607 m 660 706 l 626 682 q 504 817 565 740 q 382 682 444 740 l 349 706 q 488 932 426 817 l 522 932 q 660 706 588 808 z "},"Ŷ":{"ha":881,"x_min":21,"x_max":861,"o":"m 861 903 l 861 864 q 764 838 790 856 q 696 754 738 819 q 519 450 604 607 q 497 363 497 406 l 497 174 q 519 66 497 86 q 636 39 540 46 l 636 0 l 243 0 l 243 39 q 358 66 336 46 q 379 174 379 86 l 379 358 q 350 440 379 389 q 175 746 231 653 q 107 838 132 818 q 21 864 82 858 l 21 903 l 353 903 l 353 864 q 272 839 283 856 q 283 789 260 822 q 469 460 311 735 q 635 772 590 675 q 647 840 660 824 q 554 864 635 856 l 554 903 l 861 903 m 639 985 l 617 950 q 449 1036 542 983 q 283 950 339 974 l 260 985 q 435 1133 385 1081 l 465 1133 q 639 985 519 1076 z "},"ŷ":{"ha":638,"x_min":1,"x_max":664,"o":"m 664 607 l 664 572 q 588 547 608 564 q 540 471 568 531 q 504 388 525 439 q 444 240 483 336 q 367 53 404 143 q 224 -324 247 -232 q 179 -357 213 -357 q 125 -336 150 -357 q 100 -290 100 -315 q 136 -240 100 -264 q 239 -117 196 -203 q 282 -21 271 -58 q 281 42 292 10 q 121 467 183 319 q 78 545 99 526 q 1 572 57 564 l 1 607 l 283 607 l 283 572 q 226 549 236 564 q 231 496 217 535 l 357 147 q 485 493 422 307 q 484 549 497 533 q 413 572 471 564 l 413 607 l 664 607 m 494 706 l 461 682 q 339 817 400 740 q 217 682 279 740 l 183 706 q 322 932 261 817 l 357 932 q 494 706 422 808 z "},"Ÿ":{"ha":881,"x_min":21,"x_max":861,"o":"m 861 903 l 861 864 q 764 838 790 856 q 696 754 738 819 q 519 450 604 607 q 497 363 497 406 l 497 174 q 519 66 497 86 q 636 39 540 46 l 636 0 l 243 0 l 243 39 q 358 66 336 46 q 379 174 379 86 l 379 358 q 350 440 379 389 q 175 746 231 653 q 107 838 132 818 q 21 864 82 858 l 21 903 l 353 903 l 353 864 q 272 839 283 856 q 283 789 260 822 q 469 460 311 735 q 635 772 590 675 q 647 840 660 824 q 554 864 635 856 l 554 903 l 861 903 m 585 1103 l 586 1103 q 633 1083 614 1103 q 651 1035 651 1064 q 632 988 651 1007 q 585 968 613 968 q 539 988 558 968 q 519 1035 519 1008 q 539 1083 519 1064 q 585 1103 558 1103 m 321 1103 l 322 1103 q 368 1083 350 1103 q 386 1033 386 1064 q 367 987 386 1007 q 321 967 349 967 q 274 987 294 967 q 254 1033 254 1007 q 274 1083 254 1063 q 321 1103 293 1103 z "},"Ź":{"ha":838,"x_min":40,"x_max":821,"o":"m 779 244 l 821 236 q 806 169 817 219 q 786 72 796 118 q 769 0 776 25 l 51 0 l 40 21 q 625 853 508 683 l 383 853 q 242 843 276 853 q 188 803 207 833 q 140 682 160 763 l 99 682 q 115 938 114 879 l 149 938 q 175 909 161 915 q 222 903 189 903 l 776 903 l 786 883 q 213 58 354 267 q 439 50 281 50 q 622 60 569 50 q 704 101 675 71 q 779 244 742 143 m 657 1050 l 654 1039 l 396 950 l 379 985 q 597 1126 431 1018 q 632 1095 610 1125 q 657 1050 654 1065 z "},"ź":{"ha":583,"x_min":43,"x_max":574,"o":"m 538 192 l 574 175 q 540 85 563 146 q 510 0 518 24 l 51 0 l 43 21 q 389 561 201 254 l 265 561 q 166 542 193 561 q 108 461 139 524 l 89 424 l 54 436 q 101 638 82 531 l 131 638 q 207 607 142 607 l 526 607 l 535 588 q 196 46 369 329 l 333 46 q 442 69 408 46 q 519 158 476 92 l 538 192 m 296 685 l 260 703 q 353 924 283 756 q 409 933 364 928 q 465 936 454 939 l 469 924 l 296 685 z "},"Ż":{"ha":838,"x_min":40,"x_max":821,"o":"m 779 244 l 821 236 q 806 169 817 219 q 786 72 796 118 q 769 0 776 25 l 51 0 l 40 21 q 625 853 508 683 l 383 853 q 242 843 276 853 q 188 803 207 833 q 140 682 160 763 l 99 682 q 115 938 114 879 l 149 938 q 175 909 161 915 q 222 903 189 903 l 776 903 l 786 883 q 213 58 354 267 q 439 50 281 50 q 622 60 569 50 q 704 101 675 71 q 779 244 742 143 m 442 1121 l 443 1121 q 492 1099 472 1121 q 513 1047 513 1078 q 492 997 513 1017 q 442 976 472 976 q 391 997 411 976 q 371 1047 371 1017 q 391 1100 371 1079 q 442 1121 411 1121 z "},"ż":{"ha":583,"x_min":43,"x_max":574,"o":"m 538 192 l 574 175 q 540 85 563 146 q 510 0 518 24 l 51 0 l 43 21 q 389 561 201 254 l 265 561 q 166 542 193 561 q 108 461 139 524 l 89 424 l 54 436 q 101 638 82 531 l 131 638 q 207 607 142 607 l 526 607 l 535 588 q 196 46 369 329 l 333 46 q 442 69 408 46 q 519 158 476 92 l 538 192 m 307 747 q 258 768 279 747 q 238 817 238 789 q 258 869 238 847 q 308 890 279 890 q 357 869 338 890 q 376 817 376 849 q 356 767 376 788 q 307 747 336 747 z "},"Ž":{"ha":838,"x_min":40,"x_max":821,"o":"m 779 244 l 821 236 q 806 169 817 219 q 786 72 796 118 q 769 0 776 25 l 51 0 l 40 21 q 625 853 508 683 l 383 853 q 242 843 276 853 q 188 803 207 833 q 140 682 160 763 l 99 682 q 115 938 114 879 l 149 938 q 175 909 161 915 q 222 903 189 903 l 776 903 l 786 883 q 213 58 354 267 q 439 50 281 50 q 622 60 569 50 q 704 101 675 71 q 779 244 742 143 m 610 1140 l 631 1104 q 457 956 521 1022 l 426 956 q 251 1104 371 1013 l 272 1140 q 442 1054 369 1097 q 610 1140 517 1099 z "},"ž":{"ha":583,"x_min":43,"x_max":574,"o":"m 538 192 l 574 175 q 540 85 563 146 q 510 0 518 24 l 51 0 l 43 21 q 389 561 201 254 l 265 561 q 166 542 193 561 q 108 461 139 524 l 89 424 l 54 436 q 101 638 82 531 l 131 638 q 207 607 142 607 l 526 607 l 535 588 q 196 46 369 329 l 333 46 q 442 69 408 46 q 519 158 476 92 l 538 192 m 422 938 l 456 914 q 317 688 383 814 l 282 688 q 143 914 217 810 l 178 938 q 299 803 249 869 q 422 938 374 892 z "},"ſ":{"ha":371,"x_min":39,"x_max":544,"o":"m 76 607 l 142 607 l 142 638 q 156 750 142 701 q 263 914 182 846 q 417 989 335 978 q 526 943 488 988 q 536 896 544 921 q 504 858 531 879 q 468 864 486 847 q 356 919 413 919 q 281 869 310 919 q 250 596 250 815 l 250 156 q 265 61 250 79 q 347 36 279 43 l 347 0 l 50 0 l 50 36 q 126 60 111 43 q 142 144 142 76 l 142 553 l 43 553 l 39 567 l 76 607 z "},"ƒ":{"ha":667,"x_min":-31,"x_max":642,"o":"m 261 514 l 272 576 q 404 829 301 739 q 561 906 490 906 q 615 886 588 906 q 642 844 642 867 q 623 803 642 826 q 589 788 604 779 q 574 797 586 789 q 554 810 561 806 q 535 822 547 815 q 511 831 522 828 q 489 833 500 833 q 433 792 456 833 q 379 514 404 728 l 535 514 l 535 463 l 371 463 l 328 178 q 268 -22 308 49 q 167 -139 228 -93 q 46 -192 97 -192 q -6 -174 18 -192 q -31 -140 -31 -157 q -12 -97 -31 -122 q 18 -72 7 -72 q 56 -94 22 -72 q 114 -115 89 -115 q 172 -68 157 -115 q 217 196 192 -10 l 253 463 l 129 463 l 131 514 l 261 514 z "},"Ơ":{"ha":1038,"x_min":61,"x_max":1008,"o":"m 499 874 q 289 770 375 874 q 203 481 203 667 q 299 157 203 285 q 542 29 394 29 q 750 132 665 29 q 835 425 835 235 q 739 755 835 636 q 499 874 643 874 m 529 924 q 803 833 676 924 q 864 819 826 819 q 925 837 906 819 q 944 875 944 854 q 934 902 944 894 q 888 914 924 910 q 866 928 876 917 q 856 956 856 939 q 873 998 856 981 q 917 1015 890 1015 q 983 988 958 1015 q 1008 904 1008 960 q 969 815 1008 850 q 867 771 931 779 q 976 463 976 644 q 843 111 976 243 q 513 -21 710 -21 q 192 111 322 -21 q 61 442 61 243 q 190 781 61 639 q 529 924 318 924 z "},"ơ":{"ha":729,"x_min":51,"x_max":711,"o":"m 340 578 q 227 513 274 578 q 181 335 181 447 q 233 115 181 201 q 371 29 286 29 q 485 90 442 29 q 528 283 528 150 q 478 494 528 411 q 340 578 429 578 m 357 624 q 525 574 444 624 q 579 561 553 561 q 633 574 615 561 q 651 601 651 586 q 642 624 651 617 q 604 638 632 632 q 584 649 594 639 q 574 676 574 658 q 591 715 574 700 q 635 731 608 731 q 689 707 667 731 q 711 633 711 683 q 677 554 711 585 q 586 517 643 524 q 657 314 657 432 q 564 71 657 158 q 356 -17 471 -17 q 135 76 219 -17 q 51 290 51 168 q 81 438 51 372 q 156 543 110 504 q 255 603 203 582 q 357 624 307 624 z "},"Ư":{"ha":1022,"x_min":46,"x_max":1060,"o":"m 664 864 l 664 903 l 917 903 q 999 949 999 903 q 944 988 999 979 q 911 1029 911 996 q 928 1069 911 1053 q 971 1086 946 1086 q 1036 1060 1013 1086 q 1060 982 1060 1033 q 965 863 1060 894 q 897 835 917 850 q 872 781 876 819 q 865 557 865 715 l 865 443 q 760 76 865 188 q 511 -19 668 -19 q 289 47 375 -19 q 167 378 167 140 l 167 724 q 148 836 167 815 q 46 864 129 857 l 46 903 l 406 903 l 406 864 q 303 838 322 858 q 285 724 285 817 l 285 408 q 351 148 285 239 q 546 57 418 57 q 808 453 808 57 l 808 557 q 799 786 808 711 q 765 842 793 826 q 664 864 738 858 z "},"ư":{"ha":760,"x_min":40,"x_max":722,"o":"m 719 68 l 719 33 q 613 11 675 28 q 561 -4 594 6 q 515 -17 528 -14 l 507 -8 l 507 90 q 404 18 432 35 q 297 -17 344 -17 q 173 34 221 -17 q 125 190 125 85 l 125 463 q 116 530 125 515 q 79 551 107 544 l 40 560 l 40 592 q 140 601 63 593 q 239 617 215 613 q 235 414 235 574 l 235 226 q 357 71 235 71 q 507 138 439 71 l 507 461 q 496 531 507 515 q 449 551 485 546 l 399 560 l 399 592 q 563 604 507 596 q 664 654 664 615 q 614 692 664 685 q 594 703 604 693 q 583 731 583 713 q 600 770 583 754 q 642 786 617 786 q 700 763 678 786 q 722 688 722 739 q 692 610 722 640 q 617 569 661 581 l 617 153 q 628 88 617 101 q 681 71 640 74 l 719 68 z "},"Ǻ":{"ha":960,"x_min":28,"x_max":935,"o":"m 935 0 l 594 0 l 594 39 q 675 61 660 47 q 676 115 690 75 q 600 329 667 143 l 304 329 q 243 150 261 207 q 235 65 221 85 q 329 39 250 46 l 329 0 l 28 0 l 28 39 q 122 71 96 49 q 183 182 149 93 l 471 911 l 514 924 q 626 612 522 900 q 782 179 729 324 q 840 68 815 90 q 935 39 865 46 l 935 0 m 581 389 l 458 743 l 456 743 q 325 389 397 586 l 581 389 m 479 1183 l 481 1183 q 565 1151 528 1183 q 601 1067 601 1118 q 565 982 601 1015 q 479 949 528 949 q 394 982 431 949 q 357 1067 357 1015 q 394 1151 357 1118 q 479 1183 431 1183 m 479 1139 l 478 1139 q 435 1119 451 1139 q 418 1067 418 1099 q 435 1013 418 1035 q 479 992 453 992 q 524 1013 507 992 q 540 1067 540 1033 q 524 1119 540 1099 q 479 1139 507 1139 m 664 1297 l 661 1286 l 403 1197 l 386 1232 q 604 1374 438 1265 q 639 1342 617 1372 q 664 1297 661 1313 z "},"ǻ":{"ha":610,"x_min":54,"x_max":601,"o":"m 601 54 l 483 -17 q 418 10 447 -17 q 385 72 396 33 q 351 49 378 68 q 314 24 325 31 q 282 5 303 17 q 247 -12 261 -7 q 221 -17 233 -17 q 101 34 149 -17 q 54 153 54 85 q 167 290 54 251 q 382 381 343 350 l 382 406 q 350 521 382 479 q 265 563 318 563 q 203 535 226 563 q 161 444 179 511 q 121 411 153 411 q 81 430 101 411 q 60 471 60 449 q 104 526 60 493 q 313 624 214 604 q 426 586 381 624 q 489 417 489 535 l 489 158 q 538 75 489 75 q 588 90 563 75 l 601 54 m 382 117 l 382 333 q 314 301 365 325 q 257 275 263 278 q 193 233 214 256 q 172 174 172 210 q 203 95 172 124 q 271 67 235 67 q 382 117 332 69 m 392 726 q 373 710 392 726 q 306 693 354 693 q 219 726 257 693 q 182 813 182 760 q 219 896 182 864 q 307 928 257 928 q 392 896 354 928 q 429 813 429 864 q 392 726 429 760 m 307 736 q 351 758 335 736 q 368 813 368 779 q 351 865 368 844 q 306 885 335 885 q 262 864 279 885 q 244 813 244 843 q 263 758 244 781 q 307 736 281 736 m 296 958 l 260 976 q 353 1197 283 1029 q 409 1207 364 1201 q 465 1210 454 1213 l 469 1197 l 296 958 z "},"Ǽ":{"ha":1207,"x_min":-15,"x_max":1176,"o":"m 1138 229 l 1176 219 q 1128 0 1146 64 l 471 0 l 471 39 q 581 69 560 44 q 601 186 601 93 l 601 413 l 356 413 q 224 142 265 236 q 211 67 197 88 q 303 38 225 47 l 303 0 l -15 0 l -15 38 q 81 67 53 47 q 150 156 110 86 q 482 779 253 336 q 499 837 506 822 q 439 858 492 851 l 382 865 l 382 903 l 1094 903 q 1108 706 1094 842 l 1067 700 q 1022 814 1046 783 q 975 846 1004 838 q 876 854 946 854 l 761 854 q 724 847 731 854 q 717 810 717 840 l 717 465 l 842 465 q 956 483 933 465 q 993 572 979 500 l 1035 572 l 1035 301 l 993 301 q 956 394 978 378 q 842 411 933 411 l 717 413 l 717 182 q 750 65 717 88 q 892 49 781 49 q 1007 58 968 49 q 1069 96 1046 68 q 1138 229 1104 138 m 601 467 l 601 847 q 563 819 585 847 q 381 467 504 713 l 601 467 m 939 1050 l 936 1039 l 678 950 l 661 985 q 879 1126 713 1018 q 914 1095 892 1125 q 939 1050 936 1065 z "},"ǽ":{"ha":932,"x_min":56,"x_max":897,"o":"m 394 382 l 394 414 q 359 521 394 479 q 272 563 324 563 q 207 531 229 563 q 168 442 189 511 q 131 408 160 408 q 90 427 113 408 q 67 467 67 446 q 110 526 67 497 q 319 624 208 597 q 422 594 382 624 q 479 519 461 567 q 683 625 568 622 q 833 560 771 625 q 897 414 896 496 q 890 380 897 390 q 865 365 883 369 q 497 343 804 353 q 559 144 496 213 q 713 76 622 76 q 867 146 793 76 l 890 118 q 772 15 836 46 q 664 -17 708 -17 q 440 107 514 -17 l 392 69 q 224 -17 279 -17 q 103 35 151 -17 q 56 150 56 86 q 165 289 56 250 q 394 382 357 356 m 651 572 l 650 572 q 556 526 599 572 q 504 399 514 481 q 747 401 586 399 q 770 408 764 401 q 776 433 776 415 q 744 531 778 490 q 651 572 710 572 m 275 71 l 276 71 q 421 149 361 71 q 393 333 393 208 q 257 275 357 317 q 193 235 213 257 q 174 176 174 213 q 204 99 174 128 q 275 71 235 71 m 465 685 l 429 703 q 522 924 453 756 q 578 933 533 928 q 635 936 624 939 l 639 924 l 465 685 z "},"Ǿ":{"ha":1040,"x_min":69,"x_max":986,"o":"m 879 936 l 810 832 q 938 672 890 767 q 986 465 986 578 q 852 113 986 247 q 518 -21 718 -21 q 279 49 386 -21 l 200 -62 l 164 -29 l 238 78 q 69 443 69 218 q 201 781 69 638 q 542 924 332 924 q 767 860 668 924 l 838 964 l 879 936 m 300 171 l 718 786 q 510 874 636 874 q 296 769 383 874 q 208 478 208 665 q 300 171 208 292 m 750 744 l 333 128 q 542 29 411 29 q 769 140 692 29 q 847 424 847 251 q 750 744 847 611 m 700 1057 l 697 1046 l 439 957 l 422 992 q 640 1133 474 1025 q 675 1102 653 1132 q 700 1057 697 1072 z "},"ǿ":{"ha":713,"x_min":51,"x_max":661,"o":"m 600 631 l 550 557 q 661 315 661 465 q 569 72 661 161 q 360 -17 476 -17 q 200 26 271 -17 l 144 -50 l 110 -19 l 163 53 q 81 161 110 97 q 51 292 51 225 q 81 440 51 374 q 158 544 111 506 q 258 603 206 582 q 361 624 311 624 q 513 583 443 624 l 563 656 l 600 631 m 218 139 l 468 517 q 346 578 424 578 q 224 510 274 578 q 175 324 175 443 q 218 139 175 213 m 496 474 l 247 97 q 372 29 292 29 q 490 95 443 29 q 538 297 538 161 q 496 474 538 399 m 340 685 l 304 703 q 397 924 328 756 q 453 933 408 928 q 510 936 499 939 l 514 924 l 340 685 z "},"Ș":{"ha":658,"x_min":58,"x_max":608,"o":"m 568 700 l 528 692 q 506 759 517 732 q 474 816 494 786 q 421 861 453 846 q 346 876 389 876 q 231 831 271 876 q 192 724 192 786 q 233 610 192 653 q 368 518 275 567 q 436 482 414 494 q 498 442 458 469 q 557 390 538 414 q 592 326 576 365 q 608 242 608 286 q 522 55 608 131 q 300 -21 436 -21 q 164 0 239 -21 q 96 29 119 15 q 58 244 81 71 l 99 254 q 124 182 108 217 q 167 110 140 147 q 235 51 193 74 q 326 29 276 29 q 449 74 404 29 q 493 196 493 119 q 449 310 493 267 q 313 403 406 353 q 263 430 276 422 q 215 459 250 438 q 163 499 181 481 q 124 545 146 518 q 93 606 103 572 q 83 676 83 639 q 161 852 83 781 q 369 924 239 924 q 544 892 443 924 q 568 700 550 846 m 325 -74 l 326 -74 q 397 -104 367 -74 q 428 -182 428 -135 q 281 -329 428 -293 l 267 -292 q 351 -214 351 -256 q 289 -157 351 -172 q 268 -124 268 -151 q 285 -87 268 -100 q 325 -74 303 -74 z "},"ș":{"ha":510,"x_min":57,"x_max":468,"o":"m 444 451 l 408 443 q 265 581 364 581 q 201 553 226 581 q 175 485 175 525 q 206 415 175 443 q 293 364 238 388 q 424 285 379 328 q 468 175 468 242 q 399 35 468 86 q 239 -17 329 -17 q 145 -2 190 -17 q 79 31 100 13 q 65 101 72 44 q 57 194 57 157 l 93 201 q 158 78 113 128 q 264 29 204 29 q 333 56 304 29 q 363 126 363 83 q 335 198 363 169 q 253 253 308 226 q 189 285 213 271 q 136 322 165 299 q 93 376 107 346 q 79 444 79 407 q 138 572 79 519 q 290 624 197 624 q 414 600 349 625 q 444 451 433 544 m 254 -61 l 256 -61 q 326 -92 296 -61 q 357 -169 357 -122 q 210 -317 357 -281 l 196 -279 q 281 -201 281 -243 q 218 -144 281 -160 q 197 -111 197 -139 q 215 -74 197 -87 q 254 -61 232 -61 z "},"Ț":{"ha":857,"x_min":39,"x_max":822,"o":"m 822 692 l 782 688 q 738 811 761 781 q 692 846 721 838 q 588 854 664 854 l 489 854 l 489 171 q 511 66 489 88 q 632 39 533 44 l 632 0 l 233 0 l 233 39 q 349 66 328 44 q 371 171 371 88 l 371 854 l 285 854 q 169 845 201 854 q 124 811 138 836 q 79 688 106 786 l 39 688 q 56 938 53 849 l 83 938 q 113 909 97 915 q 160 903 128 903 l 708 903 q 748 910 735 903 q 779 938 761 917 l 808 938 q 822 692 808 853 m 418 -51 l 419 -51 q 490 -82 460 -51 q 521 -160 521 -112 q 374 -307 521 -271 l 360 -269 q 444 -192 444 -233 q 382 -135 444 -150 q 361 -101 361 -129 q 378 -65 361 -78 q 418 -51 396 -51 z "},"ț":{"ha":424,"x_min":24,"x_max":414,"o":"m 414 50 l 319 1 q 261 -17 285 -17 q 125 149 125 -17 l 125 553 l 29 553 l 24 567 l 61 607 l 125 607 l 125 708 l 215 800 l 235 797 l 235 607 l 392 607 q 399 578 401 597 q 383 553 396 560 l 235 553 l 235 196 q 315 63 235 63 q 401 86 354 63 l 414 50 m 232 -65 l 233 -65 q 304 -96 274 -65 q 335 -174 335 -126 q 188 -321 335 -285 l 174 -283 q 258 -206 258 -247 q 196 -149 258 -164 q 175 -115 175 -143 q 192 -78 175 -92 q 232 -65 210 -65 z "},"Ȝ":{"ha":719,"x_min":60,"x_max":667,"o":"m 193 374 l 181 417 q 397 537 329 475 q 464 701 464 599 q 418 827 464 781 q 306 874 372 874 q 181 823 226 874 q 104 671 135 772 l 63 681 q 94 874 88 817 q 167 894 121 879 q 253 916 214 908 q 338 924 292 924 q 524 868 454 924 q 594 722 594 813 q 552 606 594 657 q 436 506 510 556 l 436 501 q 603 417 539 482 q 667 253 667 351 q 515 -25 667 90 q 146 -171 363 -140 l 60 -111 l 68 -82 q 183 -94 136 -94 q 434 -10 336 -94 q 532 210 532 75 q 476 361 532 310 q 349 413 421 413 q 193 374 300 413 z "},"ȝ":{"ha":535,"x_min":4,"x_max":493,"o":"m 113 150 l 97 190 q 264 292 214 242 q 314 417 314 343 q 282 508 314 475 q 200 542 250 542 q 42 457 129 542 l 15 488 q 243 624 129 624 q 378 576 325 624 q 432 451 432 529 q 371 319 432 378 q 311 271 350 299 l 311 268 q 443 190 393 250 q 493 46 493 131 q 370 -196 493 -96 q 75 -326 247 -296 l 4 -275 l 11 -247 q 93 -256 64 -256 q 293 -183 215 -256 q 371 8 371 -110 q 327 135 371 89 q 228 182 283 182 q 113 150 186 182 z "},"Ȳ":{"ha":881,"x_min":21,"x_max":861,"o":"m 861 903 l 861 864 q 764 838 790 856 q 696 754 738 819 q 519 450 604 607 q 497 363 497 406 l 497 174 q 519 66 497 86 q 636 39 540 46 l 636 0 l 243 0 l 243 39 q 358 66 336 46 q 379 174 379 86 l 379 358 q 350 440 379 389 q 175 746 231 653 q 107 838 132 818 q 21 864 82 858 l 21 903 l 353 903 l 353 864 q 272 839 283 856 q 283 789 260 822 q 469 460 311 735 q 635 772 590 675 q 647 840 660 824 q 554 864 635 856 l 554 903 l 861 903 m 617 996 l 306 996 l 306 1068 l 617 1068 l 617 996 z "},"ȳ":{"ha":638,"x_min":1,"x_max":664,"o":"m 664 607 l 664 572 q 588 547 608 564 q 540 471 568 531 q 504 388 525 439 q 444 240 483 336 q 367 53 404 143 q 224 -324 247 -232 q 179 -357 213 -357 q 125 -336 150 -357 q 100 -290 100 -315 q 136 -240 100 -264 q 239 -117 196 -203 q 282 -21 271 -58 q 281 42 292 10 q 121 467 183 319 q 78 545 99 526 q 1 572 57 564 l 1 607 l 283 607 l 283 572 q 226 549 236 564 q 231 496 217 535 l 357 147 q 485 493 422 307 q 484 549 497 533 q 413 572 471 564 l 413 607 l 664 607 m 499 761 l 194 761 l 194 838 l 499 838 l 499 761 z "},"ˆ":{"ha":556,"x_min":122,"x_max":433,"o":"m 433 706 l 400 682 q 278 817 339 740 q 156 682 218 740 l 122 706 q 261 932 200 817 l 296 932 q 433 706 361 808 z "},"ˇ":{"ha":556,"x_min":121,"x_max":433,"o":"m 400 938 l 433 914 q 294 688 361 814 l 260 688 q 121 914 194 810 l 156 938 q 276 803 226 869 q 400 938 351 892 z "},"ˉ":{"ha":556,"x_min":126,"x_max":431,"o":"m 431 761 l 126 761 l 126 838 l 431 838 l 431 761 z "},"˘":{"ha":556,"x_min":124,"x_max":432,"o":"m 390 900 l 432 900 q 389 754 432 799 q 276 710 346 710 q 166 754 208 710 q 124 900 124 799 l 165 900 q 278 790 181 790 q 390 900 375 790 z "},"˙":{"ha":556,"x_min":208,"x_max":347,"o":"m 278 747 q 229 768 250 747 q 208 817 208 789 q 229 869 208 847 q 279 890 250 890 q 328 869 308 890 q 347 817 347 849 q 327 767 347 788 q 278 747 307 747 z "},"˚":{"ha":556,"x_min":154,"x_max":401,"o":"m 364 726 q 345 710 364 726 q 278 693 326 693 q 192 726 229 693 q 154 813 154 760 q 192 896 154 864 q 279 928 229 928 q 364 896 326 928 q 401 813 401 864 q 364 726 401 760 m 279 736 q 324 758 307 736 q 340 813 340 779 q 324 865 340 844 q 278 885 307 885 q 234 864 251 885 q 217 813 217 843 q 235 758 217 781 q 279 736 253 736 z "},"˛":{"ha":556,"x_min":182,"x_max":411,"o":"m 411 -244 l 340 -285 q 296 -296 318 -296 q 211 -265 240 -296 q 182 -193 182 -233 q 184 -167 182 -181 q 189 -144 186 -154 q 198 -118 192 -133 q 208 -94 204 -103 q 220 -69 211 -86 q 233 -45 229 -51 q 247 -20 236 -39 q 261 3 258 -1 l 313 3 q 271 -150 271 -90 q 290 -203 271 -185 q 342 -222 310 -222 q 400 -211 369 -222 l 411 -244 z "},"˜":{"ha":556,"x_min":97,"x_max":458,"o":"m 133 724 l 97 746 q 208 871 138 871 q 289 844 238 871 q 363 818 342 818 q 424 881 396 818 l 458 861 q 349 736 421 736 q 257 769 317 736 q 193 790 219 790 q 133 724 161 790 z "},"˝":{"ha":556,"x_min":149,"x_max":514,"o":"m 188 686 l 149 699 q 211 922 208 906 q 263 933 221 926 q 318 939 306 940 l 322 925 l 188 686 m 379 686 l 340 699 q 403 922 403 921 q 456 933 414 926 q 510 939 497 940 l 514 925 l 379 686 z "},"ʹ":{"ha":319,"x_min":82,"x_max":283,"o":"m 281 894 l 283 875 q 118 563 175 667 l 82 569 q 154 903 110 672 q 217 908 169 913 q 281 894 265 904 z "},"͵":{"ha":319,"x_min":32,"x_max":235,"o":"m 232 167 l 235 147 q 68 -165 119 -74 l 32 -158 q 106 175 69 -10 q 167 181 119 185 q 232 167 215 176 z "},";":{"ha":319,"x_min":19,"x_max":253,"o":"m 164 368 l 163 368 q 101 394 125 368 q 76 463 76 421 q 101 528 76 501 q 164 554 126 554 q 228 528 203 554 q 253 463 253 501 q 228 394 253 421 q 164 368 203 368 m 57 -168 l 19 -158 q 93 175 56 -25 q 158 181 110 185 q 221 167 206 176 l 224 147 q 57 -168 86 -117 z "},"΄":{"ha":490,"x_min":229,"x_max":361,"o":"m 361 925 l 268 690 l 229 692 q 236 767 231 715 q 246 858 242 818 q 250 918 250 899 q 300 933 258 926 q 356 938 342 940 l 361 925 z "},"΅":{"ha":556,"x_min":67,"x_max":489,"o":"m 429 733 l 428 733 q 383 751 400 733 q 365 796 365 768 q 383 842 365 824 q 429 861 400 861 q 472 842 456 861 q 489 796 489 824 q 472 751 489 768 q 429 733 456 733 m 350 939 l 283 699 l 247 696 q 243 935 243 806 q 296 947 256 940 q 346 951 336 953 l 350 939 m 129 733 l 128 733 q 84 751 101 733 q 67 796 67 768 q 85 842 67 824 q 129 861 103 861 q 173 842 156 861 q 190 796 190 824 q 173 751 190 768 q 129 733 156 733 z "},"Ά":{"ha":960,"x_min":28,"x_max":935,"o":"m 935 0 l 594 0 l 594 39 q 675 61 660 47 q 676 115 690 75 q 600 329 667 143 l 304 329 q 243 150 261 207 q 235 65 221 85 q 329 39 250 46 l 329 0 l 28 0 l 28 39 q 122 71 96 49 q 183 182 149 93 l 471 911 l 514 924 q 626 612 522 900 q 782 179 729 324 q 840 68 815 90 q 935 39 865 46 l 935 0 m 581 389 l 458 743 l 456 743 q 325 389 397 586 l 581 389 m 289 967 l 196 732 l 157 733 q 164 808 158 757 q 174 900 169 860 q 178 960 178 940 q 228 975 186 968 q 283 979 269 982 l 289 967 z "},"·":{"ha":319,"x_min":69,"x_max":250,"o":"m 160 275 l 158 275 q 95 301 121 275 q 69 369 69 328 q 95 435 69 408 q 160 461 121 461 q 224 435 199 461 q 250 369 250 408 q 224 301 250 328 q 160 275 199 275 z "},"Έ":{"ha":789,"x_min":-126,"x_max":758,"o":"m 717 225 l 758 219 q 710 0 733 81 l 40 0 l 40 39 q 156 67 135 46 q 178 172 178 88 l 178 725 q 160 837 178 817 q 58 864 142 857 l 58 903 l 678 903 q 689 703 678 892 l 649 696 q 604 815 633 765 q 556 846 589 838 q 447 854 522 854 l 342 854 q 303 848 310 854 q 296 810 296 842 l 296 494 l 426 494 q 540 510 518 494 q 576 599 563 526 l 617 599 l 617 332 l 576 332 q 540 424 563 407 q 428 440 518 440 l 296 440 l 296 178 q 329 65 296 89 q 474 47 358 47 q 589 57 553 47 q 649 94 625 67 q 717 225 690 143 m 6 967 l -87 732 l -126 733 q -119 808 -125 757 q -110 900 -114 860 q -106 960 -106 940 q -56 975 -97 968 q 0 979 -14 982 l 6 967 z "},"Ή":{"ha":1064,"x_min":-136,"x_max":1013,"o":"m 1013 903 l 1013 864 q 907 837 926 857 q 888 732 888 817 l 888 171 q 906 65 888 85 q 1011 39 925 46 l 1011 0 l 639 0 l 639 39 q 749 65 729 46 q 769 171 769 85 l 769 449 l 296 449 l 296 171 q 315 65 296 85 q 421 39 335 46 l 421 0 l 56 0 l 56 39 q 159 65 140 46 q 178 171 178 85 l 178 732 q 159 838 178 818 q 53 864 140 857 l 53 903 l 413 903 l 413 864 q 314 837 332 857 q 296 732 296 817 l 296 507 l 769 507 l 769 732 q 751 837 769 817 q 650 864 732 857 l 650 903 l 1013 903 m -4 967 l -97 732 l -136 733 q -129 808 -135 757 q -119 900 -124 860 q -115 960 -115 940 q -65 975 -107 968 q -10 979 -24 982 l -4 967 z "},"Ί":{"ha":474,"x_min":-136,"x_max":421,"o":"m 421 0 l 53 0 l 53 39 q 158 66 139 46 q 178 174 178 86 l 178 729 q 158 837 178 817 q 53 864 139 857 l 53 903 l 421 903 l 421 864 q 315 837 335 857 q 296 729 296 817 l 296 174 q 315 65 296 85 q 421 39 335 46 l 421 0 m -4 967 l -97 732 l -136 733 q -129 808 -135 757 q -119 900 -124 860 q -115 960 -115 940 q -65 975 -107 968 q -10 979 -24 982 l -4 967 z "},"Ό":{"ha":1038,"x_min":-35,"x_max":976,"o":"m 528 924 l 529 924 q 844 794 711 924 q 976 463 976 665 q 843 111 976 243 q 513 -21 710 -21 q 192 111 322 -21 q 61 442 61 243 q 190 781 61 639 q 528 924 318 924 m 500 874 l 499 874 q 289 770 375 874 q 203 481 203 667 q 299 157 203 285 q 542 29 394 29 q 750 132 665 29 q 835 425 835 235 q 739 755 835 636 q 500 874 643 874 m 97 953 l 4 718 l -35 719 q -28 794 -33 743 q -18 886 -22 846 q -14 946 -14 926 q 36 961 -6 954 q 92 965 78 968 l 97 953 z "},"Ύ":{"ha":910,"x_min":-179,"x_max":900,"o":"m 900 868 l 893 849 q 882 849 888 849 q 874 850 876 850 q 754 807 817 850 q 640 683 692 764 q 511 269 511 485 l 511 169 q 533 65 511 86 q 650 38 556 43 l 650 0 l 256 0 l 256 38 q 372 65 350 43 q 393 169 393 86 l 393 278 q 319 657 393 504 q 61 846 231 846 q 8 842 36 846 l 1 878 q 171 924 88 924 q 411 717 329 924 q 472 429 457 610 l 479 429 q 561 679 508 575 q 680 855 608 786 q 831 924 751 924 q 900 868 871 924 m -47 967 l -140 732 l -179 733 q -172 808 -178 757 q -162 900 -167 860 q -158 960 -158 940 q -108 975 -150 968 q -53 979 -67 982 l -47 967 z "},"Ώ":{"ha":1051,"x_min":-21,"x_max":999,"o":"m 999 203 l 974 0 l 635 0 l 629 25 q 657 67 632 29 q 697 129 682 104 q 738 203 713 154 q 777 294 763 251 q 803 392 792 336 q 815 504 815 449 q 738 774 815 672 q 531 876 661 876 q 323 776 399 876 q 247 500 247 675 q 262 376 247 439 q 303 258 276 314 q 350 163 329 201 q 401 80 371 125 q 436 25 431 35 l 426 0 l 88 0 l 64 203 l 101 204 q 145 118 125 136 q 208 100 165 100 l 332 100 q 303 129 329 103 q 267 166 276 156 q 231 206 257 176 q 192 256 204 236 q 160 308 179 275 q 131 367 140 340 q 115 431 122 394 q 107 501 107 467 q 229 805 107 686 q 532 924 351 924 q 835 808 715 924 q 956 506 956 693 q 940 398 956 450 q 893 298 924 346 q 839 220 863 250 q 777 149 815 190 q 732 100 739 108 l 849 100 q 916 117 897 100 q 960 204 935 133 l 999 203 m 111 953 l 18 718 l -21 719 q -14 794 -19 743 q -4 886 -8 846 q 0 946 0 926 q 50 961 8 954 q 106 965 92 968 l 111 953 z "},"ΐ":{"ha":340,"x_min":-51,"x_max":371,"o":"m 319 79 l 331 43 q 196 -17 247 -17 q 128 15 158 -17 q 99 118 99 46 l 99 600 l 210 625 l 210 163 q 264 68 210 68 q 319 79 293 68 m 311 739 l 310 739 q 265 756 282 739 q 247 800 247 772 q 265 847 247 828 q 311 865 282 865 q 353 847 336 865 q 371 801 371 828 q 354 756 371 774 q 311 739 338 739 m 263 942 l 132 701 l 93 710 q 153 938 128 833 q 207 949 165 943 q 258 953 249 954 l 263 942 m 11 739 l 10 739 q -34 756 -17 739 q -51 800 -51 774 q -33 847 -51 828 q 11 865 -15 865 q 55 847 38 865 q 72 800 72 828 q 55 756 72 774 q 11 739 38 739 z "},"Α":{"ha":960,"x_min":28,"x_max":935,"o":"m 935 0 l 594 0 l 594 39 q 675 61 660 47 q 676 115 690 75 q 600 329 667 143 l 304 329 q 243 150 261 207 q 235 65 221 85 q 329 39 250 46 l 329 0 l 28 0 l 28 39 q 122 71 96 49 q 183 182 149 93 l 471 911 l 514 924 q 626 612 522 900 q 782 179 729 324 q 840 68 815 90 q 935 39 865 46 l 935 0 m 581 389 l 458 743 l 456 743 q 325 389 397 586 l 581 389 z "},"Β":{"ha":817,"x_min":50,"x_max":763,"o":"m 517 490 l 517 486 q 763 265 763 449 q 629 56 763 131 q 357 0 528 0 l 50 0 l 50 39 q 159 65 140 46 q 178 172 178 85 l 178 732 q 161 839 178 819 q 61 864 144 858 l 61 903 l 418 903 q 626 856 560 903 q 704 697 704 804 q 648 560 704 608 q 517 490 592 511 m 294 503 l 360 503 q 524 547 472 503 q 576 681 576 592 q 531 808 576 758 q 392 858 485 858 q 313 844 336 858 q 294 775 294 832 l 294 503 m 294 457 l 294 174 q 319 73 294 99 q 410 47 343 47 q 564 99 503 49 q 625 251 625 150 q 358 457 625 457 l 294 457 z "},"Γ":{"ha":704,"x_min":56,"x_max":674,"o":"m 674 696 l 632 690 q 583 815 608 783 q 537 846 567 838 q 440 854 507 854 l 339 854 q 302 847 310 854 q 294 811 294 840 l 294 175 q 316 67 294 89 q 432 39 338 44 l 432 0 l 56 0 l 56 39 q 156 67 136 44 q 175 175 175 89 l 175 728 q 156 836 175 814 q 57 864 138 858 l 57 903 l 660 903 q 674 696 660 832 z "},"Δ":{"ha":890,"x_min":61,"x_max":833,"o":"m 833 0 l 61 0 l 61 33 l 433 913 l 471 924 l 833 33 l 833 0 m 692 69 l 421 749 l 149 69 l 692 69 z "},"Ε":{"ha":789,"x_min":40,"x_max":758,"o":"m 717 225 l 758 219 q 710 0 733 81 l 40 0 l 40 39 q 156 67 135 46 q 178 172 178 88 l 178 725 q 160 837 178 817 q 58 864 142 857 l 58 903 l 678 903 q 689 703 678 892 l 649 696 q 604 815 633 765 q 556 846 589 838 q 447 854 522 854 l 342 854 q 303 848 310 854 q 296 810 296 842 l 296 494 l 426 494 q 540 510 518 494 q 576 599 563 526 l 617 599 l 617 332 l 576 332 q 540 424 563 407 q 428 440 518 440 l 296 440 l 296 178 q 329 65 296 89 q 474 47 358 47 q 589 57 553 47 q 649 94 625 67 q 717 225 690 143 z "},"Ζ":{"ha":838,"x_min":40,"x_max":821,"o":"m 779 244 l 821 236 q 806 169 817 219 q 786 72 796 118 q 769 0 776 25 l 51 0 l 40 21 q 625 853 508 683 l 383 853 q 242 843 276 853 q 188 803 207 833 q 140 682 160 763 l 99 682 q 115 938 114 879 l 149 938 q 175 909 161 915 q 222 903 189 903 l 776 903 l 786 883 q 213 58 354 267 q 439 50 281 50 q 622 60 569 50 q 704 101 675 71 q 779 244 742 143 z "},"Η":{"ha":1064,"x_min":53,"x_max":1013,"o":"m 1013 903 l 1013 864 q 907 837 926 857 q 888 732 888 817 l 888 171 q 906 65 888 85 q 1011 39 925 46 l 1011 0 l 639 0 l 639 39 q 749 65 729 46 q 769 171 769 85 l 769 449 l 296 449 l 296 171 q 315 65 296 85 q 421 39 335 46 l 421 0 l 56 0 l 56 39 q 159 65 140 46 q 178 171 178 85 l 178 732 q 159 838 178 818 q 53 864 140 857 l 53 903 l 413 903 l 413 864 q 314 837 332 857 q 296 732 296 817 l 296 507 l 769 507 l 769 732 q 751 837 769 817 q 650 864 732 857 l 650 903 l 1013 903 z "},"Θ":{"ha":1026,"x_min":61,"x_max":965,"o":"m 522 924 l 524 924 q 835 794 706 924 q 965 464 965 665 q 833 112 965 244 q 506 -21 701 -21 q 189 111 317 -21 q 61 440 61 243 q 114 674 61 565 q 274 853 167 783 q 522 924 382 924 m 494 874 l 493 874 q 287 769 371 874 q 203 479 203 665 q 297 158 203 285 q 535 31 390 31 q 741 132 658 31 q 824 424 824 233 q 732 755 824 636 q 494 874 640 874 m 697 313 l 654 313 q 634 400 647 383 q 571 417 621 417 l 453 417 q 390 400 403 417 q 369 313 376 383 l 326 313 l 326 615 l 369 615 q 390 528 376 544 q 453 513 403 513 l 571 513 q 634 528 621 513 q 654 615 647 544 l 697 615 l 697 313 z "},"Ι":{"ha":474,"x_min":53,"x_max":421,"o":"m 421 0 l 53 0 l 53 39 q 158 66 139 46 q 178 174 178 86 l 178 729 q 158 837 178 817 q 53 864 139 857 l 53 903 l 421 903 l 421 864 q 315 837 335 857 q 296 729 296 817 l 296 174 q 315 65 296 85 q 421 39 335 46 l 421 0 z "},"Κ":{"ha":935,"x_min":56,"x_max":926,"o":"m 926 0 l 713 0 q 368 404 681 36 q 293 443 329 450 l 293 179 q 314 67 293 89 q 421 39 335 46 l 421 0 l 60 0 l 60 39 q 159 67 140 46 q 178 179 178 89 l 178 722 q 175 797 178 774 q 157 837 172 821 q 122 856 142 853 q 56 864 101 860 l 56 903 l 414 903 l 414 864 q 313 835 332 857 q 293 722 293 814 l 293 479 q 390 543 333 490 q 624 789 543 690 q 651 840 654 826 q 600 860 647 854 l 569 864 l 569 903 l 903 903 l 903 864 q 783 838 824 857 q 676 760 743 819 q 431 517 608 697 q 757 139 592 317 q 842 64 811 82 q 926 39 874 46 l 926 0 z "},"Λ":{"ha":953,"x_min":28,"x_max":932,"o":"m 932 0 l 589 0 l 589 39 q 672 65 657 49 q 672 128 688 81 q 457 736 558 447 l 454 736 q 350 449 424 647 q 247 160 276 251 q 241 69 226 89 q 335 39 256 50 l 335 0 l 28 0 l 28 39 q 124 76 97 51 q 186 193 150 100 q 467 910 375 668 l 511 924 q 781 181 696 406 q 839 72 813 96 q 932 39 865 47 l 932 0 z "},"Μ":{"ha":1238,"x_min":36,"x_max":1196,"o":"m 1196 0 l 831 0 l 831 39 q 932 71 915 47 q 947 204 949 94 l 943 771 l 938 771 l 599 10 l 571 10 l 260 751 l 257 751 l 236 356 q 232 125 229 221 q 260 63 233 78 q 360 39 286 47 l 360 0 l 36 0 l 36 39 q 123 63 99 46 q 154 122 147 79 q 181 376 169 226 l 200 665 q 205 742 204 715 q 201 794 206 768 q 192 828 197 819 q 169 847 188 838 q 134 858 151 856 q 79 864 117 860 l 79 903 l 307 903 l 624 208 l 944 903 l 1181 903 l 1181 864 q 1147 861 1158 863 q 1120 857 1136 860 q 1098 852 1104 854 q 1082 845 1092 850 q 1069 835 1072 840 q 1060 821 1065 831 q 1055 802 1056 811 q 1053 777 1054 793 q 1052 746 1051 761 q 1053 707 1053 731 l 1067 204 q 1088 70 1069 93 q 1196 39 1106 47 l 1196 0 z "},"Ν":{"ha":1032,"x_min":28,"x_max":999,"o":"m 999 903 l 999 864 q 913 843 939 861 q 882 781 886 825 q 874 547 874 718 l 874 -12 l 831 -12 l 239 715 l 236 715 l 236 367 q 244 132 236 213 q 278 62 250 81 q 378 39 306 43 l 378 0 l 49 0 l 49 39 q 138 60 111 42 q 171 129 165 79 q 179 367 179 215 l 179 672 q 175 766 179 746 q 151 813 171 786 q 28 864 117 857 l 28 903 l 233 903 l 813 206 l 817 206 l 817 547 q 807 778 817 688 q 773 842 801 824 q 671 864 744 860 l 671 903 l 999 903 z "},"Ξ":{"ha":843,"x_min":71,"x_max":778,"o":"m 742 686 l 701 686 q 665 788 682 768 q 586 808 649 808 l 261 808 q 184 787 201 808 q 147 686 167 765 l 107 686 l 118 903 l 731 903 l 742 686 m 656 325 l 615 325 q 589 407 604 390 q 518 424 574 424 l 329 424 q 260 408 275 424 q 233 325 244 392 l 193 325 l 193 617 l 235 617 q 259 535 246 551 q 321 519 272 519 l 518 519 q 589 535 574 519 q 614 617 604 551 l 656 617 l 656 325 m 778 238 l 764 0 l 86 0 l 71 238 l 110 238 q 165 124 140 149 q 271 100 190 100 l 578 100 q 685 124 660 100 q 739 238 710 149 l 778 238 z "},"Ο":{"ha":1038,"x_min":61,"x_max":976,"o":"m 528 924 l 529 924 q 844 794 711 924 q 976 463 976 665 q 843 111 976 243 q 513 -21 710 -21 q 192 111 322 -21 q 61 442 61 243 q 190 781 61 639 q 528 924 318 924 m 500 874 l 499 874 q 289 770 375 874 q 203 481 203 667 q 299 157 203 285 q 542 29 394 29 q 750 132 665 29 q 835 425 835 235 q 739 755 835 636 q 500 874 643 874 z "},"Π":{"ha":1025,"x_min":50,"x_max":976,"o":"m 976 903 l 976 864 q 870 835 890 857 q 850 731 850 814 l 850 172 q 869 67 850 89 q 972 39 889 44 l 972 0 l 603 0 l 603 39 q 711 67 690 44 q 732 172 732 89 l 732 810 q 724 844 732 838 q 686 851 715 851 l 340 851 q 301 844 310 851 q 293 807 293 836 l 293 172 q 313 67 293 89 q 414 39 333 44 l 414 0 l 56 0 l 56 39 q 156 67 136 44 q 175 172 175 90 l 175 731 q 156 836 175 815 q 50 864 136 857 l 50 903 l 976 903 z "},"Ρ":{"ha":782,"x_min":56,"x_max":731,"o":"m 64 903 l 407 903 q 640 844 563 903 q 731 649 731 778 q 651 451 731 524 q 460 364 572 379 q 397 364 424 361 l 294 390 l 294 172 q 316 65 294 85 q 432 39 338 46 l 432 0 l 56 0 l 56 39 q 158 67 139 46 q 178 174 178 88 l 178 729 q 160 839 178 819 q 64 864 143 858 l 64 903 m 294 776 l 294 436 q 396 419 338 419 q 538 472 478 419 q 597 644 597 525 q 538 805 597 751 q 388 858 479 858 q 310 842 326 858 q 294 776 294 828 z "},"Σ":{"ha":831,"x_min":46,"x_max":792,"o":"m 792 233 l 738 0 l 46 0 l 46 31 l 410 450 l 64 872 l 64 903 l 719 903 q 735 700 725 804 l 694 694 q 643 817 671 785 q 593 845 626 838 q 483 853 560 853 l 232 853 l 525 497 l 188 99 l 576 99 q 683 127 647 99 q 751 243 719 156 l 792 233 z "},"Τ":{"ha":857,"x_min":39,"x_max":822,"o":"m 822 692 l 782 688 q 738 811 761 781 q 692 846 721 838 q 588 854 664 854 l 489 854 l 489 171 q 511 66 489 88 q 632 39 533 44 l 632 0 l 233 0 l 233 39 q 349 66 328 44 q 371 171 371 88 l 371 854 l 285 854 q 169 845 201 854 q 124 811 138 836 q 79 688 106 786 l 39 688 q 56 938 53 849 l 83 938 q 113 909 97 915 q 160 903 128 903 l 708 903 q 748 910 735 903 q 779 938 761 917 l 808 938 q 822 692 808 853 z "},"Υ":{"ha":910,"x_min":1,"x_max":900,"o":"m 900 868 l 893 849 q 882 849 888 849 q 874 850 876 850 q 754 807 817 850 q 640 683 692 764 q 511 269 511 485 l 511 169 q 533 65 511 86 q 650 38 556 43 l 650 0 l 256 0 l 256 38 q 372 65 350 43 q 393 169 393 86 l 393 278 q 319 657 393 504 q 61 846 231 846 q 8 842 36 846 l 1 878 q 171 924 88 924 q 411 717 329 924 q 472 429 457 610 l 479 429 q 561 679 508 575 q 680 855 608 786 q 831 924 751 924 q 900 868 871 924 z "},"Φ":{"ha":1047,"x_min":61,"x_max":986,"o":"m 679 914 l 679 875 q 597 858 613 869 q 581 804 581 846 q 715 783 649 801 q 845 728 782 765 q 947 624 908 692 q 986 468 986 557 q 959 334 986 394 q 890 235 932 274 q 792 170 847 197 q 685 131 738 143 q 581 118 632 119 q 597 56 581 69 q 679 39 614 43 l 679 0 l 369 0 l 369 39 q 451 56 435 43 q 467 118 467 69 q 335 138 401 119 q 206 194 269 157 q 101 299 142 231 q 61 457 61 367 q 88 588 61 529 q 156 685 114 647 q 253 751 199 724 q 360 790 307 778 q 467 804 414 803 q 451 858 467 846 q 376 875 436 869 l 376 914 l 679 914 m 467 164 l 467 760 q 373 740 418 757 q 285 692 328 724 q 215 601 242 660 q 189 468 189 543 q 215 331 189 390 q 283 237 240 271 q 372 185 325 203 q 467 164 418 167 m 581 760 l 581 164 q 674 183 629 167 q 763 233 719 200 q 833 324 807 265 q 860 463 860 383 q 833 600 860 540 q 764 692 807 660 q 675 741 721 725 q 581 760 629 757 z "},"Χ":{"ha":908,"x_min":10,"x_max":910,"o":"m 910 0 l 544 0 l 544 39 q 622 59 608 46 q 614 107 635 72 q 429 404 497 299 q 261 124 332 254 q 247 63 235 79 q 328 39 258 47 l 328 0 l 10 0 l 10 39 q 107 63 71 46 q 172 118 143 79 q 399 450 253 222 q 287 628 356 519 q 213 747 218 738 q 139 835 168 815 q 36 864 110 856 l 36 903 l 376 903 l 376 864 q 305 844 317 857 q 311 806 293 832 q 471 553 358 725 q 607 778 558 686 q 622 840 633 824 q 542 864 611 856 l 542 903 l 860 903 l 860 864 q 749 837 782 856 q 668 757 715 818 q 499 508 608 674 q 718 167 683 218 q 801 70 765 94 q 910 39 838 46 l 910 0 z "},"Ψ":{"ha":1007,"x_min":21,"x_max":986,"o":"m 972 915 l 986 878 q 928 825 943 856 q 899 721 913 794 l 879 625 q 842 511 865 551 q 776 438 819 471 q 561 371 696 375 l 561 169 q 581 67 561 89 q 679 39 600 44 l 679 0 l 324 0 l 324 39 q 422 67 403 44 q 442 169 442 89 l 442 371 q 217 439 297 375 q 153 514 175 471 q 119 628 131 557 l 101 728 q 89 800 93 782 q 69 841 85 818 q 21 878 53 864 l 35 915 q 182 846 138 900 q 224 736 210 810 l 239 654 q 306 476 261 526 q 442 419 351 426 l 442 733 q 423 836 442 814 q 331 864 404 858 l 331 903 l 672 903 l 672 864 q 580 836 599 858 q 561 733 561 814 l 561 419 q 704 472 664 425 q 768 656 744 518 l 782 736 q 828 846 794 811 q 972 915 874 901 z "}}}
